  0
SECTION
  2
HEADER
  9
$ACADVER
  1
AC1014
  9
$ACADMAINTVER
 70
     9
  9
$DWGCODEPAGE
  3
ANSI_932
  9
$INSBASE
 10
0.0
 20
0.0
 30
0.0
  9
$EXTMIN
 10
1.000000000000000E+20
 20
1.000000000000000E+20
 30
1.000000000000000E+20
  9
$EXTMAX
 10
-1.000000000000000E+20
 20
-1.000000000000000E+20
 30
-1.000000000000000E+20
  9
$LIMMIN
 10
0.0
 20
0.0
  9
$LIMMAX
 10
12.0
 20
9.0
  9
$ORTHOMODE
 70
     0
  9
$REGENMODE
 70
     1
  9
$FILLMODE
 70
     1
  9
$QTEXTMODE
 70
     0
  9
$MIRRTEXT
 70
     1
  9
$DRAGMODE
 70
     2
  9
$LTSCALE
 40
1.0
  9
$OSMODE
 70
    37
  9
$ATTMODE
 70
     1
  9
$TEXTSIZE
 40
0.2
  9
$TRACEWID
 40
0.05
  9
$TEXTSTYLE
  7
STANDARD
  9
$CLAYER
  8
0
  9
$CELTYPE
  6
BYLAYER
  9
$CECOLOR
 62
   256
  9
$CELTSCALE
 40
1.0
  9
$DELOBJ
 70
     1
  9
$DISPSILH
 70
     0
  9
$DIMSCALE
 40
1.0
  9
$DIMASZ
 40
0.18
  9
$DIMEXO
 40
0.0625
  9
$DIMDLI
 40
0.38
  9
$DIMRND
 40
0.0
  9
$DIMDLE
 40
0.0
  9
$DIMEXE
 40
0.18
  9
$DIMTP
 40
0.0
  9
$DIMTM
 40
0.0
  9
$DIMTXT
 40
0.18
  9
$DIMCEN
 40
0.09
  9
$DIMTSZ
 40
0.0
  9
$DIMTOL
 70
     0
  9
$DIMLIM
 70
     0
  9
$DIMTIH
 70
     1
  9
$DIMTOH
 70
     1
  9
$DIMSE1
 70
     0
  9
$DIMSE2
 70
     0
  9
$DIMTAD
 70
     0
  9
$DIMZIN
 70
     0
  9
$DIMBLK
  1

  9
$DIMASO
 70
     1
  9
$DIMSHO
 70
     1
  9
$DIMPOST
  1

  9
$DIMAPOST
  1

  9
$DIMALT
 70
     0
  9
$DIMALTD
 70
     2
  9
$DIMALTF
 40
25.4
  9
$DIMLFAC
 40
1.0
  9
$DIMTOFL
 70
     0
  9
$DIMTVP
 40
0.0
  9
$DIMTIX
 70
     0
  9
$DIMSOXD
 70
     0
  9
$DIMSAH
 70
     0
  9
$DIMBLK1
  1

  9
$DIMBLK2
  1

  9
$DIMSTYLE
  2
STANDARD
  9
$DIMCLRD
 70
     0
  9
$DIMCLRE
 70
     0
  9
$DIMCLRT
 70
     0
  9
$DIMTFAC
 40
1.0
  9
$DIMGAP
 40
0.09
  9
$DIMJUST
 70
     0
  9
$DIMSD1
 70
     0
  9
$DIMSD2
 70
     0
  9
$DIMTOLJ
 70
     1
  9
$DIMTZIN
 70
     0
  9
$DIMALTZ
 70
     0
  9
$DIMALTTZ
 70
     0
  9
$DIMFIT
 70
     3
  9
$DIMUPT
 70
     0
  9
$DIMUNIT
 70
     2
  9
$DIMDEC
 70
     4
  9
$DIMTDEC
 70
     4
  9
$DIMALTU
 70
     2
  9
$DIMALTTD
 70
     2
  9
$DIMTXSTY
  7
STANDARD
  9
$DIMAUNIT
 70
     0
  9
$LUNITS
 70
     2
  9
$LUPREC
 70
     4
  9
$SKETCHINC
 40
0.1
  9
$FILLETRAD
 40
0.5
  9
$AUNITS
 70
     0
  9
$AUPREC
 70
     0
  9
$MENU
  1
.
  9
$ELEVATION
 40
0.0
  9
$PELEVATION
 40
0.0
  9
$THICKNESS
 40
0.0
  9
$LIMCHECK
 70
     0
  9
$CHAMFERA
 40
0.5
  9
$CHAMFERB
 40
0.5
  9
$CHAMFERC
 40
1.0
  9
$CHAMFERD
 40
0.0
  9
$SKPOLY
 70
     0
  9
$TDCREATE
 40
2456720.644166667
  9
$TDUPDATE
 40
2456720.644166678
  9
$TDINDWG
 40
0.0000000116
  9
$TDUSRTIMER
 40
0.0000000116
  9
$USRTIMER
 70
     1
  9
$ANGBASE
 50
0.0
  9
$ANGDIR
 70
     0
  9
$PDMODE
 70
     0
  9
$PDSIZE
 40
0.0
  9
$PLINEWID
 40
0.0
  9
$COORDS
 70
     1
  9
$SPLFRAME
 70
     0
  9
$SPLINETYPE
 70
     6
  9
$SPLINESEGS
 70
     8
  9
$ATTDIA
 70
     0
  9
$ATTREQ
 70
     1
  9
$HANDLING
 70
     1
  9
$HANDSEED
  5
DA
  9
$SURFTAB1
 70
     6
  9
$SURFTAB2
 70
     6
  9
$SURFTYPE
 70
     6
  9
$SURFU
 70
     6
  9
$SURFV
 70
     6
  9
$UCSNAME
  2

  9
$UCSORG
 10
0.0
 20
0.0
 30
0.0
  9
$UCSXDIR
 10
1.0
 20
0.0
 30
0.0
  9
$UCSYDIR
 10
0.0
 20
1.0
 30
0.0
  9
$PUCSNAME
  2

  9
$PUCSORG
 10
0.0
 20
0.0
 30
0.0
  9
$PUCSXDIR
 10
1.0
 20
0.0
 30
0.0
  9
$PUCSYDIR
 10
0.0
 20
1.0
 30
0.0
  9
$USERI1
 70
     0
  9
$USERI2
 70
     0
  9
$USERI3
 70
     0
  9
$USERI4
 70
     0
  9
$USERI5
 70
     0
  9
$USERR1
 40
0.0
  9
$USERR2
 40
0.0
  9
$USERR3
 40
0.0
  9
$USERR4
 40
0.0
  9
$USERR5
 40
0.0
  9
$WORLDVIEW
 70
     1
  9
$SHADEDGE
 70
     3
  9
$SHADEDIF
 70
    70
  9
$TILEMODE
 70
     1
  9
$MAXACTVP
 70
    64
  9
$PINSBASE
 10
0.0
 20
0.0
 30
0.0
  9
$PLIMCHECK
 70
     0
  9
$PEXTMIN
 10
1.000000000000000E+20
 20
1.000000000000000E+20
 30
1.000000000000000E+20
  9
$PEXTMAX
 10
-1.000000000000000E+20
 20
-1.000000000000000E+20
 30
-1.000000000000000E+20
  9
$PLIMMIN
 10
0.0
 20
0.0
  9
$PLIMMAX
 10
12.0
 20
9.0
  9
$UNITMODE
 70
     0
  9
$VISRETAIN
 70
     1
  9
$PLINEGEN
 70
     0
  9
$PSLTSCALE
 70
     1
  9
$TREEDEPTH
 70
  3020
  9
$PICKSTYLE
 70
     1
  9
$CMLSTYLE
  2
STANDARD
  9
$CMLJUST
 70
     0
  9
$CMLSCALE
 40
1.0
  9
$PROXYGRAPHICS
 70
     1
  9
$MEASUREMENT
 70
     0
  0
ENDSEC
  0
SECTION
  2
CLASSES
  0
CLASS
  1
ACDBDICTIONARYWDFLT
  2
AcDbDictionaryWithDefault
  3
ObjectDBX Classes
 90
        0
280
     0
281
     0
  0
CLASS
  1
VISUALSTYLE
  2
AcDbVisualStyle
  3
ObjectDBX Classes
 90
     4095
280
     0
281
     0
  0
CLASS
  1
XRECORD
  2
AcDbXrecord
  3
AutoCAD 2000
 90
        0
280
     0
281
     0
  0
CLASS
  1
LWPOLYLINE
  2
AcDbPolyline
  3
AutoCAD 2000
 90
        0
280
     0
281
     1
  0
CLASS
  1
HATCH
  2
AcDbHatch
  3
AutoCAD 2000
 90
        0
280
     0
281
     1
  0
CLASS
  1
ACDBPLACEHOLDER
  2
AcDbPlaceHolder
  3
ObjectDBX Classes
 90
        0
280
     0
281
     0
  0
CLASS
  1
LAYOUT
  2
AcDbLayout
  3
ObjectDBX Classes
 90
        0
280
     0
281
     0
  0
ENDSEC
  0
SECTION
  2
TABLES
  0
TABLE
  2
VPORT
  5
8
330
0
100
AcDbSymbolTable
 70
     1
  0
VPORT
  5
29
330
8
100
AcDbSymbolTableRecord
100
AcDbViewportTableRecord
  2
*ACTIVE
 70
     0
 10
0.0
 20
0.0
 11
1.0
 21
1.0
 12
0.0
 22
0.0
 13
0.0
 23
0.0
 14
0.5
 24
0.5
 15
0.5
 25
0.5
 16
0.0
 26
0.0
 36
1.0
 17
762.4991941453127
 27
-762.4991941453127
 37
0.0
 40
1524.998388290625
 41
1.0
 42
50.0
 43
0.0
 44
0.0
 50
0.0
 51
0.0
 71
     0
 72
   100
 73
     1
 74
     3
 75
     0
 76
     0
 77
     0
 78
     0
  0
ENDTAB
  0
TABLE
  2
LTYPE
  5
5
330
0
100
AcDbSymbolTable
 70
     1
  0
LTYPE
  5
14
330
5
100
AcDbSymbolTableRecord
100
AcDbLinetypeTableRecord
  2
BYBLOCK
 70
     0
  3

 72
    65
 73
     0
 40
0.0
  0
LTYPE
  5
15
330
5
100
AcDbSymbolTableRecord
100
AcDbLinetypeTableRecord
  2
BYLAYER
 70
     0
  3

 72
    65
 73
     0
 40
0.0
  0
LTYPE
  5
16
330
5
100
AcDbSymbolTableRecord
100
AcDbLinetypeTableRecord
  2
CONTINUOUS
 70
     0
  3
Solid line
 72
    65
 73
     0
 40
0.0
  0
ENDTAB
  0
TABLE
  2
LAYER
  5
2
330
0
100
AcDbSymbolTable
 70
     2
  0
LAYER
  5
10
330
2
100
AcDbSymbolTableRecord
100
AcDbLayerTableRecord
  2
0
 70
     0
 62
     7
  6
CONTINUOUS
  0
LAYER
  5
3B
330
2
100
AcDbSymbolTableRecord
100
AcDbLayerTableRecord
  2
LAYER_1
 70
     0
 62
     7
  6
CONTINUOUS
  0
ENDTAB
  0
TABLE
  2
STYLE
  5
3
330
0
100
AcDbSymbolTable
 70
     1
  0
STYLE
  5
11
330
3
100
AcDbSymbolTableRecord
100
AcDbTextStyleTableRecord
  2
STANDARD
 70
     0
 40
0.0
 41
1.0
 50
0.0
 71
     0
 42
0.2
  3
txt
  4

  0
ENDTAB
  0
TABLE
  2
VIEW
  5
6
330
0
100
AcDbSymbolTable
 70
     0
  0
ENDTAB
  0
TABLE
  2
UCS
  5
7
330
0
100
AcDbSymbolTable
 70
     0
  0
ENDTAB
  0
TABLE
  2
APPID
  5
9
330
0
100
AcDbSymbolTable
 70
     1
  0
APPID
  5
12
330
9
100
AcDbSymbolTableRecord
100
AcDbRegAppTableRecord
  2
ACAD
 70
     0
  0
ENDTAB
  0
TABLE
  2
DIMSTYLE
  5
A
330
0
100
AcDbSymbolTable
 70
     1
  0
DIMSTYLE
105
27
330
A
100
AcDbSymbolTableRecord
100
AcDbDimStyleTableRecord
  2
STANDARD
 70
     0
  3

  4

  5

  6

  7

 40
1.0
 41
0.18
 42
0.0625
 43
0.38
 44
0.18
 45
0.0
 46
0.0
 47
0.0
 48
0.0
140
0.18
141
0.09
142
0.0
143
25.4
144
1.0
145
0.0
146
1.0
147
0.09
 71
     0
 72
     0
 73
     1
 74
     1
 75
     0
 76
     0
 77
     0
 78
     0
170
     0
171
     2
172
     0
173
     0
174
     0
175
     0
176
     0
177
     0
178
     0
270
     2
271
     4
272
     4
273
     2
274
     2
340
11
275
     0
280
     0
281
     0
282
     0
283
     1
284
     0
285
     0
286
     0
287
     3
288
     0
  0
ENDTAB
  0
TABLE
  2
BLOCK_RECORD
  5
1
330
0
100
AcDbSymbolTable
 70
     1
  0
BLOCK_RECORD
  5
1F
330
1
100
AcDbSymbolTableRecord
100
AcDbBlockTableRecord
  2
*MODEL_SPACE
  0
BLOCK_RECORD
  5
1B
330
1
100
AcDbSymbolTableRecord
100
AcDbBlockTableRecord
  2
*PAPER_SPACE
  0
ENDTAB
  0
ENDSEC
  0
SECTION
  2
BLOCKS
  0
BLOCK
  5
20
330
1F
100
AcDbEntity
  8
0
100
AcDbBlockBegin
  2
*MODEL_SPACE
 70
     0
 71
     0
 10
0.0
 20
0.0
 30
0.0
  3
*MODEL_SPACE
  1

  0
ENDBLK
  5
21
330
1F
100
AcDbEntity
  8
0
100
AcDbBlockEnd
  0
BLOCK
  5
1C
330
1B
100
AcDbEntity
 67
     1
  8
0
100
AcDbBlockBegin
  2
*PAPER_SPACE
 70
     0
 71
     0
 10
0.0
 20
0.0
 30
0.0
  3
*PAPER_SPACE
  1

  0
ENDBLK
  5
1D
330
1B
100
AcDbEntity
 67
     1
  8
0
100
AcDbBlockEnd
  0
ENDSEC
  0
SECTION
  2
ENTITIES
  0
POLYLINE
  5
3C
330
1F
100
AcDbEntity
  8
LAYER_1
 62
   250
100
AcDb2dPolyline
 66
     1
 10
0.0
 20
0.0
 30
0.0
  0
VERTEX
  5
3D
330
3C
100
AcDbEntity
  8
LAYER_1
 62
   250
100
AcDbVertex
100
AcDb2dVertex
 10
760.647455321991
 20
-789.0774167949182
 30
0.0
  0
VERTEX
  5
3E
330
3C
100
AcDbEntity
  8
LAYER_1
 62
   250
100
AcDbVertex
100
AcDb2dVertex
 10
430.6476154522339
 20
-789.0774167949182
 30
0.0
  0
VERTEX
  5
3F
330
3C
100
AcDbEntity
  8
LAYER_1
 62
   250
100
AcDbVertex
100
AcDb2dVertex
 10
430.6476154522339
 20
-766.9350990921205
 30
0.0
  0
VERTEX
  5
40
330
3C
100
AcDbEntity
  8
LAYER_1
 62
   250
100
AcDbVertex
100
AcDb2dVertex
 10
760.647455321991
 20
-766.9350990921205
 30
0.0
  0
VERTEX
  5
41
330
3C
100
AcDbEntity
  8
LAYER_1
 62
   250
100
AcDbVertex
100
AcDb2dVertex
 10
760.647455321991
 20
-789.0774167949182
 30
0.0
  0
SEQEND
  5
42
330
3C
100
AcDbEntity
  8
LAYER_1
  0
POLYLINE
  5
43
330
1F
100
AcDbEntity
  8
LAYER_1
 62
   250
100
AcDb2dPolyline
 66
     1
 10
0.0
 20
0.0
 30
0.0
  0
VERTEX
  5
44
330
43
100
AcDbEntity
  8
LAYER_1
 62
   250
100
AcDbVertex
100
AcDb2dVertex
 10
760.647455321991
 20
-789.0774167949182
 30
0.0
  0
VERTEX
  5
45
330
43
100
AcDbEntity
  8
LAYER_1
 62
   250
100
AcDbVertex
100
AcDb2dVertex
 10
760.647455321991
 20
-811.219734497716
 30
0.0
  0
VERTEX
  5
46
330
43
100
AcDbEntity
  8
LAYER_1
 62
   250
100
AcDbVertex
100
AcDb2dVertex
 10
430.6476154522339
 20
-811.219734497716
 30
0.0
  0
VERTEX
  5
47
330
43
100
AcDbEntity
  8
LAYER_1
 62
   250
100
AcDbVertex
100
AcDb2dVertex
 10
430.6476154522339
 20
-789.0774167949182
 30
0.0
  0
SEQEND
  5
48
330
43
100
AcDbEntity
  8
LAYER_1
  0
SPLINE
  5
49
330
1F
100
AcDbEntity
  8
LAYER_1
 62
   250
100
AcDbSpline
210
0.0
220
0.0
230
1.0
 70
     8
 71
     3
 72
   161
 73
   157
 74
     0
 42
0.0000000001
 43
0.0000000001
 40
0.0
 40
0.0
 40
0.0
 40
0.0
 40
1.0
 40
1.0
 40
1.0
 40
2.0
 40
2.0
 40
2.0
 40
3.0
 40
3.0
 40
3.0
 40
4.0
 40
4.0
 40
4.0
 40
5.0
 40
5.0
 40
5.0
 40
6.0
 40
6.0
 40
6.0
 40
7.0
 40
7.0
 40
7.0
 40
8.0
 40
8.0
 40
8.0
 40
9.0
 40
9.0
 40
9.0
 40
10.0
 40
10.0
 40
10.0
 40
11.0
 40
11.0
 40
11.0
 40
12.0
 40
12.0
 40
12.0
 40
13.0
 40
13.0
 40
13.0
 40
14.0
 40
14.0
 40
14.0
 40
15.0
 40
15.0
 40
15.0
 40
16.0
 40
16.0
 40
16.0
 40
17.0
 40
17.0
 40
17.0
 40
18.0
 40
18.0
 40
18.0
 40
19.0
 40
19.0
 40
19.0
 40
20.0
 40
20.0
 40
20.0
 40
21.0
 40
21.0
 40
21.0
 40
22.0
 40
22.0
 40
22.0
 40
23.0
 40
23.0
 40
23.0
 40
24.0
 40
24.0
 40
24.0
 40
25.0
 40
25.0
 40
25.0
 40
26.0
 40
26.0
 40
26.0
 40
27.0
 40
27.0
 40
27.0
 40
28.0
 40
28.0
 40
28.0
 40
29.0
 40
29.0
 40
29.0
 40
30.0
 40
30.0
 40
30.0
 40
31.0
 40
31.0
 40
31.0
 40
32.0
 40
32.0
 40
32.0
 40
33.0
 40
33.0
 40
33.0
 40
34.0
 40
34.0
 40
34.0
 40
35.0
 40
35.0
 40
35.0
 40
36.0
 40
36.0
 40
36.0
 40
37.0
 40
37.0
 40
37.0
 40
38.0
 40
38.0
 40
38.0
 40
39.0
 40
39.0
 40
39.0
 40
40.0
 40
40.0
 40
40.0
 40
41.0
 40
41.0
 40
41.0
 40
42.0
 40
42.0
 40
42.0
 40
43.0
 40
43.0
 40
43.0
 40
44.0
 40
44.0
 40
44.0
 40
45.0
 40
45.0
 40
45.0
 40
46.0
 40
46.0
 40
46.0
 40
47.0
 40
47.0
 40
47.0
 40
48.0
 40
48.0
 40
48.0
 40
49.0
 40
49.0
 40
49.0
 40
50.0
 40
50.0
 40
50.0
 40
51.0
 40
51.0
 40
51.0
 40
52.0
 40
52.0
 40
52.0
 40
52.0
 10
746.3957843186095
 20
-766.9350990921205
 30
0.0
 10
746.3957843186095
 20
-766.9350990921205
 30
0.0
 10
746.3957843186095
 20
-734.4652463984149
 30
0.0
 10
746.3957843186095
 20
-734.4652463984149
 30
0.0
 10
746.3957843186095
 20
-734.4652463984149
 30
0.0
 10
760.647455321991
 20
-734.4652463984149
 30
0.0
 10
760.647455321991
 20
-734.4652463984149
 30
0.0
 10
760.647455321991
 20
-734.4652463984149
 30
0.0
 10
760.647455321991
 20
-719.5612465649014
 30
0.0
 10
760.647455321991
 20
-719.5612465649014
 30
0.0
 10
760.647455321991
 20
-719.5612465649014
 30
0.0
 10
746.3957843186095
 20
-719.5612465649014
 30
0.0
 10
746.3957843186095
 20
-719.5612465649014
 30
0.0
 10
746.3957843186095
 20
-719.5612465649014
 30
0.0
 10
746.3957843186095
 20
-701.4352211788079
 30
0.0
 10
746.3957843186095
 20
-701.4352211788079
 30
0.0
 10
746.3957843186095
 20
-701.4352211788079
 30
0.0
 10
746.3740802170523
 20
-693.1268566518052
 30
0.0
 10
738.8958114472206
 20
-693.1268566518052
 30
0.0
 10
731.4175426773887
 20
-693.1268566518052
 30
0.0
 10
731.3958385758316
 20
-701.2774358055834
 30
0.0
 10
731.3958385758316
 20
-701.2774358055834
 30
0.0
 10
731.3958385758316
 20
-701.2774358055834
 30
0.0
 10
731.3958385758316
 20
-719.5612465649014
 30
0.0
 10
731.3958385758316
 20
-719.5612465649014
 30
0.0
 10
731.3958385758316
 20
-719.5612465649014
 30
0.0
 10
710.5836722398889
 20
-719.5612465649014
 30
0.0
 10
710.5836722398889
 20
-719.5612465649014
 30
0.0
 10
710.5836722398889
 20
-719.5612465649014
 30
0.0
 10
710.5836722398889
 20
-701.4352211788079
 30
0.0
 10
710.5836722398889
 20
-701.4352211788079
 30
0.0
 10
710.5836722398889
 20
-701.4352211788079
 30
0.0
 10
710.5619681383317
 20
-693.1268566518052
 30
0.0
 10
703.0836993685
 20
-693.1268566518052
 30
0.0
 10
695.6054305986681
 20
-693.1268566518052
 30
0.0
 10
695.583726497111
 20
-701.2774358055834
 30
0.0
 10
695.583726497111
 20
-701.2774358055834
 30
0.0
 10
695.583726497111
 20
-701.2774358055834
 30
0.0
 10
695.583726497111
 20
-719.5612465649014
 30
0.0
 10
695.583726497111
 20
-719.5612465649014
 30
0.0
 10
695.583726497111
 20
-719.5612465649014
 30
0.0
 10
674.7715601611683
 20
-719.5612465649014
 30
0.0
 10
674.7715601611683
 20
-719.5612465649014
 30
0.0
 10
674.7715601611683
 20
-719.5612465649014
 30
0.0
 10
674.7715601611683
 20
-701.4352211788079
 30
0.0
 10
674.7715601611683
 20
-701.4352211788079
 30
0.0
 10
674.7715601611683
 20
-701.4352211788079
 30
0.0
 10
674.7498560596111
 20
-693.1268566518052
 30
0.0
 10
667.2715872897794
 20
-693.1268566518052
 30
0.0
 10
659.7933185199475
 20
-693.1268566518052
 30
0.0
 10
659.7716144183904
 20
-701.2774358055834
 30
0.0
 10
659.7716144183904
 20
-701.2774358055834
 30
0.0
 10
659.7716144183904
 20
-701.2774358055834
 30
0.0
 10
659.7716144183904
 20
-719.5612465649014
 30
0.0
 10
659.7716144183904
 20
-719.5612465649014
 30
0.0
 10
659.7716144183904
 20
-719.5612465649014
 30
0.0
 10
638.9594480824477
 20
-719.5612465649014
 30
0.0
 10
638.9594480824477
 20
-719.5612465649014
 30
0.0
 10
638.9594480824477
 20
-719.5612465649014
 30
0.0
 10
638.9594480824477
 20
-701.4352211788079
 30
0.0
 10
638.9594480824477
 20
-701.4352211788079
 30
0.0
 10
638.9594480824477
 20
-701.4352211788079
 30
0.0
 10
638.9377439808906
 20
-693.1268566518052
 30
0.0
 10
631.4594752110588
 20
-693.1268566518052
 30
0.0
 10
623.981206441227
 20
-693.1268566518052
 30
0.0
 10
623.9595023396698
 20
-701.2774358055834
 30
0.0
 10
623.9595023396698
 20
-701.2774358055834
 30
0.0
 10
623.9595023396698
 20
-701.2774358055834
 30
0.0
 10
623.9595023396698
 20
-719.5612465649014
 30
0.0
 10
623.9595023396698
 20
-719.5612465649014
 30
0.0
 10
623.9595023396698
 20
-719.5612465649014
 30
0.0
 10
603.1473360037271
 20
-719.5612465649014
 30
0.0
 10
603.1473360037271
 20
-719.5612465649014
 30
0.0
 10
603.1473360037271
 20
-719.5612465649014
 30
0.0
 10
603.1473360037271
 20
-701.4352211788079
 30
0.0
 10
603.1473360037271
 20
-701.4352211788079
 30
0.0
 10
603.1473360037271
 20
-701.4352211788079
 30
0.0
 10
603.12563190217
 20
-693.1268566518052
 30
0.0
 10
595.6473631323382
 20
-693.1268566518052
 30
0.0
 10
588.1690943625064
 20
-693.1268566518052
 30
0.0
 10
588.1473902609492
 20
-701.2774358055834
 30
0.0
 10
588.1473902609492
 20
-701.2774358055834
 30
0.0
 10
588.1473902609492
 20
-701.2774358055834
 30
0.0
 10
588.1473902609492
 20
-719.5612465649014
 30
0.0
 10
588.1473902609492
 20
-719.5612465649014
 30
0.0
 10
588.1473902609492
 20
-719.5612465649014
 30
0.0
 10
567.3352239250065
 20
-719.5612465649014
 30
0.0
 10
567.3352239250065
 20
-719.5612465649014
 30
0.0
 10
567.3352239250065
 20
-719.5612465649014
 30
0.0
 10
567.3352239250065
 20
-701.4352211788079
 30
0.0
 10
567.3352239250065
 20
-701.4352211788079
 30
0.0
 10
567.3352239250065
 20
-701.4352211788079
 30
0.0
 10
567.3135198234494
 20
-693.1268566518052
 30
0.0
 10
559.8352510536176
 20
-693.1268566518052
 30
0.0
 10
552.3569822837858
 20
-693.1268566518052
 30
0.0
 10
552.3352781822288
 20
-701.2774358055834
 30
0.0
 10
552.3352781822288
 20
-701.2774358055834
 30
0.0
 10
552.3352781822288
 20
-701.2774358055834
 30
0.0
 10
552.3352781822288
 20
-719.5612465649014
 30
0.0
 10
552.3352781822288
 20
-719.5612465649014
 30
0.0
 10
552.3352781822288
 20
-719.5612465649014
 30
0.0
 10
531.5231118462859
 20
-719.5612465649014
 30
0.0
 10
531.5231118462859
 20
-719.5612465649014
 30
0.0
 10
531.5231118462859
 20
-719.5612465649014
 30
0.0
 10
531.5231118462859
 20
-701.4352211788079
 30
0.0
 10
531.5231118462859
 20
-701.4352211788079
 30
0.0
 10
531.5231118462859
 20
-701.4352211788079
 30
0.0
 10
531.5014077447288
 20
-693.1268566518052
 30
0.0
 10
524.023138974897
 20
-693.1268566518052
 30
0.0
 10
516.5448702050652
 20
-693.1268566518052
 30
0.0
 10
516.5231661035082
 20
-701.2774358055834
 30
0.0
 10
516.5231661035082
 20
-701.2774358055834
 30
0.0
 10
516.5231661035082
 20
-701.2774358055834
 30
0.0
 10
516.5231661035082
 20
-719.5612465649014
 30
0.0
 10
516.5231661035082
 20
-719.5612465649014
 30
0.0
 10
516.5231661035082
 20
-719.5612465649014
 30
0.0
 10
495.7109997675653
 20
-719.5612465649014
 30
0.0
 10
495.7109997675653
 20
-719.5612465649014
 30
0.0
 10
495.7109997675653
 20
-719.5612465649014
 30
0.0
 10
495.7109997675653
 20
-701.4352211788079
 30
0.0
 10
495.7109997675653
 20
-701.4352211788079
 30
0.0
 10
495.7109997675653
 20
-701.4352211788079
 30
0.0
 10
495.6892956660083
 20
-693.1268566518052
 30
0.0
 10
488.2110268961764
 20
-693.1268566518052
 30
0.0
 10
480.7327581263446
 20
-693.1268566518052
 30
0.0
 10
480.7110540247875
 20
-701.2774358055834
 30
0.0
 10
480.7110540247875
 20
-701.2774358055834
 30
0.0
 10
480.7110540247875
 20
-701.2774358055834
 30
0.0
 10
480.7110540247875
 20
-719.5612465649014
 30
0.0
 10
480.7110540247875
 20
-719.5612465649014
 30
0.0
 10
480.7110540247875
 20
-719.5612465649014
 30
0.0
 10
459.8988876888448
 20
-719.5612465649014
 30
0.0
 10
459.8988876888448
 20
-719.5612465649014
 30
0.0
 10
459.8988876888448
 20
-719.5612465649014
 30
0.0
 10
459.8988876888448
 20
-701.4352211788079
 30
0.0
 10
459.8988876888448
 20
-701.4352211788079
 30
0.0
 10
459.8988876888448
 20
-701.4352211788079
 30
0.0
 10
459.8771835872877
 20
-693.1268566518052
 30
0.0
 10
452.3989148174559
 20
-693.1268566518052
 30
0.0
 10
444.920646047624
 20
-693.1268566518052
 30
0.0
 10
444.8989419460669
 20
-701.2774358055834
 30
0.0
 10
444.8989419460669
 20
-701.2774358055834
 30
0.0
 10
444.8989419460669
 20
-701.2774358055834
 30
0.0
 10
444.8989419460669
 20
-719.5612465649014
 30
0.0
 10
444.8989419460669
 20
-719.5612465649014
 30
0.0
 10
444.8989419460669
 20
-719.5612465649014
 30
0.0
 10
430.6476154522339
 20
-719.5612465649014
 30
0.0
 10
430.6476154522339
 20
-719.5612465649014
 30
0.0
 10
430.6476154522339
 20
-719.5612465649014
 30
0.0
 10
430.6476154522339
 20
-734.4652463984149
 30
0.0
 10
430.6476154522339
 20
-734.4652463984149
 30
0.0
 10
430.6476154522339
 20
-734.4652463984149
 30
0.0
 10
444.8989419460669
 20
-734.4652463984149
 30
0.0
 10
444.8989419460669
 20
-734.4652463984149
 30
0.0
 10
444.8989419460669
 20
-734.4652463984149
 30
0.0
 10
444.8989419460669
 20
-766.9350990921205
 30
0.0
 10
444.8989419460669
 20
-766.9350990921205
 30
0.0
  0
POLYLINE
  5
4A
330
1F
100
AcDbEntity
  8
LAYER_1
 62
   250
100
AcDb2dPolyline
 66
     1
 10
0.0
 20
0.0
 30
0.0
  0
VERTEX
  5
4B
330
4A
100
AcDbEntity
  8
LAYER_1
 62
   250
100
AcDbVertex
100
AcDb2dVertex
 10
710.5836722398889
 20
-766.9350990921205
 30
0.0
  0
VERTEX
  5
4C
330
4A
100
AcDbEntity
  8
LAYER_1
 62
   250
100
AcDbVertex
100
AcDb2dVertex
 10
710.5836722398889
 20
-734.4652463984149
 30
0.0
  0
VERTEX
  5
4D
330
4A
100
AcDbEntity
  8
LAYER_1
 62
   250
100
AcDbVertex
100
AcDb2dVertex
 10
731.3958385758316
 20
-734.4652463984149
 30
0.0
  0
VERTEX
  5
4E
330
4A
100
AcDbEntity
  8
LAYER_1
 62
   250
100
AcDbVertex
100
AcDb2dVertex
 10
731.3958385758316
 20
-766.9350990921205
 30
0.0
  0
SEQEND
  5
4F
330
4A
100
AcDbEntity
  8
LAYER_1
  0
POLYLINE
  5
50
330
1F
100
AcDbEntity
  8
LAYER_1
 62
   250
100
AcDb2dPolyline
 66
     1
 10
0.0
 20
0.0
 30
0.0
  0
VERTEX
  5
51
330
50
100
AcDbEntity
  8
LAYER_1
 62
   250
100
AcDbVertex
100
AcDb2dVertex
 10
674.7715601611683
 20
-766.9350990921205
 30
0.0
  0
VERTEX
  5
52
330
50
100
AcDbEntity
  8
LAYER_1
 62
   250
100
AcDbVertex
100
AcDb2dVertex
 10
674.7715601611683
 20
-734.4652463984149
 30
0.0
  0
VERTEX
  5
53
330
50
100
AcDbEntity
  8
LAYER_1
 62
   250
100
AcDbVertex
100
AcDb2dVertex
 10
695.583726497111
 20
-734.4652463984149
 30
0.0
  0
VERTEX
  5
54
330
50
100
AcDbEntity
  8
LAYER_1
 62
   250
100
AcDbVertex
100
AcDb2dVertex
 10
695.583726497111
 20
-766.9350990921205
 30
0.0
  0
SEQEND
  5
55
330
50
100
AcDbEntity
  8
LAYER_1
  0
POLYLINE
  5
56
330
1F
100
AcDbEntity
  8
LAYER_1
 62
   250
100
AcDb2dPolyline
 66
     1
 10
0.0
 20
0.0
 30
0.0
  0
VERTEX
  5
57
330
56
100
AcDbEntity
  8
LAYER_1
 62
   250
100
AcDbVertex
100
AcDb2dVertex
 10
638.9594480824477
 20
-766.9350990921205
 30
0.0
  0
VERTEX
  5
58
330
56
100
AcDbEntity
  8
LAYER_1
 62
   250
100
AcDbVertex
100
AcDb2dVertex
 10
638.9594480824477
 20
-734.4652463984149
 30
0.0
  0
VERTEX
  5
59
330
56
100
AcDbEntity
  8
LAYER_1
 62
   250
100
AcDbVertex
100
AcDb2dVertex
 10
659.7716144183904
 20
-734.4652463984149
 30
0.0
  0
VERTEX
  5
5A
330
56
100
AcDbEntity
  8
LAYER_1
 62
   250
100
AcDbVertex
100
AcDb2dVertex
 10
659.7716144183904
 20
-766.9350990921205
 30
0.0
  0
SEQEND
  5
5B
330
56
100
AcDbEntity
  8
LAYER_1
  0
POLYLINE
  5
5C
330
1F
100
AcDbEntity
  8
LAYER_1
 62
   250
100
AcDb2dPolyline
 66
     1
 10
0.0
 20
0.0
 30
0.0
  0
VERTEX
  5
5D
330
5C
100
AcDbEntity
  8
LAYER_1
 62
   250
100
AcDbVertex
100
AcDb2dVertex
 10
603.1473360037271
 20
-766.9350990921205
 30
0.0
  0
VERTEX
  5
5E
330
5C
100
AcDbEntity
  8
LAYER_1
 62
   250
100
AcDbVertex
100
AcDb2dVertex
 10
603.1473360037271
 20
-734.4652463984149
 30
0.0
  0
VERTEX
  5
5F
330
5C
100
AcDbEntity
  8
LAYER_1
 62
   250
100
AcDbVertex
100
AcDb2dVertex
 10
623.9595023396698
 20
-734.4652463984149
 30
0.0
  0
VERTEX
  5
60
330
5C
100
AcDbEntity
  8
LAYER_1
 62
   250
100
AcDbVertex
100
AcDb2dVertex
 10
623.9595023396698
 20
-766.9350990921205
 30
0.0
  0
SEQEND
  5
61
330
5C
100
AcDbEntity
  8
LAYER_1
  0
POLYLINE
  5
62
330
1F
100
AcDbEntity
  8
LAYER_1
 62
   250
100
AcDb2dPolyline
 66
     1
 10
0.0
 20
0.0
 30
0.0
  0
VERTEX
  5
63
330
62
100
AcDbEntity
  8
LAYER_1
 62
   250
100
AcDbVertex
100
AcDb2dVertex
 10
567.3352239250065
 20
-766.9350990921205
 30
0.0
  0
VERTEX
  5
64
330
62
100
AcDbEntity
  8
LAYER_1
 62
   250
100
AcDbVertex
100
AcDb2dVertex
 10
567.3352239250065
 20
-734.4652463984149
 30
0.0
  0
VERTEX
  5
65
330
62
100
AcDbEntity
  8
LAYER_1
 62
   250
100
AcDbVertex
100
AcDb2dVertex
 10
588.1473902609492
 20
-734.4652463984149
 30
0.0
  0
VERTEX
  5
66
330
62
100
AcDbEntity
  8
LAYER_1
 62
   250
100
AcDbVertex
100
AcDb2dVertex
 10
588.1473902609492
 20
-766.9350990921205
 30
0.0
  0
SEQEND
  5
67
330
62
100
AcDbEntity
  8
LAYER_1
  0
POLYLINE
  5
68
330
1F
100
AcDbEntity
  8
LAYER_1
 62
   250
100
AcDb2dPolyline
 66
     1
 10
0.0
 20
0.0
 30
0.0
  0
VERTEX
  5
69
330
68
100
AcDbEntity
  8
LAYER_1
 62
   250
100
AcDbVertex
100
AcDb2dVertex
 10
531.5231118462859
 20
-766.9350990921205
 30
0.0
  0
VERTEX
  5
6A
330
68
100
AcDbEntity
  8
LAYER_1
 62
   250
100
AcDbVertex
100
AcDb2dVertex
 10
531.5231118462859
 20
-734.4652463984149
 30
0.0
  0
VERTEX
  5
6B
330
68
100
AcDbEntity
  8
LAYER_1
 62
   250
100
AcDbVertex
100
AcDb2dVertex
 10
552.3352781822288
 20
-734.4652463984149
 30
0.0
  0
VERTEX
  5
6C
330
68
100
AcDbEntity
  8
LAYER_1
 62
   250
100
AcDbVertex
100
AcDb2dVertex
 10
552.3352781822288
 20
-766.9350990921205
 30
0.0
  0
SEQEND
  5
6D
330
68
100
AcDbEntity
  8
LAYER_1
  0
POLYLINE
  5
6E
330
1F
100
AcDbEntity
  8
LAYER_1
 62
   250
100
AcDb2dPolyline
 66
     1
 10
0.0
 20
0.0
 30
0.0
  0
VERTEX
  5
6F
330
6E
100
AcDbEntity
  8
LAYER_1
 62
   250
100
AcDbVertex
100
AcDb2dVertex
 10
495.7109997675653
 20
-766.9350990921205
 30
0.0
  0
VERTEX
  5
70
330
6E
100
AcDbEntity
  8
LAYER_1
 62
   250
100
AcDbVertex
100
AcDb2dVertex
 10
495.7109997675653
 20
-734.4652463984149
 30
0.0
  0
VERTEX
  5
71
330
6E
100
AcDbEntity
  8
LAYER_1
 62
   250
100
AcDbVertex
100
AcDb2dVertex
 10
516.5231661035082
 20
-734.4652463984149
 30
0.0
  0
VERTEX
  5
72
330
6E
100
AcDbEntity
  8
LAYER_1
 62
   250
100
AcDbVertex
100
AcDb2dVertex
 10
516.5231661035082
 20
-766.9350990921205
 30
0.0
  0
SEQEND
  5
73
330
6E
100
AcDbEntity
  8
LAYER_1
  0
POLYLINE
  5
74
330
1F
100
AcDbEntity
  8
LAYER_1
 62
   250
100
AcDb2dPolyline
 66
     1
 10
0.0
 20
0.0
 30
0.0
  0
VERTEX
  5
75
330
74
100
AcDbEntity
  8
LAYER_1
 62
   250
100
AcDbVertex
100
AcDb2dVertex
 10
459.8988876888448
 20
-766.9350990921205
 30
0.0
  0
VERTEX
  5
76
330
74
100
AcDbEntity
  8
LAYER_1
 62
   250
100
AcDbVertex
100
AcDb2dVertex
 10
459.8988876888448
 20
-734.4652463984149
 30
0.0
  0
VERTEX
  5
77
330
74
100
AcDbEntity
  8
LAYER_1
 62
   250
100
AcDbVertex
100
AcDb2dVertex
 10
480.7110540247875
 20
-734.4652463984149
 30
0.0
  0
VERTEX
  5
78
330
74
100
AcDbEntity
  8
LAYER_1
 62
   250
100
AcDbVertex
100
AcDb2dVertex
 10
480.7110540247875
 20
-766.9350990921205
 30
0.0
  0
SEQEND
  5
79
330
74
100
AcDbEntity
  8
LAYER_1
  0
POLYLINE
  5
7A
330
1F
100
AcDbEntity
  8
LAYER_1
 62
   250
100
AcDb2dPolyline
 66
     1
 10
0.0
 20
0.0
 30
0.0
  0
VERTEX
  5
7B
330
7A
100
AcDbEntity
  8
LAYER_1
 62
   250
100
AcDbVertex
100
AcDb2dVertex
 10
459.9014715104587
 20
-780.0061358727069
 30
0.0
  0
VERTEX
  5
7C
330
7A
100
AcDbEntity
  8
LAYER_1
 62
   250
100
AcDbVertex
100
AcDb2dVertex
 10
444.9015257676809
 20
-780.0061358727069
 30
0.0
  0
VERTEX
  5
7D
330
7A
100
AcDbEntity
  8
LAYER_1
 62
   250
100
AcDbVertex
100
AcDb2dVertex
 10
444.9015257676809
 20
-776.0063800143317
 30
0.0
  0
VERTEX
  5
7E
330
7A
100
AcDbEntity
  8
LAYER_1
 62
   250
100
AcDbVertex
100
AcDb2dVertex
 10
459.9014715104587
 20
-776.0063800143317
 30
0.0
  0
VERTEX
  5
7F
330
7A
100
AcDbEntity
  8
LAYER_1
 62
   250
100
AcDbVertex
100
AcDb2dVertex
 10
459.9014715104587
 20
-780.0061358727069
 30
0.0
  0
SEQEND
  5
80
330
7A
100
AcDbEntity
  8
LAYER_1
  0
POLYLINE
  5
81
330
1F
100
AcDbEntity
  8
LAYER_1
 62
   250
100
AcDb2dPolyline
 66
     1
 10
0.0
 20
0.0
 30
0.0
  0
VERTEX
  5
82
330
81
100
AcDbEntity
  8
LAYER_1
 62
   250
100
AcDbVertex
100
AcDb2dVertex
 10
495.7037650670463
 20
-780.0061358727069
 30
0.0
  0
VERTEX
  5
83
330
81
100
AcDbEntity
  8
LAYER_1
 62
   250
100
AcDbVertex
100
AcDb2dVertex
 10
480.7038193242685
 20
-780.0061358727069
 30
0.0
  0
VERTEX
  5
84
330
81
100
AcDbEntity
  8
LAYER_1
 62
   250
100
AcDbVertex
100
AcDb2dVertex
 10
480.7038193242685
 20
-776.0063800143317
 30
0.0
  0
VERTEX
  5
85
330
81
100
AcDbEntity
  8
LAYER_1
 62
   250
100
AcDbVertex
100
AcDb2dVertex
 10
495.7037650670463
 20
-776.0063800143317
 30
0.0
  0
VERTEX
  5
86
330
81
100
AcDbEntity
  8
LAYER_1
 62
   250
100
AcDbVertex
100
AcDb2dVertex
 10
495.7037650670463
 20
-780.0061358727069
 30
0.0
  0
SEQEND
  5
87
330
81
100
AcDbEntity
  8
LAYER_1
  0
POLYLINE
  5
88
330
1F
100
AcDbEntity
  8
LAYER_1
 62
   250
100
AcDb2dPolyline
 66
     1
 10
0.0
 20
0.0
 30
0.0
  0
VERTEX
  5
89
330
88
100
AcDbEntity
  8
LAYER_1
 62
   250
100
AcDbVertex
100
AcDb2dVertex
 10
531.506058623634
 20
-780.0061358727069
 30
0.0
  0
VERTEX
  5
8A
330
88
100
AcDbEntity
  8
LAYER_1
 62
   250
100
AcDbVertex
100
AcDb2dVertex
 10
516.5061128808561
 20
-780.0061358727069
 30
0.0
  0
VERTEX
  5
8B
330
88
100
AcDbEntity
  8
LAYER_1
 62
   250
100
AcDbVertex
100
AcDb2dVertex
 10
516.5061128808561
 20
-776.0063800143317
 30
0.0
  0
VERTEX
  5
8C
330
88
100
AcDbEntity
  8
LAYER_1
 62
   250
100
AcDbVertex
100
AcDb2dVertex
 10
531.506058623634
 20
-776.0063800143317
 30
0.0
  0
VERTEX
  5
8D
330
88
100
AcDbEntity
  8
LAYER_1
 62
   250
100
AcDbVertex
100
AcDb2dVertex
 10
531.506058623634
 20
-780.0061358727069
 30
0.0
  0
SEQEND
  5
8E
330
88
100
AcDbEntity
  8
LAYER_1
  0
POLYLINE
  5
8F
330
1F
100
AcDbEntity
  8
LAYER_1
 62
   250
100
AcDb2dPolyline
 66
     1
 10
0.0
 20
0.0
 30
0.0
  0
VERTEX
  5
90
330
8F
100
AcDbEntity
  8
LAYER_1
 62
   250
100
AcDbVertex
100
AcDb2dVertex
 10
567.3083521802215
 20
-780.0061358727069
 30
0.0
  0
VERTEX
  5
91
330
8F
100
AcDbEntity
  8
LAYER_1
 62
   250
100
AcDbVertex
100
AcDb2dVertex
 10
552.3084064374438
 20
-780.0061358727069
 30
0.0
  0
VERTEX
  5
92
330
8F
100
AcDbEntity
  8
LAYER_1
 62
   250
100
AcDbVertex
100
AcDb2dVertex
 10
552.3084064374438
 20
-776.0063800143317
 30
0.0
  0
VERTEX
  5
93
330
8F
100
AcDbEntity
  8
LAYER_1
 62
   250
100
AcDbVertex
100
AcDb2dVertex
 10
567.3083521802215
 20
-776.0063800143317
 30
0.0
  0
VERTEX
  5
94
330
8F
100
AcDbEntity
  8
LAYER_1
 62
   250
100
AcDbVertex
100
AcDb2dVertex
 10
567.3083521802215
 20
-780.0061358727069
 30
0.0
  0
SEQEND
  5
95
330
8F
100
AcDbEntity
  8
LAYER_1
  0
POLYLINE
  5
96
330
1F
100
AcDbEntity
  8
LAYER_1
 62
   250
100
AcDb2dPolyline
 66
     1
 10
0.0
 20
0.0
 30
0.0
  0
VERTEX
  5
97
330
96
100
AcDbEntity
  8
LAYER_1
 62
   250
100
AcDbVertex
100
AcDb2dVertex
 10
603.1106457368091
 20
-780.0061358727069
 30
0.0
  0
VERTEX
  5
98
330
96
100
AcDbEntity
  8
LAYER_1
 62
   250
100
AcDbVertex
100
AcDb2dVertex
 10
588.1106999940314
 20
-780.0061358727069
 30
0.0
  0
VERTEX
  5
99
330
96
100
AcDbEntity
  8
LAYER_1
 62
   250
100
AcDbVertex
100
AcDb2dVertex
 10
588.1106999940314
 20
-776.0063800143317
 30
0.0
  0
VERTEX
  5
9A
330
96
100
AcDbEntity
  8
LAYER_1
 62
   250
100
AcDbVertex
100
AcDb2dVertex
 10
603.1106457368091
 20
-776.0063800143317
 30
0.0
  0
VERTEX
  5
9B
330
96
100
AcDbEntity
  8
LAYER_1
 62
   250
100
AcDbVertex
100
AcDb2dVertex
 10
603.1106457368091
 20
-780.0061358727069
 30
0.0
  0
SEQEND
  5
9C
330
96
100
AcDbEntity
  8
LAYER_1
  0
POLYLINE
  5
9D
330
1F
100
AcDbEntity
  8
LAYER_1
 62
   250
100
AcDb2dPolyline
 66
     1
 10
0.0
 20
0.0
 30
0.0
  0
VERTEX
  5
9E
330
9D
100
AcDbEntity
  8
LAYER_1
 62
   250
100
AcDbVertex
100
AcDb2dVertex
 10
638.9129392933968
 20
-780.0061358727069
 30
0.0
  0
VERTEX
  5
9F
330
9D
100
AcDbEntity
  8
LAYER_1
 62
   250
100
AcDbVertex
100
AcDb2dVertex
 10
623.912993550619
 20
-780.0061358727069
 30
0.0
  0
VERTEX
  5
A0
330
9D
100
AcDbEntity
  8
LAYER_1
 62
   250
100
AcDbVertex
100
AcDb2dVertex
 10
623.912993550619
 20
-776.0063800143317
 30
0.0
  0
VERTEX
  5
A1
330
9D
100
AcDbEntity
  8
LAYER_1
 62
   250
100
AcDbVertex
100
AcDb2dVertex
 10
638.9129392933968
 20
-776.0063800143317
 30
0.0
  0
VERTEX
  5
A2
330
9D
100
AcDbEntity
  8
LAYER_1
 62
   250
100
AcDbVertex
100
AcDb2dVertex
 10
638.9129392933968
 20
-780.0061358727069
 30
0.0
  0
SEQEND
  5
A3
330
9D
100
AcDbEntity
  8
LAYER_1
  0
POLYLINE
  5
A4
330
1F
100
AcDbEntity
  8
LAYER_1
 62
   250
100
AcDb2dPolyline
 66
     1
 10
0.0
 20
0.0
 30
0.0
  0
VERTEX
  5
A5
330
A4
100
AcDbEntity
  8
LAYER_1
 62
   250
100
AcDbVertex
100
AcDb2dVertex
 10
674.7152328499844
 20
-780.0061358727069
 30
0.0
  0
VERTEX
  5
A6
330
A4
100
AcDbEntity
  8
LAYER_1
 62
   250
100
AcDbVertex
100
AcDb2dVertex
 10
659.7152871072067
 20
-780.0061358727069
 30
0.0
  0
VERTEX
  5
A7
330
A4
100
AcDbEntity
  8
LAYER_1
 62
   250
100
AcDbVertex
100
AcDb2dVertex
 10
659.7152871072067
 20
-776.0063800143317
 30
0.0
  0
VERTEX
  5
A8
330
A4
100
AcDbEntity
  8
LAYER_1
 62
   250
100
AcDbVertex
100
AcDb2dVertex
 10
674.7152328499844
 20
-776.0063800143317
 30
0.0
  0
VERTEX
  5
A9
330
A4
100
AcDbEntity
  8
LAYER_1
 62
   250
100
AcDbVertex
100
AcDb2dVertex
 10
674.7152328499844
 20
-780.0061358727069
 30
0.0
  0
SEQEND
  5
AA
330
A4
100
AcDbEntity
  8
LAYER_1
  0
POLYLINE
  5
AB
330
1F
100
AcDbEntity
  8
LAYER_1
 62
   250
100
AcDb2dPolyline
 66
     1
 10
0.0
 20
0.0
 30
0.0
  0
VERTEX
  5
AC
330
AB
100
AcDbEntity
  8
LAYER_1
 62
   250
100
AcDbVertex
100
AcDb2dVertex
 10
710.5175264065721
 20
-780.0061358727069
 30
0.0
  0
VERTEX
  5
AD
330
AB
100
AcDbEntity
  8
LAYER_1
 62
   250
100
AcDbVertex
100
AcDb2dVertex
 10
695.5175806637942
 20
-780.0061358727069
 30
0.0
  0
VERTEX
  5
AE
330
AB
100
AcDbEntity
  8
LAYER_1
 62
   250
100
AcDbVertex
100
AcDb2dVertex
 10
695.5175806637942
 20
-776.0063800143317
 30
0.0
  0
VERTEX
  5
AF
330
AB
100
AcDbEntity
  8
LAYER_1
 62
   250
100
AcDbVertex
100
AcDb2dVertex
 10
710.5175264065721
 20
-776.0063800143317
 30
0.0
  0
VERTEX
  5
B0
330
AB
100
AcDbEntity
  8
LAYER_1
 62
   250
100
AcDbVertex
100
AcDb2dVertex
 10
710.5175264065721
 20
-780.0061358727069
 30
0.0
  0
SEQEND
  5
B1
330
AB
100
AcDbEntity
  8
LAYER_1
  0
POLYLINE
  5
B2
330
1F
100
AcDbEntity
  8
LAYER_1
 62
   250
100
AcDb2dPolyline
 66
     1
 10
0.0
 20
0.0
 30
0.0
  0
VERTEX
  5
B3
330
B2
100
AcDbEntity
  8
LAYER_1
 62
   250
100
AcDbVertex
100
AcDb2dVertex
 10
746.3199922179339
 20
-780.0061358727069
 30
0.0
  0
VERTEX
  5
B4
330
B2
100
AcDbEntity
  8
LAYER_1
 62
   250
100
AcDbVertex
100
AcDb2dVertex
 10
731.3200464751561
 20
-780.0061358727069
 30
0.0
  0
VERTEX
  5
B5
330
B2
100
AcDbEntity
  8
LAYER_1
 62
   250
100
AcDbVertex
100
AcDb2dVertex
 10
731.3200464751561
 20
-776.0063800143317
 30
0.0
  0
VERTEX
  5
B6
330
B2
100
AcDbEntity
  8
LAYER_1
 62
   250
100
AcDbVertex
100
AcDb2dVertex
 10
746.3199922179339
 20
-776.0063800143317
 30
0.0
  0
VERTEX
  5
B7
330
B2
100
AcDbEntity
  8
LAYER_1
 62
   250
100
AcDbVertex
100
AcDb2dVertex
 10
746.3199922179339
 20
-780.0061358727069
 30
0.0
  0
SEQEND
  5
B8
330
B2
100
AcDbEntity
  8
LAYER_1
  0
ENDSEC
  0
SECTION
  2
OBJECTS
  0
DICTIONARY
  5
C
330
0
100
AcDbDictionary
  3
ACAD_GROUP
350
D
  3
ACAD_LAYOUT
350
1A
  3
ACAD_MLINESTYLE
350
17
  3
ACAD_PLOTSETTINGS
350
19
  3
ACAD_TABLESTYLE
350
D9
  3
ACAD_VISUALSTYLE
350
2A
  3
ACDBHEADERROUNDTRIPXREC
350
B9
  0
DICTIONARY
  5
D
102
{ACAD_REACTORS
330
C
102
}
330
C
100
AcDbDictionary
  0
DICTIONARY
  5
1A
102
{ACAD_REACTORS
330
C
102
}
330
C
100
AcDbDictionary
  0
DICTIONARY
  5
17
102
{ACAD_REACTORS
330
C
102
}
330
C
100
AcDbDictionary
  3
STANDARD
350
18
  0
DICTIONARY
  5
19
102
{ACAD_REACTORS
330
C
102
}
330
C
100
AcDbDictionary
  0
DICTIONARY
  5
D9
102
{ACAD_REACTORS
330
C
102
}
330
C
100
AcDbDictionary
  0
DICTIONARY
  5
2A
102
{ACAD_REACTORS
330
C
102
}
330
C
100
AcDbDictionary
  3
2DWIREFRAME
350
2F
  3
3DWIREFRAME
350
30
  3
3D_HIDDEN
350
31
  3
BASIC
350
32
  3
BRIGHTEN
350
36
  3
COLORCHANGE
350
3A
  3
CONCEPTUAL
350
34
  3
DIM
350
35
  3
FACEPATTERN
350
39
  3
FLAT
350
2B
  3
FLATWITHEDGES
350
2C
  3
GOURAUD
350
2D
  3
GOURAUDWITHEDGES
350
2E
  3
LINEPATTERN
350
38
  3
REALISTIC
350
33
  3
THICKEN
350
37
  0
DICTIONARY
  5
B9
102
{ACAD_REACTORS
330
C
102
}
330
C
100
AcDbDictionary
  3
CEPSNTYPE
350
C2
  3
DIMSTYLEDATA
350
D8
  3
FINGERPRINTGUID
350
C3
  3
HYPERLINKBASE
350
BC
  3
INSUNITS
350
C1
  3
LAYOUTDICT
350
BE
  3
LWETCUNION
350
C0
  3
PLOTSETDICT
350
BF
  3
PSVPSCALE
350
C5
  3
PUCSBASE
350
C8
  3
PUCSORGBACK
350
CE
  3
PUCSORGBOTTOM
350
CA
  3
PUCSORGFRONT
350
CD
  3
PUCSORGLEFT
350
CB
  3
PUCSORGRIGHT
350
CC
  3
PUCSORGTOP
350
C9
  3
PUCSORTHOREF
350
C6
  3
PUCSORTHOVIEW
350
C7
  3
STYLESHEET
350
BD
  3
TSTACKALIGN
350
BA
  3
TSTACKSIZE
350
BB
  3
UCSBASE
350
D1
  3
UCSORGBACK
350
D7
  3
UCSORGBOTTOM
350
D3
  3
UCSORGFRONT
350
D6
  3
UCSORGLEFT
350
D4
  3
UCSORGRIGHT
350
D5
  3
UCSORGTOP
350
D2
  3
UCSORTHOREF
350
CF
  3
UCSORTHOVIEW
350
D0
  3
VERSIONGUID
350
C4
  0
MLINESTYLE
  5
18
102
{ACAD_REACTORS
330
17
102
}
330
17
100
AcDbMlineStyle
  2
Standard
 70
     0
  3

 62
   256
 51
90.0
 52
90.0
 71
     2
 49
0.5
 62
   256
  6
BYLAYER
 49
-0.5
 62
   256
  6
BYLAYER
  0
VISUALSTYLE
  5
2F
102
{ACAD_REACTORS
330
2A
102
}
330
2A
100
AcDbVisualStyle
  2
2dWireframe
 70
     4
 71
     0
 72
     2
 73
     0
 90
        0
 40
-0.6
 41
-30.0
 62
     5
 63
     7
 74
     1
 91
        4
 64
     7
 65
   257
 75
     1
175
     1
 42
1.0
 92
        0
 66
   257
 43
1.0
 76
     1
 77
     6
 78
     2
 67
     7
 79
     5
170
     0
171
     0
290
     0
174
     0
 93
        1
 44
0.0
173
     0
291
     0
 45
0.0
1001
ACAD
1000
AcDbSavedByObjectVersion
1070
     0
  0
VISUALSTYLE
  5
30
102
{ACAD_REACTORS
330
2A
102
}
330
2A
100
AcDbVisualStyle
  2
3dWireframe
 70
     5
 71
     0
 72
     2
 73
     0
 90
        0
 40
-0.6
 41
-30.0
 62
     5
 63
     7
 74
     1
 91
        4
 64
     7
 65
   257
 75
     1
175
     1
 42
1.0
 92
        0
 66
   257
 43
1.0
 76
     1
 77
     6
 78
     2
 67
     7
 79
     5
170
     0
171
     0
290
     0
174
     0
 93
        1
 44
0.0
173
     0
291
     0
 45
0.0
1001
ACAD
1000
AcDbSavedByObjectVersion
1070
     0
  0
VISUALSTYLE
  5
31
102
{ACAD_REACTORS
330
2A
102
}
330
2A
100
AcDbVisualStyle
  2
3D Hidden
 70
     6
 71
     1
 72
     2
 73
     2
 90
        0
 40
-0.6
 41
-30.0
 62
     5
 63
     7
 74
     2
 91
        2
 64
     7
 65
   257
 75
     2
175
     1
 42
40.0
 92
        0
 66
   257
 43
1.0
 76
     1
 77
     6
 78
     2
 67
     7
 79
     3
170
     0
171
     0
290
     0
174
     0
 93
        1
 44
0.0
173
     0
291
     0
 45
0.0
1001
ACAD
1000
AcDbSavedByObjectVersion
1070
     0
  0
VISUALSTYLE
  5
32
102
{ACAD_REACTORS
330
2A
102
}
330
2A
100
AcDbVisualStyle
  2
Basic
 70
     7
 71
     1
 72
     0
 73
     1
 90
        0
 40
-0.6
 41
-30.0
 62
     5
 63
     7
 74
     0
 91
        4
 64
     7
 65
   257
 75
     1
175
     1
 42
1.0
 92
        8
 66
     7
 43
1.0
 76
     1
 77
     6
 78
     2
 67
     7
 79
     5
170
     0
171
     0
290
     0
174
     0
 93
        1
 44
0.0
173
     0
291
     1
 45
0.0
1001
ACAD
1000
AcDbSavedByObjectVersion
1070
     0
  0
VISUALSTYLE
  5
36
102
{ACAD_REACTORS
330
2A
102
}
330
2A
100
AcDbVisualStyle
  2
Brighten
 70
    12
 71
     2
 72
     2
 73
     0
 90
        0
 40
-0.6
 41
-30.0
 62
     5
 63
     7
 74
     1
 91
        4
 64
     7
 65
   257
 75
     1
175
     1
 42
1.0
 92
        8
 66
     7
 43
1.0
 76
     1
 77
     6
 78
     2
 67
     7
 79
     5
170
     0
171
     0
290
     0
174
     0
 93
        1
 44
50.0
173
     0
291
     1
 45
0.0
1001
ACAD
1000
AcDbSavedByObjectVersion
1070
     0
  0
VISUALSTYLE
  5
3A
102
{ACAD_REACTORS
330
2A
102
}
330
2A
100
AcDbVisualStyle
  2
ColorChange
 70
    16
 71
     2
 72
     2
 73
     3
 90
        0
 40
-0.6
 41
-30.0
 62
     5
 63
     8
 74
     1
 91
        4
 64
     7
 65
   257
 75
     1
175
     1
 42
1.0
 92
        8
 66
     8
 43
1.0
 76
     1
 77
     6
 78
     2
 67
     7
 79
     5
170
     0
171
     0
290
     0
174
     0
 93
        1
 44
0.0
173
     0
291
     1
 45
0.0
1001
ACAD
1000
AcDbSavedByObjectVersion
1070
     0
  0
VISUALSTYLE
  5
34
102
{ACAD_REACTORS
330
2A
102
}
330
2A
100
AcDbVisualStyle
  2
Conceptual
 70
     9
 71
     3
 72
     2
 73
     0
 90
        0
 40
-0.6
 41
-30.0
 62
     5
 63
     7
 74
     2
 91
        2
 64
     7
 65
   257
 75
     1
175
     1
 42
40.0
 92
        8
 66
     7
 43
1.0
 76
     1
 77
     6
 78
     2
 67
     7
 79
     3
170
     0
171
     0
290
     0
174
     0
 93
        1
 44
0.0
173
     0
291
     0
 45
0.0
1001
ACAD
1000
AcDbSavedByObjectVersion
1070
     0
  0
VISUALSTYLE
  5
35
102
{ACAD_REACTORS
330
2A
102
}
330
2A
100
AcDbVisualStyle
  2
Dim
 70
    11
 71
     2
 72
     2
 73
     0
 90
        0
 40
-0.6
 41
-30.0
 62
     5
 63
     7
 74
     1
 91
        4
 64
     7
 65
   257
 75
     1
175
     1
 42
1.0
 92
        8
 66
     7
 43
1.0
 76
     1
 77
     6
 78
     2
 67
     7
 79
     5
170
     0
171
     0
290
     0
174
     0
 93
        1
 44
-50.0
173
     0
291
     1
 45
0.0
1001
ACAD
1000
AcDbSavedByObjectVersion
1070
     0
  0
VISUALSTYLE
  5
39
102
{ACAD_REACTORS
330
2A
102
}
330
2A
100
AcDbVisualStyle
  2
Facepattern
 70
    15
 71
     2
 72
     2
 73
     0
 90
        0
 40
-0.6
 41
-30.0
 62
     5
 63
     7
 74
     1
 91
        4
 64
     7
 65
   257
 75
     1
175
     1
 42
1.0
 92
        8
 66
     7
 43
1.0
 76
     1
 77
     6
 78
     2
 67
     7
 79
     5
170
     0
171
     0
290
     0
174
     0
 93
        1
 44
0.0
173
     0
291
     1
 45
0.0
1001
ACAD
1000
AcDbSavedByObjectVersion
1070
     0
  0
VISUALSTYLE
  5
2B
102
{ACAD_REACTORS
330
2A
102
}
330
2A
100
AcDbVisualStyle
  2
Flat
 70
     0
 71
     2
 72
     1
 73
     1
 90
        2
 40
-0.6
 41
30.0
 62
     5
 63
     7
 74
     0
 91
        4
 64
     7
 65
   257
 75
     1
175
     1
 42
1.0
 92
        8
 66
     7
 43
1.0
 76
     1
 77
     6
 78
     2
 67
     7
 79
     5
170
     0
171
     0
290
     0
174
     0
 93
       13
 44
0.0
173
     0
291
     1
 45
0.0
1001
ACAD
1000
AcDbSavedByObjectVersion
1070
     0
  0
VISUALSTYLE
  5
2C
102
{ACAD_REACTORS
330
2A
102
}
330
2A
100
AcDbVisualStyle
  2
FlatWithEdges
 70
     1
 71
     2
 72
     1
 73
     1
 90
        2
 40
-0.6
 41
30.0
 62
     5
 63
     7
 74
     1
 91
        4
 64
     7
 65
   257
 75
     1
175
     1
 42
1.0
 92
        0
 66
   257
 43
1.0
 76
     1
 77
     6
 78
     2
 67
     7
 79
     5
170
     0
171
     0
290
     0
174
     0
 93
       13
 44
0.0
173
     0
291
     1
 45
0.0
1001
ACAD
1000
AcDbSavedByObjectVersion
1070
     0
  0
VISUALSTYLE
  5
2D
102
{ACAD_REACTORS
330
2A
102
}
330
2A
100
AcDbVisualStyle
  2
Gouraud
 70
     2
 71
     2
 72
     2
 73
     1
 90
        2
 40
-0.6
 41
30.0
 62
     5
 63
     7
 74
     0
 91
        4
 64
     7
 65
   257
 75
     1
175
     1
 42
1.0
 92
        0
 66
     7
 43
1.0
 76
     1
 77
     6
 78
     2
 67
     7
 79
     5
170
     0
171
     0
290
     0
174
     0
 93
       13
 44
0.0
173
     0
291
     1
 45
0.0
1001
ACAD
1000
AcDbSavedByObjectVersion
1070
     0
  0
VISUALSTYLE
  5
2E
102
{ACAD_REACTORS
330
2A
102
}
330
2A
100
AcDbVisualStyle
  2
GouraudWithEdges
 70
     3
 71
     2
 72
     2
 73
     1
 90
        2
 40
-0.6
 41
30.0
 62
     5
 63
     7
 74
     1
 91
        4
 64
     7
 65
   257
 75
     1
175
     1
 42
1.0
 92
        0
 66
   257
 43
1.0
 76
     1
 77
     6
 78
     2
 67
     7
 79
     5
170
     0
171
     0
290
     0
174
     0
 93
       13
 44
0.0
173
     0
291
     1
 45
0.0
1001
ACAD
1000
AcDbSavedByObjectVersion
1070
     0
  0
VISUALSTYLE
  5
38
102
{ACAD_REACTORS
330
2A
102
}
330
2A
100
AcDbVisualStyle
  2
Linepattern
 70
    14
 71
     2
 72
     2
 73
     0
 90
        0
 40
-0.6
 41
-30.0
 62
     5
 63
     7
 74
     1
 91
        4
 64
     7
 65
   257
 75
     7
175
     7
 42
1.0
 92
        8
 66
     7
 43
1.0
 76
     1
 77
     6
 78
     2
 67
     7
 79
     5
170
     0
171
     0
290
     0
174
     0
 93
        1
 44
0.0
173
     0
291
     1
 45
0.0
1001
ACAD
1000
AcDbSavedByObjectVersion
1070
     0
  0
VISUALSTYLE
  5
33
102
{ACAD_REACTORS
330
2A
102
}
330
2A
100
AcDbVisualStyle
  2
Realistic
 70
     8
 71
     2
 72
     2
 73
     0
 90
        0
 40
-0.6
 41
-30.0
 62
     5
 63
     7
 74
     1
 91
        0
 64
     7
 65
   257
 75
     1
175
     1
 42
1.0
 92
        8
 66
     8
 43
1.0
 76
     1
 77
     6
 78
     2
 67
     7
 79
     5
170
     0
171
     0
290
     0
174
     0
 93
       13
 44
0.0
173
     0
291
     0
 45
0.0
1001
ACAD
1000
AcDbSavedByObjectVersion
1070
     0
  0
VISUALSTYLE
  5
37
102
{ACAD_REACTORS
330
2A
102
}
330
2A
100
AcDbVisualStyle
  2
Thicken
 70
    13
 71
     2
 72
     2
 73
     0
 90
        0
 40
-0.6
 41
-30.0
 62
     5
 63
     7
 74
     1
 91
        4
 64
     7
 65
   257
 75
     1
175
     1
 42
1.0
 92
       12
 66
     7
 43
1.0
 76
     1
 77
     6
 78
     2
 67
     7
 79
     5
170
     0
171
     0
290
     0
174
     0
 93
        1
 44
0.0
173
     0
291
     1
 45
0.0
1001
ACAD
1000
AcDbSavedByObjectVersion
1070
     0
  0
XRECORD
  5
C2
102
{ACAD_REACTORS
330
B9
102
}
330
B9
100
AcDbXrecord
 90
        0
  0
XRECORD
  5
D8
102
{ACAD_REACTORS
330
B9
102
}
330
B9
100
AcDbXrecord
1000
DSTYLE
1002
{
1070
   340
340
11
1002
}
  0
XRECORD
  5
C3
102
{ACAD_REACTORS
330
B9
102
}
330
B9
100
AcDbXrecord
  1
{777C2EB8-7061-1457-8CC5-7D51A0DE6003}
  0
XRECORD
  5
BC
102
{ACAD_REACTORS
330
B9
102
}
330
B9
100
AcDbXrecord
  1

  0
XRECORD
  5
C1
102
{ACAD_REACTORS
330
B9
102
}
330
B9
100
AcDbXrecord
 90
        1
  0
XRECORD
  5
BE
102
{ACAD_REACTORS
330
B9
102
}
330
B9
100
AcDbXrecord
340
1A
  0
XRECORD
  5
C0
102
{ACAD_REACTORS
330
B9
102
}
330
B9
100
AcDbXrecord
 90
    10269
  0
XRECORD
  5
BF
102
{ACAD_REACTORS
330
B9
102
}
330
B9
100
AcDbXrecord
340
19
  0
XRECORD
  5
C5
102
{ACAD_REACTORS
330
B9
102
}
330
B9
100
AcDbXrecord
 40
0.0
  0
XRECORD
  5
C8
102
{ACAD_REACTORS
330
B9
102
}
330
B9
100
AcDbXrecord
340
0
  0
XRECORD
  5
CE
102
{ACAD_REACTORS
330
B9
102
}
330
B9
100
AcDbXrecord
 10
0.0
 20
0.0
 30
0.0
  0
XRECORD
  5
CA
102
{ACAD_REACTORS
330
B9
102
}
330
B9
100
AcDbXrecord
 10
0.0
 20
0.0
 30
0.0
  0
XRECORD
  5
CD
102
{ACAD_REACTORS
330
B9
102
}
330
B9
100
AcDbXrecord
 10
0.0
 20
0.0
 30
0.0
  0
XRECORD
  5
CB
102
{ACAD_REACTORS
330
B9
102
}
330
B9
100
AcDbXrecord
 10
0.0
 20
0.0
 30
0.0
  0
XRECORD
  5
CC
102
{ACAD_REACTORS
330
B9
102
}
330
B9
100
AcDbXrecord
 10
0.0
 20
0.0
 30
0.0
  0
XRECORD
  5
C9
102
{ACAD_REACTORS
330
B9
102
}
330
B9
100
AcDbXrecord
 10
0.0
 20
0.0
 30
0.0
  0
XRECORD
  5
C6
102
{ACAD_REACTORS
330
B9
102
}
330
B9
100
AcDbXrecord
340
0
  0
XRECORD
  5
C7
102
{ACAD_REACTORS
330
B9
102
}
330
B9
100
AcDbXrecord
 70
     0
  0
XRECORD
  5
BD
102
{ACAD_REACTORS
330
B9
102
}
330
B9
100
AcDbXrecord
  1

  0
XRECORD
  5
BA
102
{ACAD_REACTORS
330
B9
102
}
330
B9
100
AcDbXrecord
 90
        1
  0
XRECORD
  5
BB
102
{ACAD_REACTORS
330
B9
102
}
330
B9
100
AcDbXrecord
 90
       70
  0
XRECORD
  5
D1
102
{ACAD_REACTORS
330
B9
102
}
330
B9
100
AcDbXrecord
340
0
  0
XRECORD
  5
D7
102
{ACAD_REACTORS
330
B9
102
}
330
B9
100
AcDbXrecord
 10
0.0
 20
0.0
 30
0.0
  0
XRECORD
  5
D3
102
{ACAD_REACTORS
330
B9
102
}
330
B9
100
AcDbXrecord
 10
0.0
 20
0.0
 30
0.0
  0
XRECORD
  5
D6
102
{ACAD_REACTORS
330
B9
102
}
330
B9
100
AcDbXrecord
 10
0.0
 20
0.0
 30
0.0
  0
XRECORD
  5
D4
102
{ACAD_REACTORS
330
B9
102
}
330
B9
100
AcDbXrecord
 10
0.0
 20
0.0
 30
0.0
  0
XRECORD
  5
D5
102
{ACAD_REACTORS
330
B9
102
}
330
B9
100
AcDbXrecord
 10
0.0
 20
0.0
 30
0.0
  0
XRECORD
  5
D2
102
{ACAD_REACTORS
330
B9
102
}
330
B9
100
AcDbXrecord
 10
0.0
 20
0.0
 30
0.0
  0
XRECORD
  5
CF
102
{ACAD_REACTORS
330
B9
102
}
330
B9
100
AcDbXrecord
340
0
  0
XRECORD
  5
D0
102
{ACAD_REACTORS
330
B9
102
}
330
B9
100
AcDbXrecord
 70
     0
  0
XRECORD
  5
C4
102
{ACAD_REACTORS
330
B9
102
}
330
B9
100
AcDbXrecord
  1
{FAEB1C32-E019-11D5-929B-00C0DF256EC4}
  0
ENDSEC
  0
EOF
