  0
SECTION
  2
HEADER
  9
$ACADVER
  1
AC1012
  9
$DWGCODEPAGE
  3
undefined
  9
$INSBASE
 10
0.0
 20
0.0
 30
0.0
  9
$EXTMIN
 10
1.000000000000000E+20
 20
1.000000000000000E+20
 30
1.000000000000000E+20
  9
$EXTMAX
 10
-1.000000000000000E+20
 20
-1.000000000000000E+20
 30
-1.000000000000000E+20
  9
$LIMMIN
 10
0.0
 20
0.0
  9
$LIMMAX
 10
12.0
 20
9.0
  9
$ORTHOMODE
 70
     0
  9
$REGENMODE
 70
     1
  9
$FILLMODE
 70
     1
  9
$QTEXTMODE
 70
     0
  9
$MIRRTEXT
 70
     1
  9
$DRAGMODE
 70
     2
  9
$LTSCALE
 40
1.0
  9
$OSMODE
 70
    37
  9
$ATTMODE
 70
     1
  9
$TEXTSIZE
 40
0.2
  9
$TRACEWID
 40
0.05
  9
$TEXTSTYLE
  7
STANDARD
  9
$CLAYER
  8
0
  9
$CELTYPE
  6
BYLAYER
  9
$CECOLOR
 62
   256
  9
$CELTSCALE
 40
1.0
  9
$DELOBJ
 70
     1
  9
$DISPSILH
 70
     0
  9
$DIMSCALE
 40
1.0
  9
$DIMASZ
 40
0.18
  9
$DIMEXO
 40
0.0625
  9
$DIMDLI
 40
0.38
  9
$DIMRND
 40
0.0
  9
$DIMDLE
 40
0.0
  9
$DIMEXE
 40
0.18
  9
$DIMTP
 40
0.0
  9
$DIMTM
 40
0.0
  9
$DIMTXT
 40
0.18
  9
$DIMCEN
 40
0.09
  9
$DIMTSZ
 40
0.0
  9
$DIMTOL
 70
     0
  9
$DIMLIM
 70
     0
  9
$DIMTIH
 70
     1
  9
$DIMTOH
 70
     1
  9
$DIMSE1
 70
     0
  9
$DIMSE2
 70
     0
  9
$DIMTAD
 70
     0
  9
$DIMZIN
 70
     0
  9
$DIMBLK
  1

  9
$DIMASO
 70
     1
  9
$DIMSHO
 70
     1
  9
$DIMPOST
  1

  9
$DIMAPOST
  1

  9
$DIMALT
 70
     0
  9
$DIMALTD
 70
     2
  9
$DIMALTF
 40
25.4
  9
$DIMLFAC
 40
1.0
  9
$DIMTOFL
 70
     0
  9
$DIMTVP
 40
0.0
  9
$DIMTIX
 70
     0
  9
$DIMSOXD
 70
     0
  9
$DIMSAH
 70
     0
  9
$DIMBLK1
  1

  9
$DIMBLK2
  1

  9
$DIMSTYLE
  2
STANDARD
  9
$DIMCLRD
 70
     0
  9
$DIMCLRE
 70
     0
  9
$DIMCLRT
 70
     0
  9
$DIMTFAC
 40
1.0
  9
$DIMGAP
 40
0.09
  9
$DIMJUST
 70
     0
  9
$DIMSD1
 70
     0
  9
$DIMSD2
 70
     0
  9
$DIMTOLJ
 70
     1
  9
$DIMTZIN
 70
     0
  9
$DIMALTZ
 70
     0
  9
$DIMALTTZ
 70
     0
  9
$DIMFIT
 70
     3
  9
$DIMUPT
 70
     0
  9
$DIMUNIT
 70
     2
  9
$DIMDEC
 70
     4
  9
$DIMTDEC
 70
     4
  9
$DIMALTU
 70
     2
  9
$DIMALTTD
 70
     2
  9
$DIMTXSTY
  7
STANDARD
  9
$DIMAUNIT
 70
     0
  9
$LUNITS
 70
     2
  9
$LUPREC
 70
     4
  9
$SKETCHINC
 40
0.1
  9
$FILLETRAD
 40
0.5
  9
$AUNITS
 70
     0
  9
$AUPREC
 70
     0
  9
$MENU
  1
.
  9
$ELEVATION
 40
0.0
  9
$PELEVATION
 40
0.0
  9
$THICKNESS
 40
0.0
  9
$LIMCHECK
 70
     0
  9
$CHAMFERA
 40
0.5
  9
$CHAMFERB
 40
0.5
  9
$CHAMFERC
 40
1.0
  9
$CHAMFERD
 40
0.0
  9
$SKPOLY
 70
     0
  9
$TDCREATE
 40
2457241.708425914
  9
$TDUPDATE
 40
2457241.708425914
  9
$TDINDWG
 40
0.0000000116
  9
$TDUSRTIMER
 40
0.0000000116
  9
$USRTIMER
 70
     1
  9
$ANGBASE
 50
0.0
  9
$ANGDIR
 70
     0
  9
$PDMODE
 70
     0
  9
$PDSIZE
 40
0.0
  9
$PLINEWID
 40
0.0
  9
$COORDS
 70
     1
  9
$SPLFRAME
 70
     0
  9
$SPLINETYPE
 70
     6
  9
$SPLINESEGS
 70
     8
  9
$ATTDIA
 70
     0
  9
$ATTREQ
 70
     1
  9
$HANDLING
 70
     1
  9
$HANDSEED
  5
38F
  9
$SURFTAB1
 70
     6
  9
$SURFTAB2
 70
     6
  9
$SURFTYPE
 70
     6
  9
$SURFU
 70
     6
  9
$SURFV
 70
     6
  9
$UCSNAME
  2

  9
$UCSORG
 10
0.0
 20
0.0
 30
0.0
  9
$UCSXDIR
 10
1.0
 20
0.0
 30
0.0
  9
$UCSYDIR
 10
0.0
 20
1.0
 30
0.0
  9
$PUCSNAME
  2

  9
$PUCSORG
 10
0.0
 20
0.0
 30
0.0
  9
$PUCSXDIR
 10
1.0
 20
0.0
 30
0.0
  9
$PUCSYDIR
 10
0.0
 20
1.0
 30
0.0
  9
$USERI1
 70
     0
  9
$USERI2
 70
     0
  9
$USERI3
 70
     0
  9
$USERI4
 70
     0
  9
$USERI5
 70
     0
  9
$USERR1
 40
0.0
  9
$USERR2
 40
0.0
  9
$USERR3
 40
0.0
  9
$USERR4
 40
0.0
  9
$USERR5
 40
0.0
  9
$WORLDVIEW
 70
     1
  9
$SHADEDGE
 70
     3
  9
$SHADEDIF
 70
    70
  9
$TILEMODE
 70
     1
  9
$MAXACTVP
 70
    64
  9
$PINSBASE
 10
0.0
 20
0.0
 30
0.0
  9
$PLIMCHECK
 70
     0
  9
$PEXTMIN
 10
1.000000000000000E+20
 20
1.000000000000000E+20
 30
1.000000000000000E+20
  9
$PEXTMAX
 10
-1.000000000000000E+20
 20
-1.000000000000000E+20
 30
-1.000000000000000E+20
  9
$PLIMMIN
 10
0.0
 20
0.0
  9
$PLIMMAX
 10
12.0
 20
9.0
  9
$UNITMODE
 70
     0
  9
$VISRETAIN
 70
     1
  9
$PLINEGEN
 70
     0
  9
$PSLTSCALE
 70
     1
  9
$TREEDEPTH
 70
  3020
  9
$PICKSTYLE
 70
     1
  9
$CMLSTYLE
  2
STANDARD
  9
$CMLJUST
 70
     0
  9
$CMLSCALE
 40
1.0
  9
$SAVEIMAGES
 70
     1
  0
ENDSEC
  0
SECTION
  2
CLASSES
  0
CLASS
  1
ACDBDICTIONARYWDFLT
  2
AcDbDictionaryWithDefault
  3
ObjectDBX Classes
 90
    32768
280
     0
281
     0
  0
CLASS
  1
VISUALSTYLE
  2
AcDbVisualStyle
  3
ObjectDBX Classes
 90
     4095
280
     0
281
     0
  0
CLASS
  1
MATERIAL
  2
AcDbMaterial
  3
ObjectDBX Classes
 90
     1153
280
     0
281
     0
  0
CLASS
  1
SUN
  2
AcDbSun
  3
SCENEOE
 90
     1024
280
     0
281
     0
  0
CLASS
  1
DICTIONARYVAR
  2
AcDbDictionaryVar
  3
ObjectDBX Classes
 90
        0
280
     0
281
     0
  0
CLASS
  1
XRECORD
  2
AcDbXrecord
  3
AutoCAD 2000
 90
    32768
280
     0
281
     0
  0
CLASS
  1
LWPOLYLINE
  2
AcDbPolyline
  3
AutoCAD 2000
 90
    32768
280
     0
281
     1
  0
CLASS
  1
HATCH
  2
AcDbHatch
  3
AutoCAD 2000
 90
    32768
280
     0
281
     1
  0
CLASS
  1
ACDBPLACEHOLDER
  2
AcDbPlaceHolder
  3
ObjectDBX Classes
 90
        0
280
     0
281
     0
  0
CLASS
  1
LAYOUT
  2
AcDbLayout
  3
ObjectDBX Classes
 90
        0
280
     0
281
     0
  0
ENDSEC
  0
SECTION
  2
TABLES
  0
TABLE
  2
VPORT
  5
8
330
0
100
AcDbSymbolTable
 70
     1
  0
VPORT
  5
29
330
8
100
AcDbSymbolTableRecord
100
AcDbViewportTableRecord
  2
*ACTIVE
 70
     0
 10
0.0
 20
0.0
 11
1.0
 21
1.0
 12
0.0
 22
0.0
 13
0.0
 23
0.0
 14
0.5
 24
0.5
 15
0.5
 25
0.5
 16
0.0
 26
0.0
 36
1.0
 17
64.2089307574308
 27
-111.3133371325242
 37
0.0
 40
351.6977079530673
 41
0.8522072936660278
 42
50.0
 43
0.0
 44
0.0
 50
0.0
 51
0.0
 71
     0
 72
   100
 73
     1
 74
     3
 75
     0
 76
     0
 77
     0
 78
     0
  0
ENDTAB
  0
TABLE
  2
LTYPE
  5
5
330
0
100
AcDbSymbolTable
 70
     1
  0
LTYPE
  5
14
330
5
100
AcDbSymbolTableRecord
100
AcDbLinetypeTableRecord
  2
BYBLOCK
 70
     0
  3

 72
    65
 73
     0
 40
0.0
  0
LTYPE
  5
15
330
5
100
AcDbSymbolTableRecord
100
AcDbLinetypeTableRecord
  2
BYLAYER
 70
     0
  3

 72
    65
 73
     0
 40
0.0
  0
LTYPE
  5
16
330
5
100
AcDbSymbolTableRecord
100
AcDbLinetypeTableRecord
  2
CONTINUOUS
 70
     0
  3
Solid line
 72
    65
 73
     0
 40
0.0
  0
ENDTAB
  0
TABLE
  2
LAYER
  5
2
330
0
100
AcDbSymbolTable
 70
     2
  0
LAYER
  5
10
330
2
100
AcDbSymbolTableRecord
100
AcDbLayerTableRecord
  2
0
 70
     0
 62
     7
  6
CONTINUOUS
  0
LAYER
  5
40
330
2
100
AcDbSymbolTableRecord
100
AcDbLayerTableRecord
  2
LAYER_1
 70
     0
 62
     7
  6
CONTINUOUS
  0
ENDTAB
  0
TABLE
  2
STYLE
  5
3
330
0
100
AcDbSymbolTable
 70
     1
  0
STYLE
  5
11
330
3
100
AcDbSymbolTableRecord
100
AcDbTextStyleTableRecord
  2
STANDARD
 70
     0
 40
0.0
 41
1.0
 50
0.0
 71
     0
 42
0.2
  3
txt
  4

  0
ENDTAB
  0
TABLE
  2
VIEW
  5
6
330
0
100
AcDbSymbolTable
 70
     0
  0
ENDTAB
  0
TABLE
  2
UCS
  5
7
330
0
100
AcDbSymbolTable
 70
     0
  0
ENDTAB
  0
TABLE
  2
APPID
  5
9
330
0
100
AcDbSymbolTable
 70
     1
  0
APPID
  5
12
330
9
100
AcDbSymbolTableRecord
100
AcDbRegAppTableRecord
  2
ACAD
 70
     0
  0
ENDTAB
  0
TABLE
  2
DIMSTYLE
  5
A
330
0
100
AcDbSymbolTable
 70
     1
  0
DIMSTYLE
105
27
330
A
100
AcDbSymbolTableRecord
100
AcDbDimStyleTableRecord
  2
STANDARD
 70
     0
  3

  4

  5

  6

  7

 40
1.0
 41
0.18
 42
0.0625
 43
0.38
 44
0.18
 45
0.0
 46
0.0
 47
0.0
 48
0.0
140
0.18
141
0.09
142
0.0
143
25.4
144
1.0
145
0.0
146
1.0
147
0.09
 71
     0
 72
     0
 73
     1
 74
     1
 75
     0
 76
     0
 77
     0
 78
     0
170
     0
171
     2
172
     0
173
     0
174
     0
175
     0
176
     0
177
     0
178
     0
270
     2
271
     4
272
     4
273
     2
274
     2
340
11
275
     0
280
     0
281
     0
282
     0
283
     1
284
     0
285
     0
286
     0
287
     3
288
     0
  0
ENDTAB
  0
TABLE
  2
BLOCK_RECORD
  5
1
330
0
100
AcDbSymbolTable
 70
     1
  0
BLOCK_RECORD
  5
1F
330
1
100
AcDbSymbolTableRecord
100
AcDbBlockTableRecord
  2
*MODEL_SPACE
  0
BLOCK_RECORD
  5
1B
330
1
100
AcDbSymbolTableRecord
100
AcDbBlockTableRecord
  2
*PAPER_SPACE
  0
ENDTAB
  0
ENDSEC
  0
SECTION
  2
BLOCKS
  0
BLOCK
  5
20
330
1F
100
AcDbEntity
  8
0
100
AcDbBlockBegin
  2
*MODEL_SPACE
 70
     0
 10
0.0
 20
0.0
 30
0.0
  3
*MODEL_SPACE
  1

  0
ENDBLK
  5
21
330
1F
100
AcDbEntity
  8
0
100
AcDbBlockEnd
  0
BLOCK
  5
1C
330
1B
100
AcDbEntity
 67
     1
  8
0
100
AcDbBlockBegin
  2
*PAPER_SPACE
 70
     0
 10
0.0
 20
0.0
 30
0.0
  3
*PAPER_SPACE
  1

  0
ENDBLK
  5
1D
330
1B
100
AcDbEntity
 67
     1
  8
0
100
AcDbBlockEnd
  0
ENDSEC
  0
SECTION
  2
ENTITIES
  0
POLYLINE
  5
41
330
1F
100
AcDbEntity
  8
LAYER_1
 62
     1
100
AcDb2dPolyline
 66
     1
 10
0.0
 20
0.0
 30
0.0
  0
VERTEX
  5
42
330
41
100
AcDbEntity
  8
LAYER_1
 62
     1
100
AcDbVertex
100
AcDb2dVertex
 10
180.2537584489958
 20
27.48570453698403
 30
0.0
  0
VERTEX
  5
43
330
41
100
AcDbEntity
  8
LAYER_1
 62
     1
100
AcDbVertex
100
AcDb2dVertex
 10
180.2537584489958
 20
32.56961041272043
 30
0.0
  0
VERTEX
  5
44
330
41
100
AcDbEntity
  8
LAYER_1
 62
     1
100
AcDbVertex
100
AcDb2dVertex
 10
74.36478685003402
 20
32.56961041272043
 30
0.0
  0
VERTEX
  5
45
330
41
100
AcDbEntity
  8
LAYER_1
 62
     1
100
AcDbVertex
100
AcDb2dVertex
 10
74.36478685003402
 20
27.48570453698403
 30
0.0
  0
VERTEX
  5
46
330
41
100
AcDbEntity
  8
LAYER_1
 62
     1
100
AcDbVertex
100
AcDb2dVertex
 10
71.36479770147847
 20
27.13292675929445
 30
0.0
  0
VERTEX
  5
47
330
41
100
AcDbEntity
  8
LAYER_1
 62
     1
100
AcDbVertex
100
AcDb2dVertex
 10
71.36479770147847
 20
12.13298101651666
 30
0.0
  0
VERTEX
  5
48
330
41
100
AcDbEntity
  8
LAYER_1
 62
     1
100
AcDbVertex
100
AcDb2dVertex
 10
74.36478685003402
 20
11.78020323882707
 30
0.0
  0
VERTEX
  5
49
330
41
100
AcDbEntity
  8
LAYER_1
 62
     1
100
AcDbVertex
100
AcDb2dVertex
 10
74.36478685003402
 20
6.696275831243886
 30
0.0
  0
VERTEX
  5
4A
330
41
100
AcDbEntity
  8
LAYER_1
 62
     1
100
AcDbVertex
100
AcDb2dVertex
 10
180.2537584489958
 20
6.696275831243886
 30
0.0
  0
VERTEX
  5
4B
330
41
100
AcDbEntity
  8
LAYER_1
 62
     1
100
AcDbVertex
100
AcDb2dVertex
 10
180.2537584489958
 20
11.78020323882707
 30
0.0
  0
VERTEX
  5
4C
330
41
100
AcDbEntity
  8
LAYER_1
 62
     1
100
AcDbVertex
100
AcDb2dVertex
 10
183.2537475975514
 20
12.13298101651666
 30
0.0
  0
VERTEX
  5
4D
330
41
100
AcDbEntity
  8
LAYER_1
 62
     1
100
AcDbVertex
100
AcDb2dVertex
 10
183.2537475975514
 20
27.13292675929445
 30
0.0
  0
VERTEX
  5
4E
330
41
100
AcDbEntity
  8
LAYER_1
 62
     1
100
AcDbVertex
100
AcDb2dVertex
 10
180.2537584489958
 20
27.48570453698403
 30
0.0
  0
SEQEND
  5
4F
330
41
100
AcDbEntity
  8
LAYER_1
 62
     1
  0
POLYLINE
  5
50
330
1F
100
AcDbEntity
  8
LAYER_1
 62
    40
100
AcDb2dPolyline
 66
     1
 10
0.0
 20
0.0
 30
0.0
  0
VERTEX
  5
51
330
50
100
AcDbEntity
  8
LAYER_1
 62
    40
100
AcDbVertex
100
AcDb2dVertex
 10
91.57476134659959
 20
6.696275831243886
 30
0.0
  0
VERTEX
  5
52
330
50
100
AcDbEntity
  8
LAYER_1
 62
    40
100
AcDbVertex
100
AcDb2dVertex
 10
117.4481174599229
 20
32.56961041272043
 30
0.0
  0
SEQEND
  5
53
330
50
100
AcDbEntity
  8
LAYER_1
 62
    40
  0
POLYLINE
  5
54
330
1F
100
AcDbEntity
  8
LAYER_1
 62
    40
100
AcDb2dPolyline
 66
     1
 10
0.0
 20
0.0
 30
0.0
  0
VERTEX
  5
55
330
54
100
AcDbEntity
  8
LAYER_1
 62
    40
100
AcDbVertex
100
AcDb2dVertex
 10
112.9684598004525
 20
32.56961041272043
 30
0.0
  0
VERTEX
  5
56
330
54
100
AcDbEntity
  8
LAYER_1
 62
    40
100
AcDbVertex
100
AcDb2dVertex
 10
87.09510368712922
 20
6.696275831243886
 30
0.0
  0
SEQEND
  5
57
330
54
100
AcDbEntity
  8
LAYER_1
 62
    40
  0
POLYLINE
  5
58
330
1F
100
AcDbEntity
  8
LAYER_1
 62
    40
100
AcDb2dPolyline
 66
     1
 10
0.0
 20
0.0
 30
0.0
  0
VERTEX
  5
59
330
58
100
AcDbEntity
  8
LAYER_1
 62
    40
100
AcDbVertex
100
AcDb2dVertex
 10
82.61544602765886
 20
6.696275831243886
 30
0.0
  0
VERTEX
  5
5A
330
58
100
AcDbEntity
  8
LAYER_1
 62
    40
100
AcDbVertex
100
AcDb2dVertex
 10
108.4888021409822
 20
32.56961041272043
 30
0.0
  0
SEQEND
  5
5B
330
58
100
AcDbEntity
  8
LAYER_1
 62
    40
  0
POLYLINE
  5
5C
330
1F
100
AcDbEntity
  8
LAYER_1
 62
    40
100
AcDb2dPolyline
 66
     1
 10
0.0
 20
0.0
 30
0.0
  0
VERTEX
  5
5D
330
5C
100
AcDbEntity
  8
LAYER_1
 62
    40
100
AcDbVertex
100
AcDb2dVertex
 10
104.0089722267376
 20
32.56961041272043
 30
0.0
  0
VERTEX
  5
5E
330
5C
100
AcDbEntity
  8
LAYER_1
 62
    40
100
AcDbVertex
100
AcDb2dVertex
 10
78.1357883681885
 20
6.696275831243886
 30
0.0
  0
SEQEND
  5
5F
330
5C
100
AcDbEntity
  8
LAYER_1
 62
    40
  0
POLYLINE
  5
60
330
1F
100
AcDbEntity
  8
LAYER_1
 62
    40
100
AcDb2dPolyline
 66
     1
 10
0.0
 20
0.0
 30
0.0
  0
VERTEX
  5
61
330
60
100
AcDbEntity
  8
LAYER_1
 62
    40
100
AcDbVertex
100
AcDb2dVertex
 10
87.09510368712922
 20
6.696275831243886
 30
0.0
  0
VERTEX
  5
62
330
60
100
AcDbEntity
  8
LAYER_1
 62
    40
100
AcDbVertex
100
AcDb2dVertex
 10
112.9684598004525
 20
32.56961041272043
 30
0.0
  0
SEQEND
  5
63
330
60
100
AcDbEntity
  8
LAYER_1
 62
    40
  0
POLYLINE
  5
64
330
1F
100
AcDbEntity
  8
LAYER_1
 62
    40
100
AcDb2dPolyline
 66
     1
 10
0.0
 20
0.0
 30
0.0
  0
VERTEX
  5
65
330
64
100
AcDbEntity
  8
LAYER_1
 62
    40
100
AcDbVertex
100
AcDb2dVertex
 10
108.4888021409822
 20
32.56961041272043
 30
0.0
  0
VERTEX
  5
66
330
64
100
AcDbEntity
  8
LAYER_1
 62
    40
100
AcDbVertex
100
AcDb2dVertex
 10
82.61544602765886
 20
6.696275831243886
 30
0.0
  0
SEQEND
  5
67
330
64
100
AcDbEntity
  8
LAYER_1
 62
    40
  0
POLYLINE
  5
68
330
1F
100
AcDbEntity
  8
LAYER_1
 62
    40
100
AcDb2dPolyline
 66
     1
 10
0.0
 20
0.0
 30
0.0
  0
VERTEX
  5
69
330
68
100
AcDbEntity
  8
LAYER_1
 62
    40
100
AcDbVertex
100
AcDb2dVertex
 10
105.0137343250107
 20
6.696275831243886
 30
0.0
  0
VERTEX
  5
6A
330
68
100
AcDbEntity
  8
LAYER_1
 62
    40
100
AcDbVertex
100
AcDb2dVertex
 10
130.887090438334
 20
32.56961041272043
 30
0.0
  0
SEQEND
  5
6B
330
68
100
AcDbEntity
  8
LAYER_1
 62
    40
  0
POLYLINE
  5
6C
330
1F
100
AcDbEntity
  8
LAYER_1
 62
    40
100
AcDb2dPolyline
 66
     1
 10
0.0
 20
0.0
 30
0.0
  0
VERTEX
  5
6D
330
6C
100
AcDbEntity
  8
LAYER_1
 62
    40
100
AcDbVertex
100
AcDb2dVertex
 10
126.4074327788636
 20
32.56961041272043
 30
0.0
  0
VERTEX
  5
6E
330
6C
100
AcDbEntity
  8
LAYER_1
 62
    40
100
AcDbVertex
100
AcDb2dVertex
 10
100.5340766655403
 20
6.696275831243886
 30
0.0
  0
SEQEND
  5
6F
330
6C
100
AcDbEntity
  8
LAYER_1
 62
    40
  0
POLYLINE
  5
70
330
1F
100
AcDbEntity
  8
LAYER_1
 62
    40
100
AcDb2dPolyline
 66
     1
 10
0.0
 20
0.0
 30
0.0
  0
VERTEX
  5
71
330
70
100
AcDbEntity
  8
LAYER_1
 62
    40
100
AcDbVertex
100
AcDb2dVertex
 10
109.4935642392553
 20
6.696275831243886
 30
0.0
  0
VERTEX
  5
72
330
70
100
AcDbEntity
  8
LAYER_1
 62
    40
100
AcDbVertex
100
AcDb2dVertex
 10
135.3667480978044
 20
32.56961041272043
 30
0.0
  0
SEQEND
  5
73
330
70
100
AcDbEntity
  8
LAYER_1
 62
    40
  0
POLYLINE
  5
74
330
1F
100
AcDbEntity
  8
LAYER_1
 62
    40
100
AcDb2dPolyline
 66
     1
 10
0.0
 20
0.0
 30
0.0
  0
VERTEX
  5
75
330
74
100
AcDbEntity
  8
LAYER_1
 62
    40
100
AcDbVertex
100
AcDb2dVertex
 10
130.887090438334
 20
32.56961041272043
 30
0.0
  0
VERTEX
  5
76
330
74
100
AcDbEntity
  8
LAYER_1
 62
    40
100
AcDbVertex
100
AcDb2dVertex
 10
105.0137343250107
 20
6.696275831243886
 30
0.0
  0
SEQEND
  5
77
330
74
100
AcDbEntity
  8
LAYER_1
 62
    40
  0
POLYLINE
  5
78
330
1F
100
AcDbEntity
  8
LAYER_1
 62
    40
100
AcDb2dPolyline
 66
     1
 10
0.0
 20
0.0
 30
0.0
  0
VERTEX
  5
79
330
78
100
AcDbEntity
  8
LAYER_1
 62
    40
100
AcDbVertex
100
AcDb2dVertex
 10
78.1357883681885
 20
6.696275831243886
 30
0.0
  0
VERTEX
  5
7A
330
78
100
AcDbEntity
  8
LAYER_1
 62
    40
100
AcDbVertex
100
AcDb2dVertex
 10
104.0089722267376
 20
32.56961041272043
 30
0.0
  0
SEQEND
  5
7B
330
78
100
AcDbEntity
  8
LAYER_1
 62
    40
  0
POLYLINE
  5
7C
330
1F
100
AcDbEntity
  8
LAYER_1
 62
    40
100
AcDb2dPolyline
 66
     1
 10
0.0
 20
0.0
 30
0.0
  0
VERTEX
  5
7D
330
7C
100
AcDbEntity
  8
LAYER_1
 62
    40
100
AcDbVertex
100
AcDb2dVertex
 10
99.52931456726719
 20
32.56961041272043
 30
0.0
  0
VERTEX
  5
7E
330
7C
100
AcDbEntity
  8
LAYER_1
 62
    40
100
AcDbVertex
100
AcDb2dVertex
 10
74.36478685003402
 20
7.405061163640475
 30
0.0
  0
SEQEND
  5
7F
330
7C
100
AcDbEntity
  8
LAYER_1
 62
    40
  0
POLYLINE
  5
80
330
1F
100
AcDbEntity
  8
LAYER_1
 62
    40
100
AcDb2dPolyline
 66
     1
 10
0.0
 20
0.0
 30
0.0
  0
VERTEX
  5
81
330
80
100
AcDbEntity
  8
LAYER_1
 62
    40
100
AcDbVertex
100
AcDb2dVertex
 10
100.5340766655403
 20
6.696275831243886
 30
0.0
  0
VERTEX
  5
82
330
80
100
AcDbEntity
  8
LAYER_1
 62
    40
100
AcDbVertex
100
AcDb2dVertex
 10
126.4074327788636
 20
32.56961041272043
 30
0.0
  0
SEQEND
  5
83
330
80
100
AcDbEntity
  8
LAYER_1
 62
    40
  0
POLYLINE
  5
84
330
1F
100
AcDbEntity
  8
LAYER_1
 62
    40
100
AcDb2dPolyline
 66
     1
 10
0.0
 20
0.0
 30
0.0
  0
VERTEX
  5
85
330
84
100
AcDbEntity
  8
LAYER_1
 62
    40
100
AcDbVertex
100
AcDb2dVertex
 10
121.9277751193933
 20
32.56961041272043
 30
0.0
  0
VERTEX
  5
86
330
84
100
AcDbEntity
  8
LAYER_1
 62
    40
100
AcDbVertex
100
AcDb2dVertex
 10
96.05441900606995
 20
6.696275831243886
 30
0.0
  0
SEQEND
  5
87
330
84
100
AcDbEntity
  8
LAYER_1
 62
    40
  0
POLYLINE
  5
88
330
1F
100
AcDbEntity
  8
LAYER_1
 62
    40
100
AcDb2dPolyline
 66
     1
 10
0.0
 20
0.0
 30
0.0
  0
VERTEX
  5
89
330
88
100
AcDbEntity
  8
LAYER_1
 62
    40
100
AcDbVertex
100
AcDb2dVertex
 10
96.05441900606995
 20
6.696275831243886
 30
0.0
  0
VERTEX
  5
8A
330
88
100
AcDbEntity
  8
LAYER_1
 62
    40
100
AcDbVertex
100
AcDb2dVertex
 10
121.9277751193933
 20
32.56961041272043
 30
0.0
  0
SEQEND
  5
8B
330
88
100
AcDbEntity
  8
LAYER_1
 62
    40
  0
POLYLINE
  5
8C
330
1F
100
AcDbEntity
  8
LAYER_1
 62
    40
100
AcDb2dPolyline
 66
     1
 10
0.0
 20
0.0
 30
0.0
  0
VERTEX
  5
8D
330
8C
100
AcDbEntity
  8
LAYER_1
 62
    40
100
AcDbVertex
100
AcDb2dVertex
 10
117.4481174599229
 20
32.56961041272043
 30
0.0
  0
VERTEX
  5
8E
330
8C
100
AcDbEntity
  8
LAYER_1
 62
    40
100
AcDbVertex
100
AcDb2dVertex
 10
91.57476134659959
 20
6.696275831243886
 30
0.0
  0
SEQEND
  5
8F
330
8C
100
AcDbEntity
  8
LAYER_1
 62
    40
  0
POLYLINE
  5
90
330
1F
100
AcDbEntity
  8
LAYER_1
 62
    40
100
AcDb2dPolyline
 66
     1
 10
0.0
 20
0.0
 30
0.0
  0
VERTEX
  5
91
330
90
100
AcDbEntity
  8
LAYER_1
 62
    40
100
AcDbVertex
100
AcDb2dVertex
 10
74.36478685003402
 20
29.80347865207299
 30
0.0
  0
VERTEX
  5
92
330
90
100
AcDbEntity
  8
LAYER_1
 62
    40
100
AcDbVertex
100
AcDb2dVertex
 10
77.13085401514113
 20
32.56961041272043
 30
0.0
  0
SEQEND
  5
93
330
90
100
AcDbEntity
  8
LAYER_1
 62
    40
  0
POLYLINE
  5
94
330
1F
100
AcDbEntity
  8
LAYER_1
 62
    40
100
AcDb2dPolyline
 66
     1
 10
0.0
 20
0.0
 30
0.0
  0
VERTEX
  5
95
330
94
100
AcDbEntity
  8
LAYER_1
 62
    40
100
AcDbVertex
100
AcDb2dVertex
 10
74.36478685003402
 20
7.405061163640475
 30
0.0
  0
VERTEX
  5
96
330
94
100
AcDbEntity
  8
LAYER_1
 62
    40
100
AcDbVertex
100
AcDb2dVertex
 10
99.52931456726719
 20
32.56961041272043
 30
0.0
  0
SEQEND
  5
97
330
94
100
AcDbEntity
  8
LAYER_1
 62
    40
  0
POLYLINE
  5
98
330
1F
100
AcDbEntity
  8
LAYER_1
 62
    40
100
AcDb2dPolyline
 66
     1
 10
0.0
 20
0.0
 30
0.0
  0
VERTEX
  5
99
330
98
100
AcDbEntity
  8
LAYER_1
 62
    40
100
AcDbVertex
100
AcDb2dVertex
 10
95.04965690779683
 20
32.56961041272043
 30
0.0
  0
VERTEX
  5
9A
330
98
100
AcDbEntity
  8
LAYER_1
 62
    40
100
AcDbVertex
100
AcDb2dVertex
 10
74.27125250760949
 20
11.79120601253309
 30
0.0
  0
SEQEND
  5
9B
330
98
100
AcDbEntity
  8
LAYER_1
 62
    40
  0
POLYLINE
  5
9C
330
1F
100
AcDbEntity
  8
LAYER_1
 62
    40
100
AcDb2dPolyline
 66
     1
 10
0.0
 20
0.0
 30
0.0
  0
VERTEX
  5
9D
330
9C
100
AcDbEntity
  8
LAYER_1
 62
    40
100
AcDbVertex
100
AcDb2dVertex
 10
71.36479770147847
 20
22.32381031220028
 30
0.0
  0
VERTEX
  5
9E
330
9C
100
AcDbEntity
  8
LAYER_1
 62
    40
100
AcDbVertex
100
AcDb2dVertex
 10
81.61051167461149
 20
32.56961041272043
 30
0.0
  0
SEQEND
  5
9F
330
9C
100
AcDbEntity
  8
LAYER_1
 62
    40
  0
POLYLINE
  5
A0
330
1F
100
AcDbEntity
  8
LAYER_1
 62
    40
100
AcDb2dPolyline
 66
     1
 10
0.0
 20
0.0
 30
0.0
  0
VERTEX
  5
A1
330
A0
100
AcDbEntity
  8
LAYER_1
 62
    40
100
AcDbVertex
100
AcDb2dVertex
 10
77.13085401514113
 20
32.56961041272043
 30
0.0
  0
VERTEX
  5
A2
330
A0
100
AcDbEntity
  8
LAYER_1
 62
    40
100
AcDbVertex
100
AcDb2dVertex
 10
74.36478685003402
 20
29.80347865207299
 30
0.0
  0
SEQEND
  5
A3
330
A0
100
AcDbEntity
  8
LAYER_1
 62
    40
  0
POLYLINE
  5
A4
330
1F
100
AcDbEntity
  8
LAYER_1
 62
    40
100
AcDb2dPolyline
 66
     1
 10
0.0
 20
0.0
 30
0.0
  0
VERTEX
  5
A5
330
A4
100
AcDbEntity
  8
LAYER_1
 62
    40
100
AcDbVertex
100
AcDb2dVertex
 10
74.27125250760949
 20
11.79120601253309
 30
0.0
  0
VERTEX
  5
A6
330
A4
100
AcDbEntity
  8
LAYER_1
 62
    40
100
AcDbVertex
100
AcDb2dVertex
 10
95.04965690779683
 20
32.56961041272043
 30
0.0
  0
SEQEND
  5
A7
330
A4
100
AcDbEntity
  8
LAYER_1
 62
    40
  0
POLYLINE
  5
A8
330
1F
100
AcDbEntity
  8
LAYER_1
 62
    40
100
AcDb2dPolyline
 66
     1
 10
0.0
 20
0.0
 30
0.0
  0
VERTEX
  5
A9
330
A8
100
AcDbEntity
  8
LAYER_1
 62
    40
100
AcDbVertex
100
AcDb2dVertex
 10
90.56999924832647
 20
32.56961041272043
 30
0.0
  0
VERTEX
  5
AA
330
A8
100
AcDbEntity
  8
LAYER_1
 62
    40
100
AcDbVertex
100
AcDb2dVertex
 10
71.36479770147847
 20
13.36443039771921
 30
0.0
  0
SEQEND
  5
AB
330
A8
100
AcDbEntity
  8
LAYER_1
 62
    40
  0
POLYLINE
  5
AC
330
1F
100
AcDbEntity
  8
LAYER_1
 62
    40
100
AcDb2dPolyline
 66
     1
 10
0.0
 20
0.0
 30
0.0
  0
VERTEX
  5
AD
330
AC
100
AcDbEntity
  8
LAYER_1
 62
    40
100
AcDbVertex
100
AcDb2dVertex
 10
71.36479770147847
 20
17.84410958903636
 30
0.0
  0
VERTEX
  5
AE
330
AC
100
AcDbEntity
  8
LAYER_1
 62
    40
100
AcDbVertex
100
AcDb2dVertex
 10
86.0903415888561
 20
32.56961041272043
 30
0.0
  0
SEQEND
  5
AF
330
AC
100
AcDbEntity
  8
LAYER_1
 62
    40
  0
POLYLINE
  5
B0
330
1F
100
AcDbEntity
  8
LAYER_1
 62
    40
100
AcDb2dPolyline
 66
     1
 10
0.0
 20
0.0
 30
0.0
  0
VERTEX
  5
B1
330
B0
100
AcDbEntity
  8
LAYER_1
 62
    40
100
AcDbVertex
100
AcDb2dVertex
 10
81.61051167461149
 20
32.56961041272043
 30
0.0
  0
VERTEX
  5
B2
330
B0
100
AcDbEntity
  8
LAYER_1
 62
    40
100
AcDbVertex
100
AcDb2dVertex
 10
71.36479770147847
 20
22.32381031220028
 30
0.0
  0
SEQEND
  5
B3
330
B0
100
AcDbEntity
  8
LAYER_1
 62
    40
  0
POLYLINE
  5
B4
330
1F
100
AcDbEntity
  8
LAYER_1
 62
    40
100
AcDb2dPolyline
 66
     1
 10
0.0
 20
0.0
 30
0.0
  0
VERTEX
  5
B5
330
B4
100
AcDbEntity
  8
LAYER_1
 62
    40
100
AcDbVertex
100
AcDb2dVertex
 10
71.36479770147847
 20
13.36443039771921
 30
0.0
  0
VERTEX
  5
B6
330
B4
100
AcDbEntity
  8
LAYER_1
 62
    40
100
AcDbVertex
100
AcDb2dVertex
 10
90.56999924832647
 20
32.56961041272043
 30
0.0
  0
SEQEND
  5
B7
330
B4
100
AcDbEntity
  8
LAYER_1
 62
    40
  0
POLYLINE
  5
B8
330
1F
100
AcDbEntity
  8
LAYER_1
 62
    40
100
AcDb2dPolyline
 66
     1
 10
0.0
 20
0.0
 30
0.0
  0
VERTEX
  5
B9
330
B8
100
AcDbEntity
  8
LAYER_1
 62
    40
100
AcDbVertex
100
AcDb2dVertex
 10
86.0903415888561
 20
32.56961041272043
 30
0.0
  0
VERTEX
  5
BA
330
B8
100
AcDbEntity
  8
LAYER_1
 62
    40
100
AcDbVertex
100
AcDb2dVertex
 10
71.36479770147847
 20
17.84410958903636
 30
0.0
  0
SEQEND
  5
BB
330
B8
100
AcDbEntity
  8
LAYER_1
 62
    40
  0
POLYLINE
  5
BC
330
1F
100
AcDbEntity
  8
LAYER_1
 62
    40
100
AcDb2dPolyline
 66
     1
 10
0.0
 20
0.0
 30
0.0
  0
VERTEX
  5
BD
330
BC
100
AcDbEntity
  8
LAYER_1
 62
    40
100
AcDbVertex
100
AcDb2dVertex
 10
167.7294583219185
 20
6.696275831243886
 30
0.0
  0
VERTEX
  5
BE
330
BC
100
AcDbEntity
  8
LAYER_1
 62
    40
100
AcDbVertex
100
AcDb2dVertex
 10
183.2537475975514
 20
22.22062970241705
 30
0.0
  0
SEQEND
  5
BF
330
BC
100
AcDbEntity
  8
LAYER_1
 62
    40
  0
POLYLINE
  5
C0
330
1F
100
AcDbEntity
  8
LAYER_1
 62
    40
100
AcDb2dPolyline
 66
     1
 10
0.0
 20
0.0
 30
0.0
  0
VERTEX
  5
C1
330
C0
100
AcDbEntity
  8
LAYER_1
 62
    40
100
AcDbVertex
100
AcDb2dVertex
 10
183.2537475975514
 20
26.7003088937342
 30
0.0
  0
VERTEX
  5
C2
330
C0
100
AcDbEntity
  8
LAYER_1
 62
    40
100
AcDbVertex
100
AcDb2dVertex
 10
163.2496284076739
 20
6.696275831243886
 30
0.0
  0
SEQEND
  5
C3
330
C0
100
AcDbEntity
  8
LAYER_1
 62
    40
  0
POLYLINE
  5
C4
330
1F
100
AcDbEntity
  8
LAYER_1
 62
    40
100
AcDb2dPolyline
 66
     1
 10
0.0
 20
0.0
 30
0.0
  0
VERTEX
  5
C5
330
C4
100
AcDbEntity
  8
LAYER_1
 62
    40
100
AcDbVertex
100
AcDb2dVertex
 10
158.7699707482036
 20
6.696275831243886
 30
0.0
  0
VERTEX
  5
C6
330
C4
100
AcDbEntity
  8
LAYER_1
 62
    40
100
AcDbVertex
100
AcDb2dVertex
 10
180.2537584489958
 20
28.17999893649579
 30
0.0
  0
SEQEND
  5
C7
330
C4
100
AcDbEntity
  8
LAYER_1
 62
    40
  0
POLYLINE
  5
C8
330
1F
100
AcDbEntity
  8
LAYER_1
 62
    40
100
AcDb2dPolyline
 66
     1
 10
0.0
 20
0.0
 30
0.0
  0
VERTEX
  5
C9
330
C8
100
AcDbEntity
  8
LAYER_1
 62
    40
100
AcDbVertex
100
AcDb2dVertex
 10
180.1636692020565
 20
32.56961041272043
 30
0.0
  0
VERTEX
  5
CA
330
C8
100
AcDbEntity
  8
LAYER_1
 62
    40
100
AcDbVertex
100
AcDb2dVertex
 10
154.2903130887332
 20
6.696275831243886
 30
0.0
  0
SEQEND
  5
CB
330
C8
100
AcDbEntity
  8
LAYER_1
 62
    40
  0
POLYLINE
  5
CC
330
1F
100
AcDbEntity
  8
LAYER_1
 62
    40
100
AcDb2dPolyline
 66
     1
 10
0.0
 20
0.0
 30
0.0
  0
VERTEX
  5
CD
330
CC
100
AcDbEntity
  8
LAYER_1
 62
    40
100
AcDbVertex
100
AcDb2dVertex
 10
163.2496284076739
 20
6.696275831243886
 30
0.0
  0
VERTEX
  5
CE
330
CC
100
AcDbEntity
  8
LAYER_1
 62
    40
100
AcDbVertex
100
AcDb2dVertex
 10
183.2537475975514
 20
26.7003088937342
 30
0.0
  0
SEQEND
  5
CF
330
CC
100
AcDbEntity
  8
LAYER_1
 62
    40
  0
POLYLINE
  5
D0
330
1F
100
AcDbEntity
  8
LAYER_1
 62
    40
100
AcDb2dPolyline
 66
     1
 10
0.0
 20
0.0
 30
0.0
  0
VERTEX
  5
D1
330
D0
100
AcDbEntity
  8
LAYER_1
 62
    40
100
AcDbVertex
100
AcDb2dVertex
 10
180.2537584489958
 20
28.17999893649579
 30
0.0
  0
VERTEX
  5
D2
330
D0
100
AcDbEntity
  8
LAYER_1
 62
    40
100
AcDbVertex
100
AcDb2dVertex
 10
158.7699707482036
 20
6.696275831243886
 30
0.0
  0
SEQEND
  5
D3
330
D0
100
AcDbEntity
  8
LAYER_1
 62
    40
  0
POLYLINE
  5
D4
330
1F
100
AcDbEntity
  8
LAYER_1
 62
    40
100
AcDb2dPolyline
 66
     1
 10
0.0
 20
0.0
 30
0.0
  0
VERTEX
  5
D5
330
D4
100
AcDbEntity
  8
LAYER_1
 62
    40
100
AcDbVertex
100
AcDb2dVertex
 10
176.6887736408593
 20
6.696275831243886
 30
0.0
  0
VERTEX
  5
D6
330
D4
100
AcDbEntity
  8
LAYER_1
 62
    40
100
AcDbVertex
100
AcDb2dVertex
 10
180.2537584489958
 20
10.26126063938042
 30
0.0
  0
SEQEND
  5
D7
330
D4
100
AcDbEntity
  8
LAYER_1
 62
    40
  0
POLYLINE
  5
D8
330
1F
100
AcDbEntity
  8
LAYER_1
 62
    40
100
AcDb2dPolyline
 66
     1
 10
0.0
 20
0.0
 30
0.0
  0
VERTEX
  5
D9
330
D8
100
AcDbEntity
  8
LAYER_1
 62
    40
100
AcDbVertex
100
AcDb2dVertex
 10
183.2537475975514
 20
17.74092897925312
 30
0.0
  0
VERTEX
  5
DA
330
D8
100
AcDbEntity
  8
LAYER_1
 62
    40
100
AcDbVertex
100
AcDb2dVertex
 10
172.2091159813889
 20
6.696275831243886
 30
0.0
  0
SEQEND
  5
DB
330
D8
100
AcDbEntity
  8
LAYER_1
 62
    40
  0
POLYLINE
  5
DC
330
1F
100
AcDbEntity
  8
LAYER_1
 62
    40
100
AcDb2dPolyline
 66
     1
 10
0.0
 20
0.0
 30
0.0
  0
VERTEX
  5
DD
330
DC
100
AcDbEntity
  8
LAYER_1
 62
    40
100
AcDbVertex
100
AcDb2dVertex
 10
154.2903130887332
 20
6.696275831243886
 30
0.0
  0
VERTEX
  5
DE
330
DC
100
AcDbEntity
  8
LAYER_1
 62
    40
100
AcDbVertex
100
AcDb2dVertex
 10
180.1636692020565
 20
32.56961041272043
 30
0.0
  0
SEQEND
  5
DF
330
DC
100
AcDbEntity
  8
LAYER_1
 62
    40
  0
POLYLINE
  5
E0
330
1F
100
AcDbEntity
  8
LAYER_1
 62
    40
100
AcDb2dPolyline
 66
     1
 10
0.0
 20
0.0
 30
0.0
  0
VERTEX
  5
E1
330
E0
100
AcDbEntity
  8
LAYER_1
 62
    40
100
AcDbVertex
100
AcDb2dVertex
 10
175.6840115425862
 20
32.56961041272043
 30
0.0
  0
VERTEX
  5
E2
330
E0
100
AcDbEntity
  8
LAYER_1
 62
    40
100
AcDbVertex
100
AcDb2dVertex
 10
149.8106554292629
 20
6.696275831243886
 30
0.0
  0
SEQEND
  5
E3
330
E0
100
AcDbEntity
  8
LAYER_1
 62
    40
  0
POLYLINE
  5
E4
330
1F
100
AcDbEntity
  8
LAYER_1
 62
    40
100
AcDb2dPolyline
 66
     1
 10
0.0
 20
0.0
 30
0.0
  0
VERTEX
  5
E5
330
E4
100
AcDbEntity
  8
LAYER_1
 62
    40
100
AcDbVertex
100
AcDb2dVertex
 10
149.8106554292629
 20
6.696275831243886
 30
0.0
  0
VERTEX
  5
E6
330
E4
100
AcDbEntity
  8
LAYER_1
 62
    40
100
AcDbVertex
100
AcDb2dVertex
 10
175.6840115425862
 20
32.56961041272043
 30
0.0
  0
SEQEND
  5
E7
330
E4
100
AcDbEntity
  8
LAYER_1
 62
    40
  0
POLYLINE
  5
E8
330
1F
100
AcDbEntity
  8
LAYER_1
 62
    40
100
AcDb2dPolyline
 66
     1
 10
0.0
 20
0.0
 30
0.0
  0
VERTEX
  5
E9
330
E8
100
AcDbEntity
  8
LAYER_1
 62
    40
100
AcDbVertex
100
AcDb2dVertex
 10
171.2043538831158
 20
32.56961041272043
 30
0.0
  0
VERTEX
  5
EA
330
E8
100
AcDbEntity
  8
LAYER_1
 62
    40
100
AcDbVertex
100
AcDb2dVertex
 10
145.3309977697925
 20
6.696275831243886
 30
0.0
  0
SEQEND
  5
EB
330
E8
100
AcDbEntity
  8
LAYER_1
 62
    40
  0
POLYLINE
  5
EC
330
1F
100
AcDbEntity
  8
LAYER_1
 62
    40
100
AcDb2dPolyline
 66
     1
 10
0.0
 20
0.0
 30
0.0
  0
VERTEX
  5
ED
330
EC
100
AcDbEntity
  8
LAYER_1
 62
    40
100
AcDbVertex
100
AcDb2dVertex
 10
172.2091159813889
 20
6.696275831243886
 30
0.0
  0
VERTEX
  5
EE
330
EC
100
AcDbEntity
  8
LAYER_1
 62
    40
100
AcDbVertex
100
AcDb2dVertex
 10
183.2537475975514
 20
17.74092897925312
 30
0.0
  0
SEQEND
  5
EF
330
EC
100
AcDbEntity
  8
LAYER_1
 62
    40
  0
POLYLINE
  5
F0
330
1F
100
AcDbEntity
  8
LAYER_1
 62
    40
100
AcDb2dPolyline
 66
     1
 10
0.0
 20
0.0
 30
0.0
  0
VERTEX
  5
F1
330
F0
100
AcDbEntity
  8
LAYER_1
 62
    40
100
AcDbVertex
100
AcDb2dVertex
 10
183.2537475975514
 20
22.22062970241705
 30
0.0
  0
VERTEX
  5
F2
330
F0
100
AcDbEntity
  8
LAYER_1
 62
    40
100
AcDbVertex
100
AcDb2dVertex
 10
167.7294583219185
 20
6.696275831243886
 30
0.0
  0
SEQEND
  5
F3
330
F0
100
AcDbEntity
  8
LAYER_1
 62
    40
  0
POLYLINE
  5
F4
330
1F
100
AcDbEntity
  8
LAYER_1
 62
    40
100
AcDb2dPolyline
 66
     1
 10
0.0
 20
0.0
 30
0.0
  0
VERTEX
  5
F5
330
F4
100
AcDbEntity
  8
LAYER_1
 62
    40
100
AcDbVertex
100
AcDb2dVertex
 10
180.2537584489958
 20
10.26126063938042
 30
0.0
  0
VERTEX
  5
F6
330
F4
100
AcDbEntity
  8
LAYER_1
 62
    40
100
AcDbVertex
100
AcDb2dVertex
 10
176.6887736408593
 20
6.696275831243886
 30
0.0
  0
SEQEND
  5
F7
330
F4
100
AcDbEntity
  8
LAYER_1
 62
    40
  0
POLYLINE
  5
F8
330
1F
100
AcDbEntity
  8
LAYER_1
 62
    40
100
AcDb2dPolyline
 66
     1
 10
0.0
 20
0.0
 30
0.0
  0
VERTEX
  5
F9
330
F8
100
AcDbEntity
  8
LAYER_1
 62
    40
100
AcDbVertex
100
AcDb2dVertex
 10
127.4121948771368
 20
6.696275831243886
 30
0.0
  0
VERTEX
  5
FA
330
F8
100
AcDbEntity
  8
LAYER_1
 62
    40
100
AcDbVertex
100
AcDb2dVertex
 10
153.2855509904601
 20
32.56961041272043
 30
0.0
  0
SEQEND
  5
FB
330
F8
100
AcDbEntity
  8
LAYER_1
 62
    40
  0
POLYLINE
  5
FC
330
1F
100
AcDbEntity
  8
LAYER_1
 62
    40
100
AcDb2dPolyline
 66
     1
 10
0.0
 20
0.0
 30
0.0
  0
VERTEX
  5
FD
330
FC
100
AcDbEntity
  8
LAYER_1
 62
    40
100
AcDbVertex
100
AcDb2dVertex
 10
148.8058933309897
 20
32.56961041272043
 30
0.0
  0
VERTEX
  5
FE
330
FC
100
AcDbEntity
  8
LAYER_1
 62
    40
100
AcDbVertex
100
AcDb2dVertex
 10
122.9325372176664
 20
6.696275831243886
 30
0.0
  0
SEQEND
  5
FF
330
FC
100
AcDbEntity
  8
LAYER_1
 62
    40
  0
POLYLINE
  5
100
330
1F
100
AcDbEntity
  8
LAYER_1
 62
    40
100
AcDb2dPolyline
 66
     1
 10
0.0
 20
0.0
 30
0.0
  0
VERTEX
  5
101
330
100
100
AcDbEntity
  8
LAYER_1
 62
    40
100
AcDbVertex
100
AcDb2dVertex
 10
122.9325372176664
 20
6.696275831243886
 30
0.0
  0
VERTEX
  5
102
330
100
100
AcDbEntity
  8
LAYER_1
 62
    40
100
AcDbVertex
100
AcDb2dVertex
 10
148.8058933309897
 20
32.56961041272043
 30
0.0
  0
SEQEND
  5
103
330
100
100
AcDbEntity
  8
LAYER_1
 62
    40
  0
POLYLINE
  5
104
330
1F
100
AcDbEntity
  8
LAYER_1
 62
    40
100
AcDb2dPolyline
 66
     1
 10
0.0
 20
0.0
 30
0.0
  0
VERTEX
  5
105
330
104
100
AcDbEntity
  8
LAYER_1
 62
    40
100
AcDbVertex
100
AcDb2dVertex
 10
144.3262356715194
 20
32.56961041272043
 30
0.0
  0
VERTEX
  5
106
330
104
100
AcDbEntity
  8
LAYER_1
 62
    40
100
AcDbVertex
100
AcDb2dVertex
 10
118.452879558196
 20
6.696275831243886
 30
0.0
  0
SEQEND
  5
107
330
104
100
AcDbEntity
  8
LAYER_1
 62
    40
  0
POLYLINE
  5
108
330
1F
100
AcDbEntity
  8
LAYER_1
 62
    40
100
AcDb2dPolyline
 66
     1
 10
0.0
 20
0.0
 30
0.0
  0
VERTEX
  5
109
330
108
100
AcDbEntity
  8
LAYER_1
 62
    40
100
AcDbVertex
100
AcDb2dVertex
 10
118.452879558196
 20
6.696275831243886
 30
0.0
  0
VERTEX
  5
10A
330
108
100
AcDbEntity
  8
LAYER_1
 62
    40
100
AcDbVertex
100
AcDb2dVertex
 10
144.3262356715194
 20
32.56961041272043
 30
0.0
  0
SEQEND
  5
10B
330
108
100
AcDbEntity
  8
LAYER_1
 62
    40
  0
POLYLINE
  5
10C
330
1F
100
AcDbEntity
  8
LAYER_1
 62
    40
100
AcDb2dPolyline
 66
     1
 10
0.0
 20
0.0
 30
0.0
  0
VERTEX
  5
10D
330
10C
100
AcDbEntity
  8
LAYER_1
 62
    40
100
AcDbVertex
100
AcDb2dVertex
 10
139.846578012049
 20
32.56961041272043
 30
0.0
  0
VERTEX
  5
10E
330
10C
100
AcDbEntity
  8
LAYER_1
 62
    40
100
AcDbVertex
100
AcDb2dVertex
 10
113.9732218987257
 20
6.696275831243886
 30
0.0
  0
SEQEND
  5
10F
330
10C
100
AcDbEntity
  8
LAYER_1
 62
    40
  0
POLYLINE
  5
110
330
1F
100
AcDbEntity
  8
LAYER_1
 62
    40
100
AcDb2dPolyline
 66
     1
 10
0.0
 20
0.0
 30
0.0
  0
VERTEX
  5
111
330
110
100
AcDbEntity
  8
LAYER_1
 62
    40
100
AcDbVertex
100
AcDb2dVertex
 10
113.9732218987257
 20
6.696275831243886
 30
0.0
  0
VERTEX
  5
112
330
110
100
AcDbEntity
  8
LAYER_1
 62
    40
100
AcDbVertex
100
AcDb2dVertex
 10
139.846578012049
 20
32.56961041272043
 30
0.0
  0
SEQEND
  5
113
330
110
100
AcDbEntity
  8
LAYER_1
 62
    40
  0
POLYLINE
  5
114
330
1F
100
AcDbEntity
  8
LAYER_1
 62
    40
100
AcDb2dPolyline
 66
     1
 10
0.0
 20
0.0
 30
0.0
  0
VERTEX
  5
115
330
114
100
AcDbEntity
  8
LAYER_1
 62
    40
100
AcDbVertex
100
AcDb2dVertex
 10
135.3667480978044
 20
32.56961041272043
 30
0.0
  0
VERTEX
  5
116
330
114
100
AcDbEntity
  8
LAYER_1
 62
    40
100
AcDbVertex
100
AcDb2dVertex
 10
109.4935642392553
 20
6.696275831243886
 30
0.0
  0
SEQEND
  5
117
330
114
100
AcDbEntity
  8
LAYER_1
 62
    40
  0
POLYLINE
  5
118
330
1F
100
AcDbEntity
  8
LAYER_1
 62
    40
100
AcDb2dPolyline
 66
     1
 10
0.0
 20
0.0
 30
0.0
  0
VERTEX
  5
119
330
118
100
AcDbEntity
  8
LAYER_1
 62
    40
100
AcDbVertex
100
AcDb2dVertex
 10
131.8918525366071
 20
6.696275831243886
 30
0.0
  0
VERTEX
  5
11A
330
118
100
AcDbEntity
  8
LAYER_1
 62
    40
100
AcDbVertex
100
AcDb2dVertex
 10
157.7652086499305
 20
32.56961041272043
 30
0.0
  0
SEQEND
  5
11B
330
118
100
AcDbEntity
  8
LAYER_1
 62
    40
  0
POLYLINE
  5
11C
330
1F
100
AcDbEntity
  8
LAYER_1
 62
    40
100
AcDb2dPolyline
 66
     1
 10
0.0
 20
0.0
 30
0.0
  0
VERTEX
  5
11D
330
11C
100
AcDbEntity
  8
LAYER_1
 62
    40
100
AcDbVertex
100
AcDb2dVertex
 10
153.2855509904601
 20
32.56961041272043
 30
0.0
  0
VERTEX
  5
11E
330
11C
100
AcDbEntity
  8
LAYER_1
 62
    40
100
AcDbVertex
100
AcDb2dVertex
 10
127.4121948771368
 20
6.696275831243886
 30
0.0
  0
SEQEND
  5
11F
330
11C
100
AcDbEntity
  8
LAYER_1
 62
    40
  0
POLYLINE
  5
120
330
1F
100
AcDbEntity
  8
LAYER_1
 62
    40
100
AcDb2dPolyline
 66
     1
 10
0.0
 20
0.0
 30
0.0
  0
VERTEX
  5
121
330
120
100
AcDbEntity
  8
LAYER_1
 62
    40
100
AcDbVertex
100
AcDb2dVertex
 10
140.8513401103221
 20
6.696275831243886
 30
0.0
  0
VERTEX
  5
122
330
120
100
AcDbEntity
  8
LAYER_1
 62
    40
100
AcDbVertex
100
AcDb2dVertex
 10
166.7246962236455
 20
32.56961041272043
 30
0.0
  0
SEQEND
  5
123
330
120
100
AcDbEntity
  8
LAYER_1
 62
    40
  0
POLYLINE
  5
124
330
1F
100
AcDbEntity
  8
LAYER_1
 62
    40
100
AcDb2dPolyline
 66
     1
 10
0.0
 20
0.0
 30
0.0
  0
VERTEX
  5
125
330
124
100
AcDbEntity
  8
LAYER_1
 62
    40
100
AcDbVertex
100
AcDb2dVertex
 10
162.2448663094008
 20
32.56961041272043
 30
0.0
  0
VERTEX
  5
126
330
124
100
AcDbEntity
  8
LAYER_1
 62
    40
100
AcDbVertex
100
AcDb2dVertex
 10
136.3716824508518
 20
6.696275831243886
 30
0.0
  0
SEQEND
  5
127
330
124
100
AcDbEntity
  8
LAYER_1
 62
    40
  0
POLYLINE
  5
128
330
1F
100
AcDbEntity
  8
LAYER_1
 62
    40
100
AcDb2dPolyline
 66
     1
 10
0.0
 20
0.0
 30
0.0
  0
VERTEX
  5
129
330
128
100
AcDbEntity
  8
LAYER_1
 62
    40
100
AcDbVertex
100
AcDb2dVertex
 10
136.3716824508518
 20
6.696275831243886
 30
0.0
  0
VERTEX
  5
12A
330
128
100
AcDbEntity
  8
LAYER_1
 62
    40
100
AcDbVertex
100
AcDb2dVertex
 10
162.2448663094008
 20
32.56961041272043
 30
0.0
  0
SEQEND
  5
12B
330
128
100
AcDbEntity
  8
LAYER_1
 62
    40
  0
POLYLINE
  5
12C
330
1F
100
AcDbEntity
  8
LAYER_1
 62
    40
100
AcDb2dPolyline
 66
     1
 10
0.0
 20
0.0
 30
0.0
  0
VERTEX
  5
12D
330
12C
100
AcDbEntity
  8
LAYER_1
 62
    40
100
AcDbVertex
100
AcDb2dVertex
 10
157.7652086499305
 20
32.56961041272043
 30
0.0
  0
VERTEX
  5
12E
330
12C
100
AcDbEntity
  8
LAYER_1
 62
    40
100
AcDbVertex
100
AcDb2dVertex
 10
131.8918525366071
 20
6.696275831243886
 30
0.0
  0
SEQEND
  5
12F
330
12C
100
AcDbEntity
  8
LAYER_1
 62
    40
  0
POLYLINE
  5
130
330
1F
100
AcDbEntity
  8
LAYER_1
 62
    40
100
AcDb2dPolyline
 66
     1
 10
0.0
 20
0.0
 30
0.0
  0
VERTEX
  5
131
330
130
100
AcDbEntity
  8
LAYER_1
 62
    40
100
AcDbVertex
100
AcDb2dVertex
 10
145.3309977697925
 20
6.696275831243886
 30
0.0
  0
VERTEX
  5
132
330
130
100
AcDbEntity
  8
LAYER_1
 62
    40
100
AcDbVertex
100
AcDb2dVertex
 10
171.2043538831158
 20
32.56961041272043
 30
0.0
  0
SEQEND
  5
133
330
130
100
AcDbEntity
  8
LAYER_1
 62
    40
  0
POLYLINE
  5
134
330
1F
100
AcDbEntity
  8
LAYER_1
 62
    40
100
AcDb2dPolyline
 66
     1
 10
0.0
 20
0.0
 30
0.0
  0
VERTEX
  5
135
330
134
100
AcDbEntity
  8
LAYER_1
 62
    40
100
AcDbVertex
100
AcDb2dVertex
 10
166.7246962236455
 20
32.56961041272043
 30
0.0
  0
VERTEX
  5
136
330
134
100
AcDbEntity
  8
LAYER_1
 62
    40
100
AcDbVertex
100
AcDb2dVertex
 10
140.8513401103221
 20
6.696275831243886
 30
0.0
  0
SEQEND
  5
137
330
134
100
AcDbEntity
  8
LAYER_1
 62
    40
  0
POLYLINE
  5
138
330
1F
100
AcDbEntity
  8
LAYER_1
 62
     1
100
AcDb2dPolyline
 66
     1
 10
0.0
 20
0.0
 30
0.0
  0
VERTEX
  5
139
330
138
100
AcDbEntity
  8
LAYER_1
 62
     1
100
AcDbVertex
100
AcDb2dVertex
 10
8.686571415742854
 20
36.80582295663242
 30
0.0
  0
VERTEX
  5
13A
330
138
100
AcDbEntity
  8
LAYER_1
 62
     1
100
AcDbVertex
100
AcDb2dVertex
 10
5.686582267187296
 20
36.80582295663242
 30
0.0
  0
VERTEX
  5
13B
330
138
100
AcDbEntity
  8
LAYER_1
 62
     1
100
AcDbVertex
100
AcDb2dVertex
 10
-53.77636869993353
 20
-24.38596305237519
 30
0.0
  0
VERTEX
  5
13C
330
138
100
AcDbEntity
  8
LAYER_1
 62
     1
100
AcDbVertex
100
AcDb2dVertex
 10
-53.77636869993353
 20
-29.61010584620804
 30
0.0
  0
VERTEX
  5
13D
330
138
100
AcDbEntity
  8
LAYER_1
 62
     1
100
AcDbVertex
100
AcDb2dVertex
 10
-49.28568673491037
 20
-29.61010584620804
 30
0.0
  0
VERTEX
  5
13E
330
138
100
AcDbEntity
  8
LAYER_1
 62
     1
100
AcDbVertex
100
AcDb2dVertex
 10
-49.28560060752452
 20
-29.61010584620804
 30
0.0
  0
VERTEX
  5
13F
330
138
100
AcDbEntity
  8
LAYER_1
 62
     1
100
AcDbVertex
100
AcDb2dVertex
 10
-49.28560060752452
 20
-124.9155718597081
 30
0.0
  0
VERTEX
  5
140
330
138
100
AcDbEntity
  8
LAYER_1
 62
     1
100
AcDbVertex
100
AcDb2dVertex
 10
-10.39641536876463
 20
-124.9155718597081
 30
0.0
  0
VERTEX
  5
141
330
138
100
AcDbEntity
  8
LAYER_1
 62
     1
100
AcDbVertex
100
AcDb2dVertex
 10
-10.39641536876463
 20
-85.7012772663758
 30
0.0
  0
VERTEX
  5
142
330
138
100
AcDbEntity
  8
LAYER_1
 62
     1
100
AcDbVertex
100
AcDb2dVertex
 10
23.65973154112411
 20
-85.7012772663758
 30
0.0
  0
VERTEX
  5
143
330
138
100
AcDbEntity
  8
LAYER_1
 62
     1
100
AcDbVertex
100
AcDb2dVertex
 10
23.65973154112411
 20
-124.9155718597081
 30
0.0
  0
VERTEX
  5
144
330
138
100
AcDbEntity
  8
LAYER_1
 62
     1
100
AcDbVertex
100
AcDb2dVertex
 10
63.65875429045467
 20
-124.9155718597081
 30
0.0
  0
VERTEX
  5
145
330
138
100
AcDbEntity
  8
LAYER_1
 62
     1
100
AcDbVertex
100
AcDb2dVertex
 10
63.65875429045467
 20
-29.61010584620804
 30
0.0
  0
VERTEX
  5
146
330
138
100
AcDbEntity
  8
LAYER_1
 62
     1
100
AcDbVertex
100
AcDb2dVertex
 10
68.3475292458797
 20
-29.61010584620804
 30
0.0
  0
VERTEX
  5
147
330
138
100
AcDbEntity
  8
LAYER_1
 62
     1
100
AcDbVertex
100
AcDb2dVertex
 10
68.3475292458797
 20
-24.58946053631954
 30
0.0
  0
VERTEX
  5
148
330
138
100
AcDbEntity
  8
LAYER_1
 62
     1
100
AcDbVertex
100
AcDb2dVertex
 10
8.686571415742854
 20
36.80582295663242
 30
0.0
  0
SEQEND
  5
149
330
138
100
AcDbEntity
  8
LAYER_1
 62
     1
  0
POLYLINE
  5
14A
330
1F
100
AcDbEntity
  8
LAYER_1
 62
     1
100
AcDb2dPolyline
 66
     1
 10
0.0
 20
0.0
 30
0.0
  0
VERTEX
  5
14B
330
14A
100
AcDbEntity
  8
LAYER_1
 62
     1
100
AcDbVertex
100
AcDb2dVertex
 10
-42.32900542154538
 20
-85.55587270505147
 30
0.0
  0
VERTEX
  5
14C
330
14A
100
AcDbEntity
  8
LAYER_1
 62
     1
100
AcDbVertex
100
AcDb2dVertex
 10
-45.32899457010093
 20
-85.55587270505147
 30
0.0
  0
VERTEX
  5
14D
330
14A
100
AcDbEntity
  8
LAYER_1
 62
     1
100
AcDbVertex
100
AcDb2dVertex
 10
-45.32899457010093
 20
-56.41484352396866
 30
0.0
  0
VERTEX
  5
14E
330
14A
100
AcDbEntity
  8
LAYER_1
 62
     1
100
AcDbVertex
100
AcDb2dVertex
 10
-42.32900542154538
 20
-56.41484352396866
 30
0.0
  0
VERTEX
  5
14F
330
14A
100
AcDbEntity
  8
LAYER_1
 62
     1
100
AcDbVertex
100
AcDb2dVertex
 10
-42.32900542154538
 20
-85.55587270505147
 30
0.0
  0
SEQEND
  5
150
330
14A
100
AcDbEntity
  8
LAYER_1
 62
     1
  0
POLYLINE
  5
151
330
1F
100
AcDbEntity
  8
LAYER_1
 62
     1
100
AcDb2dPolyline
 66
     1
 10
0.0
 20
0.0
 30
0.0
  0
VERTEX
  5
152
330
151
100
AcDbEntity
  8
LAYER_1
 62
     1
100
AcDbVertex
100
AcDb2dVertex
 10
14.7855962080549
 20
16.16703105098483
 30
0.0
  0
VERTEX
  5
153
330
151
100
AcDbEntity
  8
LAYER_1
 62
     1
100
AcDbVertex
100
AcDb2dVertex
 10
-0.2144356621087362
 20
16.16703105098483
 30
0.0
  0
VERTEX
  5
154
330
151
100
AcDbEntity
  8
LAYER_1
 62
     1
100
AcDbVertex
100
AcDb2dVertex
 10
-0.2144356621087362
 20
19.16702019954039
 30
0.0
  0
VERTEX
  5
155
330
151
100
AcDbEntity
  8
LAYER_1
 62
     1
100
AcDbVertex
100
AcDb2dVertex
 10
14.7855962080549
 20
19.16702019954039
 30
0.0
  0
VERTEX
  5
156
330
151
100
AcDbEntity
  8
LAYER_1
 62
     1
100
AcDbVertex
100
AcDb2dVertex
 10
14.7855962080549
 20
16.16703105098483
 30
0.0
  0
SEQEND
  5
157
330
151
100
AcDbEntity
  8
LAYER_1
 62
     1
  0
POLYLINE
  5
158
330
1F
100
AcDbEntity
  8
LAYER_1
 62
     1
100
AcDb2dPolyline
 66
     1
 10
0.0
 20
0.0
 30
0.0
  0
VERTEX
  5
159
330
158
100
AcDbEntity
  8
LAYER_1
 62
     1
100
AcDbVertex
100
AcDb2dVertex
 10
59.70206212564523
 20
-85.55587270505147
 30
0.0
  0
VERTEX
  5
15A
330
158
100
AcDbEntity
  8
LAYER_1
 62
     1
100
AcDbVertex
100
AcDb2dVertex
 10
56.70207297708968
 20
-85.55587270505147
 30
0.0
  0
VERTEX
  5
15B
330
158
100
AcDbEntity
  8
LAYER_1
 62
     1
100
AcDbVertex
100
AcDb2dVertex
 10
56.70207297708968
 20
-56.41484352396866
 30
0.0
  0
VERTEX
  5
15C
330
158
100
AcDbEntity
  8
LAYER_1
 62
     1
100
AcDbVertex
100
AcDb2dVertex
 10
59.70206212564523
 20
-56.41484352396866
 30
0.0
  0
VERTEX
  5
15D
330
158
100
AcDbEntity
  8
LAYER_1
 62
     1
100
AcDbVertex
100
AcDb2dVertex
 10
59.70206212564523
 20
-85.55587270505147
 30
0.0
  0
SEQEND
  5
15E
330
158
100
AcDbEntity
  8
LAYER_1
 62
     1
  0
SPLINE
  5
15F
330
1F
100
AcDbEntity
  8
LAYER_1
 62
     1
100
AcDbSpline
210
0.0
220
0.0
230
1.0
 70
     8
 71
     3
 72
    68
 73
    64
 74
     0
 42
0.0000000001
 43
0.0000000001
 12
1.0
 22
0.0
 32
0.0
 13
1.0
 23
0.0
 33
0.0
 40
0.0
 40
0.0
 40
0.0
 40
0.0
 40
1.0
 40
1.0
 40
1.0
 40
2.0
 40
2.0
 40
2.0
 40
3.0
 40
3.0
 40
3.0
 40
4.0
 40
4.0
 40
4.0
 40
5.0
 40
5.0
 40
5.0
 40
6.0
 40
6.0
 40
6.0
 40
7.0
 40
7.0
 40
7.0
 40
8.0
 40
8.0
 40
8.0
 40
9.0
 40
9.0
 40
9.0
 40
10.0
 40
10.0
 40
10.0
 40
11.0
 40
11.0
 40
11.0
 40
12.0
 40
12.0
 40
12.0
 40
13.0
 40
13.0
 40
13.0
 40
14.0
 40
14.0
 40
14.0
 40
15.0
 40
15.0
 40
15.0
 40
16.0
 40
16.0
 40
16.0
 40
17.0
 40
17.0
 40
17.0
 40
18.0
 40
18.0
 40
18.0
 40
19.0
 40
19.0
 40
19.0
 40
20.0
 40
20.0
 40
20.0
 40
21.0
 40
21.0
 40
21.0
 40
21.0
 10
74.36483125946802
 20
6.69627583124517
 30
0.0
 10
74.36483125946802
 20
6.69627583124517
 30
0.0
 10
74.36483125946802
 20
-31.66021151810668
 30
0.0
 10
74.36483125946802
 20
-31.66021151810668
 30
0.0
 10
74.36483125946802
 20
-31.66021151810668
 30
0.0
 10
71.36484211091245
 20
-31.66021151810668
 30
0.0
 10
71.36484211091245
 20
-31.66021151810668
 30
0.0
 10
71.36484211091245
 20
-31.66021151810668
 30
0.0
 10
68.81073444553728
 20
-31.66021151810668
 30
0.0
 10
68.81073444553728
 20
-31.66021151810668
 30
0.0
 10
67.40014009910173
 20
-31.66021151810668
 30
0.0
 10
66.25662678015826
 20
-32.80381096443536
 30
0.0
 10
66.25662678015826
 20
-34.21440531087091
 30
0.0
 10
66.25662678015826
 20
-34.21440531087091
 30
0.0
 10
66.25662678015826
 20
-58.33937546542995
 30
0.0
 10
66.25662678015826
 20
-58.33937546542995
 30
0.0
 10
66.25662678015826
 20
-59.74996981186549
 30
0.0
 10
67.40014009910173
 20
-60.89356925819418
 30
0.0
 10
68.81073444553728
 20
-60.89356925819418
 30
0.0
 10
70.22132879197282
 20
-60.89356925819418
 30
0.0
 10
71.36484211091245
 20
-59.74996981186549
 30
0.0
 10
71.36484211091245
 20
-58.33937546542995
 30
0.0
 10
71.36484211091245
 20
-58.33937546542995
 30
0.0
 10
71.36484211091245
 20
-49.17404343647128
 30
0.0
 10
71.36484211091245
 20
-49.17404343647128
 30
0.0
 10
71.36484211091245
 20
-49.17404343647128
 30
0.0
 10
74.36483125946802
 20
-49.17404343647128
 30
0.0
 10
74.36483125946802
 20
-49.17404343647128
 30
0.0
 10
74.36483125946802
 20
-49.17404343647128
 30
0.0
 10
74.36483125946802
 20
-88.54442238713216
 30
0.0
 10
74.36483125946802
 20
-88.54442238713216
 30
0.0
 10
74.36483125946802
 20
-88.54442238713216
 30
0.0
 10
180.2537167310446
 20
-88.54442238713216
 30
0.0
 10
180.2537167310446
 20
-88.54442238713216
 30
0.0
 10
180.2537167310446
 20
-88.54442238713216
 30
0.0
 10
180.2537167310446
 20
-49.17404343647128
 30
0.0
 10
180.2537167310446
 20
-49.17404343647128
 30
0.0
 10
180.2537167310446
 20
-49.17404343647128
 30
0.0
 10
183.2537058796001
 20
-49.17404343647128
 30
0.0
 10
183.2537058796001
 20
-49.17404343647128
 30
0.0
 10
183.2537058796001
 20
-49.17404343647128
 30
0.0
 10
183.2537058796001
 20
-58.33937546542995
 30
0.0
 10
183.2537058796001
 20
-58.33937546542995
 30
0.0
 10
183.2537058796001
 20
-59.74996981186549
 30
0.0
 10
184.3972191985398
 20
-60.89356925819418
 30
0.0
 10
185.8078135449753
 20
-60.89356925819418
 30
0.0
 10
187.2184078914109
 20
-60.89356925819418
 30
0.0
 10
188.3619212103544
 20
-59.74996981186549
 30
0.0
 10
188.3619212103544
 20
-58.33937546542995
 30
0.0
 10
188.3619212103544
 20
-58.33937546542995
 30
0.0
 10
188.3619212103544
 20
-34.21440531087091
 30
0.0
 10
188.3619212103544
 20
-34.21440531087091
 30
0.0
 10
188.3619212103544
 20
-32.80381096443536
 30
0.0
 10
187.2184078914109
 20
-31.66021151810668
 30
0.0
 10
185.8078135449753
 20
-31.66021151810668
 30
0.0
 10
185.8078135449753
 20
-31.66021151810668
 30
0.0
 10
183.2537058796001
 20
-31.66021151810668
 30
0.0
 10
183.2537058796001
 20
-31.66021151810668
 30
0.0
 10
183.2537058796001
 20
-31.66021151810668
 30
0.0
 10
180.2537167310446
 20
-31.66021151810668
 30
0.0
 10
180.2537167310446
 20
-31.66021151810668
 30
0.0
 10
180.2537167310446
 20
-31.66021151810668
 30
0.0
 10
180.2537167310446
 20
6.69627583124517
 30
0.0
 10
180.2537167310446
 20
6.69627583124517
 30
0.0
  0
POLYLINE
  5
160
330
1F
100
AcDbEntity
  8
LAYER_1
 62
     1
100
AcDb2dPolyline
 66
     1
 10
0.0
 20
0.0
 30
0.0
  0
VERTEX
  5
161
330
160
100
AcDbEntity
  8
LAYER_1
 62
     1
100
AcDbVertex
100
AcDb2dVertex
 10
125.2390730544752
 20
-61.10085634717294
 30
0.0
  0
VERTEX
  5
162
330
160
100
AcDbEntity
  8
LAYER_1
 62
     1
100
AcDbVertex
100
AcDb2dVertex
 10
108.8376624682977
 20
-61.10085634717294
 30
0.0
  0
VERTEX
  5
163
330
160
100
AcDbEntity
  8
LAYER_1
 62
     1
100
AcDbVertex
100
AcDb2dVertex
 10
108.8376624682977
 20
-44.69944576099552
 30
0.0
  0
VERTEX
  5
164
330
160
100
AcDbEntity
  8
LAYER_1
 62
     1
100
AcDbVertex
100
AcDb2dVertex
 10
125.2390730544752
 20
-44.69944576099552
 30
0.0
  0
VERTEX
  5
165
330
160
100
AcDbEntity
  8
LAYER_1
 62
     1
100
AcDbVertex
100
AcDb2dVertex
 10
125.2390730544752
 20
-61.10085634717294
 30
0.0
  0
SEQEND
  5
166
330
160
100
AcDbEntity
  8
LAYER_1
 62
     1
  0
POLYLINE
  5
167
330
1F
100
AcDbEntity
  8
LAYER_1
 62
     1
100
AcDb2dPolyline
 66
     1
 10
0.0
 20
0.0
 30
0.0
  0
VERTEX
  5
168
330
167
100
AcDbEntity
  8
LAYER_1
 62
     1
100
AcDbVertex
100
AcDb2dVertex
 10
125.2390730544752
 20
-40.53845943391077
 30
0.0
  0
VERTEX
  5
169
330
167
100
AcDbEntity
  8
LAYER_1
 62
     1
100
AcDbVertex
100
AcDb2dVertex
 10
108.8376624682977
 20
-40.53845943391077
 30
0.0
  0
VERTEX
  5
16A
330
167
100
AcDbEntity
  8
LAYER_1
 62
     1
100
AcDbVertex
100
AcDb2dVertex
 10
108.8376624682977
 20
-24.13704884773334
 30
0.0
  0
VERTEX
  5
16B
330
167
100
AcDbEntity
  8
LAYER_1
 62
     1
100
AcDbVertex
100
AcDb2dVertex
 10
125.2390730544752
 20
-24.13704884773334
 30
0.0
  0
VERTEX
  5
16C
330
167
100
AcDbEntity
  8
LAYER_1
 62
     1
100
AcDbVertex
100
AcDb2dVertex
 10
125.2390730544752
 20
-40.53845943391077
 30
0.0
  0
SEQEND
  5
16D
330
167
100
AcDbEntity
  8
LAYER_1
 62
     1
  0
POLYLINE
  5
16E
330
1F
100
AcDbEntity
  8
LAYER_1
 62
     1
100
AcDb2dPolyline
 66
     1
 10
0.0
 20
0.0
 30
0.0
  0
VERTEX
  5
16F
330
16E
100
AcDbEntity
  8
LAYER_1
 62
     1
100
AcDbVertex
100
AcDb2dVertex
 10
145.8016422225116
 20
-61.10085634717294
 30
0.0
  0
VERTEX
  5
170
330
16E
100
AcDbEntity
  8
LAYER_1
 62
     1
100
AcDbVertex
100
AcDb2dVertex
 10
129.400145508949
 20
-61.10085634717294
 30
0.0
  0
VERTEX
  5
171
330
16E
100
AcDbEntity
  8
LAYER_1
 62
     1
100
AcDbVertex
100
AcDb2dVertex
 10
129.400145508949
 20
-44.69944576099552
 30
0.0
  0
VERTEX
  5
172
330
16E
100
AcDbEntity
  8
LAYER_1
 62
     1
100
AcDbVertex
100
AcDb2dVertex
 10
145.8016422225116
 20
-44.69944576099552
 30
0.0
  0
VERTEX
  5
173
330
16E
100
AcDbEntity
  8
LAYER_1
 62
     1
100
AcDbVertex
100
AcDb2dVertex
 10
145.8016422225116
 20
-61.10085634717294
 30
0.0
  0
SEQEND
  5
174
330
16E
100
AcDbEntity
  8
LAYER_1
 62
     1
  0
POLYLINE
  5
175
330
1F
100
AcDbEntity
  8
LAYER_1
 62
     1
100
AcDb2dPolyline
 66
     1
 10
0.0
 20
0.0
 30
0.0
  0
VERTEX
  5
176
330
175
100
AcDbEntity
  8
LAYER_1
 62
     1
100
AcDbVertex
100
AcDb2dVertex
 10
145.8016422225116
 20
-40.53845943391077
 30
0.0
  0
VERTEX
  5
177
330
175
100
AcDbEntity
  8
LAYER_1
 62
     1
100
AcDbVertex
100
AcDb2dVertex
 10
129.400145508949
 20
-40.53845943391077
 30
0.0
  0
VERTEX
  5
178
330
175
100
AcDbEntity
  8
LAYER_1
 62
     1
100
AcDbVertex
100
AcDb2dVertex
 10
129.400145508949
 20
-24.13704884773334
 30
0.0
  0
VERTEX
  5
179
330
175
100
AcDbEntity
  8
LAYER_1
 62
     1
100
AcDbVertex
100
AcDb2dVertex
 10
145.8016422225116
 20
-24.13704884773334
 30
0.0
  0
VERTEX
  5
17A
330
175
100
AcDbEntity
  8
LAYER_1
 62
     1
100
AcDbVertex
100
AcDb2dVertex
 10
145.8016422225116
 20
-40.53845943391077
 30
0.0
  0
SEQEND
  5
17B
330
175
100
AcDbEntity
  8
LAYER_1
 62
     1
  0
POLYLINE
  5
17C
330
1F
100
AcDbEntity
  8
LAYER_1
 62
     1
100
AcDb2dPolyline
 66
     1
 10
0.0
 20
0.0
 30
0.0
  0
VERTEX
  5
17D
330
17C
100
AcDbEntity
  8
LAYER_1
 62
     1
100
AcDbVertex
100
AcDb2dVertex
 10
8.134790927126115
 20
-109.9280930562175
 30
0.0
  0
VERTEX
  5
17E
330
17C
100
AcDbEntity
  8
LAYER_1
 62
     1
100
AcDbVertex
100
AcDb2dVertex
 10
5.134801778570556
 20
-109.9280930562175
 30
0.0
  0
VERTEX
  5
17F
330
17C
100
AcDbEntity
  8
LAYER_1
 62
     1
100
AcDbVertex
100
AcDb2dVertex
 10
-54.32814918855284
 20
-171.1198790652251
 30
0.0
  0
VERTEX
  5
180
330
17C
100
AcDbEntity
  8
LAYER_1
 62
     1
100
AcDbVertex
100
AcDb2dVertex
 10
-54.32814918855284
 20
-176.344021859058
 30
0.0
  0
VERTEX
  5
181
330
17C
100
AcDbEntity
  8
LAYER_1
 62
     1
100
AcDbVertex
100
AcDb2dVertex
 10
-49.83746722352968
 20
-176.344021859058
 30
0.0
  0
VERTEX
  5
182
330
17C
100
AcDbEntity
  8
LAYER_1
 62
     1
100
AcDbVertex
100
AcDb2dVertex
 10
-49.83738109614126
 20
-176.344021859058
 30
0.0
  0
VERTEX
  5
183
330
17C
100
AcDbEntity
  8
LAYER_1
 62
     1
100
AcDbVertex
100
AcDb2dVertex
 10
-49.83738109614126
 20
-271.649487872558
 30
0.0
  0
VERTEX
  5
184
330
17C
100
AcDbEntity
  8
LAYER_1
 62
     1
100
AcDbVertex
100
AcDb2dVertex
 10
-14.47597363427977
 20
-271.649487872558
 30
0.0
  0
VERTEX
  5
185
330
17C
100
AcDbEntity
  8
LAYER_1
 62
     1
100
AcDbVertex
100
AcDb2dVertex
 10
26.63572882940064
 20
-271.649487872558
 30
0.0
  0
VERTEX
  5
186
330
17C
100
AcDbEntity
  8
LAYER_1
 62
     1
100
AcDbVertex
100
AcDb2dVertex
 10
63.10697380183793
 20
-271.649487872558
 30
0.0
  0
VERTEX
  5
187
330
17C
100
AcDbEntity
  8
LAYER_1
 62
     1
100
AcDbVertex
100
AcDb2dVertex
 10
63.10697380183793
 20
-176.344021859058
 30
0.0
  0
VERTEX
  5
188
330
17C
100
AcDbEntity
  8
LAYER_1
 62
     1
100
AcDbVertex
100
AcDb2dVertex
 10
67.79574875726296
 20
-176.344021859058
 30
0.0
  0
VERTEX
  5
189
330
17C
100
AcDbEntity
  8
LAYER_1
 62
     1
100
AcDbVertex
100
AcDb2dVertex
 10
67.79574875726296
 20
-171.3233765491695
 30
0.0
  0
VERTEX
  5
18A
330
17C
100
AcDbEntity
  8
LAYER_1
 62
     1
100
AcDbVertex
100
AcDb2dVertex
 10
8.134790927126115
 20
-109.9280930562175
 30
0.0
  0
SEQEND
  5
18B
330
17C
100
AcDbEntity
  8
LAYER_1
 62
     1
  0
POLYLINE
  5
18C
330
1F
100
AcDbEntity
  8
LAYER_1
 62
     1
100
AcDb2dPolyline
 66
     1
 10
0.0
 20
0.0
 30
0.0
  0
VERTEX
  5
18D
330
18C
100
AcDbEntity
  8
LAYER_1
 62
     1
100
AcDbVertex
100
AcDb2dVertex
 10
-42.88078591016468
 20
-232.2897887179014
 30
0.0
  0
VERTEX
  5
18E
330
18C
100
AcDbEntity
  8
LAYER_1
 62
     1
100
AcDbVertex
100
AcDb2dVertex
 10
-45.88077505872024
 20
-232.2897887179014
 30
0.0
  0
VERTEX
  5
18F
330
18C
100
AcDbEntity
  8
LAYER_1
 62
     1
100
AcDbVertex
100
AcDb2dVertex
 10
-45.88077505872024
 20
-203.1487595368186
 30
0.0
  0
VERTEX
  5
190
330
18C
100
AcDbEntity
  8
LAYER_1
 62
     1
100
AcDbVertex
100
AcDb2dVertex
 10
-42.88078591016468
 20
-203.1487595368186
 30
0.0
  0
VERTEX
  5
191
330
18C
100
AcDbEntity
  8
LAYER_1
 62
     1
100
AcDbVertex
100
AcDb2dVertex
 10
-42.88078591016468
 20
-232.2897887179014
 30
0.0
  0
SEQEND
  5
192
330
18C
100
AcDbEntity
  8
LAYER_1
 62
     1
  0
POLYLINE
  5
193
330
1F
100
AcDbEntity
  8
LAYER_1
 62
     1
100
AcDb2dPolyline
 66
     1
 10
0.0
 20
0.0
 30
0.0
  0
VERTEX
  5
194
330
193
100
AcDbEntity
  8
LAYER_1
 62
     1
100
AcDbVertex
100
AcDb2dVertex
 10
-0.7662161507280424
 20
-127.5668958133096
 30
0.0
  0
VERTEX
  5
195
330
193
100
AcDbEntity
  8
LAYER_1
 62
     1
100
AcDbVertex
100
AcDb2dVertex
 10
14.23372959204975
 20
-127.5668958133096
 30
0.0
  0
VERTEX
  5
196
330
193
100
AcDbEntity
  8
LAYER_1
 62
     1
100
AcDbVertex
100
AcDb2dVertex
 10
14.23372959204975
 20
-130.5668849618651
 30
0.0
  0
VERTEX
  5
197
330
193
100
AcDbEntity
  8
LAYER_1
 62
     1
100
AcDbVertex
100
AcDb2dVertex
 10
-0.7662161507280424
 20
-130.5668849618651
 30
0.0
  0
VERTEX
  5
198
330
193
100
AcDbEntity
  8
LAYER_1
 62
     1
100
AcDbVertex
100
AcDb2dVertex
 10
-0.7662161507280424
 20
-127.5668958133096
 30
0.0
  0
SEQEND
  5
199
330
193
100
AcDbEntity
  8
LAYER_1
 62
     1
  0
POLYLINE
  5
19A
330
1F
100
AcDbEntity
  8
LAYER_1
 62
     1
100
AcDb2dPolyline
 66
     1
 10
0.0
 20
0.0
 30
0.0
  0
VERTEX
  5
19B
330
19A
100
AcDbEntity
  8
LAYER_1
 62
     1
100
AcDbVertex
100
AcDb2dVertex
 10
4.653177429732629
 20
-244.8831414776112
 30
0.0
  0
VERTEX
  5
19C
330
19A
100
AcDbEntity
  8
LAYER_1
 62
     1
100
AcDbVertex
100
AcDb2dVertex
 10
-11.7482331564448
 20
-244.8831414776112
 30
0.0
  0
VERTEX
  5
19D
330
19A
100
AcDbEntity
  8
LAYER_1
 62
     1
100
AcDbVertex
100
AcDb2dVertex
 10
-11.7482331564448
 20
-228.4817308914337
 30
0.0
  0
VERTEX
  5
19E
330
19A
100
AcDbEntity
  8
LAYER_1
 62
     1
100
AcDbVertex
100
AcDb2dVertex
 10
4.653177429732629
 20
-228.4817308914337
 30
0.0
  0
VERTEX
  5
19F
330
19A
100
AcDbEntity
  8
LAYER_1
 62
     1
100
AcDbVertex
100
AcDb2dVertex
 10
4.653177429732629
 20
-244.8831414776112
 30
0.0
  0
SEQEND
  5
1A0
330
19A
100
AcDbEntity
  8
LAYER_1
 62
     1
  0
POLYLINE
  5
1A1
330
1F
100
AcDbEntity
  8
LAYER_1
 62
     1
100
AcDb2dPolyline
 66
     1
 10
0.0
 20
0.0
 30
0.0
  0
VERTEX
  5
1A2
330
1A1
100
AcDbEntity
  8
LAYER_1
 62
     1
100
AcDbVertex
100
AcDb2dVertex
 10
4.653177429732629
 20
-224.320744564349
 30
0.0
  0
VERTEX
  5
1A3
330
1A1
100
AcDbEntity
  8
LAYER_1
 62
     1
100
AcDbVertex
100
AcDb2dVertex
 10
-11.7482331564448
 20
-224.320744564349
 30
0.0
  0
VERTEX
  5
1A4
330
1A1
100
AcDbEntity
  8
LAYER_1
 62
     1
100
AcDbVertex
100
AcDb2dVertex
 10
-11.7482331564448
 20
-207.9193339781716
 30
0.0
  0
VERTEX
  5
1A5
330
1A1
100
AcDbEntity
  8
LAYER_1
 62
     1
100
AcDbVertex
100
AcDb2dVertex
 10
4.653177429732629
 20
-207.9193339781716
 30
0.0
  0
VERTEX
  5
1A6
330
1A1
100
AcDbEntity
  8
LAYER_1
 62
     1
100
AcDbVertex
100
AcDb2dVertex
 10
4.653177429732629
 20
-224.320744564349
 30
0.0
  0
SEQEND
  5
1A7
330
1A1
100
AcDbEntity
  8
LAYER_1
 62
     1
  0
POLYLINE
  5
1A8
330
1F
100
AcDbEntity
  8
LAYER_1
 62
     1
100
AcDb2dPolyline
 66
     1
 10
0.0
 20
0.0
 30
0.0
  0
VERTEX
  5
1A9
330
1A8
100
AcDbEntity
  8
LAYER_1
 62
     1
100
AcDbVertex
100
AcDb2dVertex
 10
25.21574659776907
 20
-244.8831414776112
 30
0.0
  0
VERTEX
  5
1AA
330
1A8
100
AcDbEntity
  8
LAYER_1
 62
     1
100
AcDbVertex
100
AcDb2dVertex
 10
8.81424988420323
 20
-244.8831414776112
 30
0.0
  0
VERTEX
  5
1AB
330
1A8
100
AcDbEntity
  8
LAYER_1
 62
     1
100
AcDbVertex
100
AcDb2dVertex
 10
8.81424988420323
 20
-228.4817308914337
 30
0.0
  0
VERTEX
  5
1AC
330
1A8
100
AcDbEntity
  8
LAYER_1
 62
     1
100
AcDbVertex
100
AcDb2dVertex
 10
25.21574659776907
 20
-228.4817308914337
 30
0.0
  0
VERTEX
  5
1AD
330
1A8
100
AcDbEntity
  8
LAYER_1
 62
     1
100
AcDbVertex
100
AcDb2dVertex
 10
25.21574659776907
 20
-244.8831414776112
 30
0.0
  0
SEQEND
  5
1AE
330
1A8
100
AcDbEntity
  8
LAYER_1
 62
     1
  0
POLYLINE
  5
1AF
330
1F
100
AcDbEntity
  8
LAYER_1
 62
     1
100
AcDb2dPolyline
 66
     1
 10
0.0
 20
0.0
 30
0.0
  0
VERTEX
  5
1B0
330
1AF
100
AcDbEntity
  8
LAYER_1
 62
     1
100
AcDbVertex
100
AcDb2dVertex
 10
25.21574659776907
 20
-224.320744564349
 30
0.0
  0
VERTEX
  5
1B1
330
1AF
100
AcDbEntity
  8
LAYER_1
 62
     1
100
AcDbVertex
100
AcDb2dVertex
 10
8.81424988420323
 20
-224.320744564349
 30
0.0
  0
VERTEX
  5
1B2
330
1AF
100
AcDbEntity
  8
LAYER_1
 62
     1
100
AcDbVertex
100
AcDb2dVertex
 10
8.81424988420323
 20
-207.9193339781716
 30
0.0
  0
VERTEX
  5
1B3
330
1AF
100
AcDbEntity
  8
LAYER_1
 62
     1
100
AcDbVertex
100
AcDb2dVertex
 10
25.21574659776907
 20
-207.9193339781716
 30
0.0
  0
VERTEX
  5
1B4
330
1AF
100
AcDbEntity
  8
LAYER_1
 62
     1
100
AcDbVertex
100
AcDb2dVertex
 10
25.21574659776907
 20
-224.320744564349
 30
0.0
  0
SEQEND
  5
1B5
330
1AF
100
AcDbEntity
  8
LAYER_1
 62
     1
  0
POLYLINE
  5
1B6
330
1F
100
AcDbEntity
  8
LAYER_1
 62
     1
100
AcDb2dPolyline
 66
     1
 10
0.0
 20
0.0
 30
0.0
  0
VERTEX
  5
1B7
330
1B6
100
AcDbEntity
  8
LAYER_1
 62
     1
100
AcDbVertex
100
AcDb2dVertex
 10
59.15028163702849
 20
-232.2897887179014
 30
0.0
  0
VERTEX
  5
1B8
330
1B6
100
AcDbEntity
  8
LAYER_1
 62
     1
100
AcDbVertex
100
AcDb2dVertex
 10
56.15029248847294
 20
-232.2897887179014
 30
0.0
  0
VERTEX
  5
1B9
330
1B6
100
AcDbEntity
  8
LAYER_1
 62
     1
100
AcDbVertex
100
AcDb2dVertex
 10
56.15029248847294
 20
-203.1487595368186
 30
0.0
  0
VERTEX
  5
1BA
330
1B6
100
AcDbEntity
  8
LAYER_1
 62
     1
100
AcDbVertex
100
AcDb2dVertex
 10
59.15028163702849
 20
-203.1487595368186
 30
0.0
  0
VERTEX
  5
1BB
330
1B6
100
AcDbEntity
  8
LAYER_1
 62
     1
100
AcDbVertex
100
AcDb2dVertex
 10
59.15028163702849
 20
-232.2897887179014
 30
0.0
  0
SEQEND
  5
1BC
330
1B6
100
AcDbEntity
  8
LAYER_1
 62
     1
  0
SPLINE
  5
1BD
330
1F
100
AcDbEntity
  8
LAYER_1
 62
   140
100
AcDbSpline
210
0.0
220
0.0
230
1.0
 70
    11
 71
     3
 72
    35
 73
    31
 74
     0
 42
0.0000000001
 43
0.0000000001
 12
1.0
 22
0.0
 32
0.0
 13
1.0
 23
0.0
 33
0.0
 40
0.0
 40
0.0
 40
0.0
 40
0.0
 40
1.0
 40
1.0
 40
1.0
 40
2.0
 40
2.0
 40
2.0
 40
3.0
 40
3.0
 40
3.0
 40
4.0
 40
4.0
 40
4.0
 40
5.0
 40
5.0
 40
5.0
 40
6.0
 40
6.0
 40
6.0
 40
7.0
 40
7.0
 40
7.0
 40
8.0
 40
8.0
 40
8.0
 40
9.0
 40
9.0
 40
9.0
 40
10.0
 40
10.0
 40
10.0
 40
10.0
 10
3.733901232114143
 20
-64.2924634560813
 30
0.0
 10
2.837229004685608
 20
-63.85732636444745
 30
0.0
 10
2.067077908958007
 20
-63.23791972804631
 30
0.0
 10
1.444893664321886
 20
-62.45174893831231
 30
0.0
 10
-0.8190508338100446
 20
-59.59139381614328
 30
0.0
 10
-0.3339813894868675
 20
-55.42263449236993
 30
0.0
 10
2.526136882367548
 20
-53.15873305793156
 30
0.0
 10
4.502415907481117
 20
-51.59487502609597
 30
0.0
 10
7.247898627068977
 20
-51.29592686536341
 30
0.0
 10
9.522092284264392
 20
-52.39659180920717
 30
0.0
 10
9.522092284264392
 20
-52.39659180920717
 30
0.0
 10
11.66752549770373
 20
-47.97778314874503
 30
0.0
 10
11.66752549770373
 20
-47.97778314874503
 30
0.0
 10
7.704029269316056
 20
-46.06054444750993
 30
0.0
 10
2.921289334525704
 20
-46.58178739442823
 30
0.0
 10
-0.5220836029815086
 20
-49.30720243280938
 30
0.0
 10
-5.506103241492449
 20
-53.25170757233975
 30
0.0
 10
-6.352046437895546
 20
-60.51655267686034
 30
0.0
 10
-2.406895342961695
 20
-65.50067997460519
 30
0.0
 10
-1.323068303302096
 20
-66.87021308922591
 30
0.0
 10
0.0190547703692432
 20
-67.94926005889974
 30
0.0
 10
1.581836209860567
 20
-68.70797774398567
 30
0.0
 10
1.587951254352019
 20
-68.71094913884168
 30
0.0
 10
1.594066298833204
 20
-68.71359755599597
 30
0.0
 10
1.600353598098919
 20
-68.71671967377948
 30
0.0
 10
1.600353598098919
 20
-68.71671967377948
 30
0.0
 10
3.74501166504894
 20
-64.2975880356156
 30
0.0
 10
3.74501166504894
 20
-64.2975880356156
 30
0.0
 10
3.74156656956369
 20
-64.29593008341332
 30
0.0
 10
3.737604709755653
 20
-64.29427213121105
 30
0.0
 10
3.733901232114143
 20
-64.2924634560813
 30
0.0
  0
SPLINE
  5
1BE
330
1F
100
AcDbEntity
  8
LAYER_1
 62
   112
100
AcDbSpline
210
0.0
220
0.0
230
1.0
 70
    11
 71
     3
 72
    38
 73
    34
 74
     0
 42
0.0000000001
 43
0.0000000001
 12
1.0
 22
0.0
 32
0.0
 13
1.0
 23
0.0
 33
0.0
 40
0.0
 40
0.0
 40
0.0
 40
0.0
 40
1.0
 40
1.0
 40
1.0
 40
2.0
 40
2.0
 40
2.0
 40
3.0
 40
3.0
 40
3.0
 40
4.0
 40
4.0
 40
4.0
 40
5.0
 40
5.0
 40
5.0
 40
6.0
 40
6.0
 40
6.0
 40
7.0
 40
7.0
 40
7.0
 40
8.0
 40
8.0
 40
8.0
 40
9.0
 40
9.0
 40
9.0
 40
10.0
 40
10.0
 40
10.0
 40
11.0
 40
11.0
 40
11.0
 40
11.0
 10
11.68199489874178
 20
-47.98450108494127
 30
0.0
 10
11.67734401983669
 20
-47.98226177287586
 30
0.0
 10
11.67217637660882
 20
-47.98010858819757
 30
0.0
 10
11.66752549770373
 20
-47.97778314874503
 30
0.0
 10
11.66752549770373
 20
-47.97778314874503
 30
0.0
 10
9.522092284264392
 20
-52.39659180920717
 30
0.0
 10
9.522092284264392
 20
-52.39659180920717
 30
0.0
 10
9.524762233270595
 20
-52.39760380600596
 30
0.0
 10
9.52786281920732
 20
-52.39865886649832
 30
0.0
 10
9.530360513428992
 20
-52.40016609577312
 30
0.0
 10
10.42729112301379
 20
-52.83545391033444
 30
0.0
 10
11.19718383658513
 20
-53.45468829196131
 30
0.0
 10
11.81945420860325
 20
-54.24029925367897
 30
0.0
 10
14.08339870673518
 20
-57.1008912261626
 30
0.0
 10
13.59798475286347
 20
-61.2699735276377
 30
0.0
 10
10.73812486317559
 20
-63.53374577099537
 30
0.0
 10
8.762362602384805
 20
-65.0971731658953
 30
0.0
 10
6.018860812706097
 20
-65.39612132662786
 30
0.0
 10
3.74501166504894
 20
-64.2975880356156
 30
0.0
 10
3.74501166504894
 20
-64.2975880356156
 30
0.0
 10
1.600353598098919
 20
-68.71671967377948
 30
0.0
 10
1.600353598098919
 20
-68.71671967377948
 30
0.0
 10
5.562730170459019
 20
-70.63139608524743
 30
0.0
 10
10.34348917534022
 20
-70.1099378198613
 30
0.0
 10
13.78643147590664
 20
-67.38540558719825
 30
0.0
 10
16.19687865955396
 20
-65.47718872976515
 30
0.0
 10
17.72081664745422
 20
-62.74059866290372
 30
0.0
 10
18.07729790278531
 20
-59.67825328606514
 30
0.0
 10
18.43317626641162
 20
-56.61638160985578
 30
0.0
 10
17.57913709561819
 20
-53.6030211844481
 30
0.0
 10
15.67107096111256
 20
-51.19201417278956
 30
0.0
 10
14.58681328452244
 20
-49.82256718555597
 30
0.0
 10
13.24460408346911
 20
-48.74330489741433
 30
0.0
 10
11.68199489874178
 20
-47.98450108494127
 30
0.0
  0
POLYLINE
  5
1BF
330
1F
100
AcDbEntity
  8
LAYER_1
 62
    40
100
AcDb2dPolyline
 66
     1
 10
0.0
 20
0.0
 30
0.0
  0
VERTEX
  5
1C0
330
1BF
100
AcDbEntity
  8
LAYER_1
 62
    40
100
AcDbVertex
100
AcDb2dVertex
 10
-46.30391018402955
 20
-29.64650883953245
 30
0.0
  0
VERTEX
  5
1C1
330
1BF
100
AcDbEntity
  8
LAYER_1
 62
    40
100
AcDbVertex
100
AcDb2dVertex
 10
-48.06779902791789
 20
-31.41039772798037
 30
0.0
  0
SEQEND
  5
1C2
330
1BF
100
AcDbEntity
  8
LAYER_1
 62
    40
  0
POLYLINE
  5
1C3
330
1F
100
AcDbEntity
  8
LAYER_1
 62
    40
100
AcDb2dPolyline
 66
     1
 10
0.0
 20
0.0
 30
0.0
  0
VERTEX
  5
1C4
330
1C3
100
AcDbEntity
  8
LAYER_1
 62
    40
100
AcDbVertex
100
AcDb2dVertex
 10
-45.85845769539463
 20
-31.41039772798037
 30
0.0
  0
VERTEX
  5
1C5
330
1C3
100
AcDbEntity
  8
LAYER_1
 62
    40
100
AcDbVertex
100
AcDb2dVertex
 10
-44.09456885150309
 20
-29.64650883953245
 30
0.0
  0
SEQEND
  5
1C6
330
1C3
100
AcDbEntity
  8
LAYER_1
 62
    40
  0
POLYLINE
  5
1C7
330
1F
100
AcDbEntity
  8
LAYER_1
 62
    40
100
AcDb2dPolyline
 66
     1
 10
0.0
 20
0.0
 30
0.0
  0
VERTEX
  5
1C8
330
1C7
100
AcDbEntity
  8
LAYER_1
 62
    40
100
AcDbVertex
100
AcDb2dVertex
 10
-43.64876358510003
 20
-31.41039772798037
 30
0.0
  0
VERTEX
  5
1C9
330
1C7
100
AcDbEntity
  8
LAYER_1
 62
    40
100
AcDbVertex
100
AcDb2dVertex
 10
-41.8848747412117
 20
-29.64650883953245
 30
0.0
  0
SEQEND
  5
1CA
330
1C7
100
AcDbEntity
  8
LAYER_1
 62
    40
  0
POLYLINE
  5
1CB
330
1F
100
AcDbEntity
  8
LAYER_1
 62
    40
100
AcDb2dPolyline
 66
     1
 10
0.0
 20
0.0
 30
0.0
  0
VERTEX
  5
1CC
330
1CB
100
AcDbEntity
  8
LAYER_1
 62
    40
100
AcDbVertex
100
AcDb2dVertex
 10
-41.43875197481675
 20
-31.41039772798037
 30
0.0
  0
VERTEX
  5
1CD
330
1CB
100
AcDbEntity
  8
LAYER_1
 62
    40
100
AcDbVertex
100
AcDb2dVertex
 10
-39.67486313092456
 20
-29.64650883953245
 30
0.0
  0
SEQEND
  5
1CE
330
1CB
100
AcDbEntity
  8
LAYER_1
 62
    40
  0
POLYLINE
  5
1CF
330
1F
100
AcDbEntity
  8
LAYER_1
 62
    40
100
AcDb2dPolyline
 66
     1
 10
0.0
 20
0.0
 30
0.0
  0
VERTEX
  5
1D0
330
1CF
100
AcDbEntity
  8
LAYER_1
 62
    40
100
AcDbVertex
100
AcDb2dVertex
 10
-39.22941064229028
 20
-31.41039772798037
 30
0.0
  0
VERTEX
  5
1D1
330
1CF
100
AcDbEntity
  8
LAYER_1
 62
    40
100
AcDbVertex
100
AcDb2dVertex
 10
-37.46552179840452
 20
-29.64650883953245
 30
0.0
  0
SEQEND
  5
1D2
330
1CF
100
AcDbEntity
  8
LAYER_1
 62
    40
  0
POLYLINE
  5
1D3
330
1F
100
AcDbEntity
  8
LAYER_1
 62
    40
100
AcDb2dPolyline
 66
     1
 10
0.0
 20
0.0
 30
0.0
  0
VERTEX
  5
1D4
330
1D3
100
AcDbEntity
  8
LAYER_1
 62
    40
100
AcDbVertex
100
AcDb2dVertex
 10
-35.25582768811441
 20
-29.64650883953245
 30
0.0
  0
VERTEX
  5
1D5
330
1D3
100
AcDbEntity
  8
LAYER_1
 62
    40
100
AcDbVertex
100
AcDb2dVertex
 10
-37.0197165319989
 20
-31.41039772798037
 30
0.0
  0
SEQEND
  5
1D6
330
1D3
100
AcDbEntity
  8
LAYER_1
 62
    40
  0
POLYLINE
  5
1D7
330
1F
100
AcDbEntity
  8
LAYER_1
 62
    40
100
AcDb2dPolyline
 66
     1
 10
0.0
 20
0.0
 30
0.0
  0
VERTEX
  5
1D8
330
1D7
100
AcDbEntity
  8
LAYER_1
 62
    40
100
AcDbVertex
100
AcDb2dVertex
 10
-34.81002242170879
 20
-31.41039772798037
 30
0.0
  0
VERTEX
  5
1D9
330
1D7
100
AcDbEntity
  8
LAYER_1
 62
    40
100
AcDbVertex
100
AcDb2dVertex
 10
-33.04613357781981
 20
-29.64650883953245
 30
0.0
  0
SEQEND
  5
1DA
330
1D7
100
AcDbEntity
  8
LAYER_1
 62
    40
  0
POLYLINE
  5
1DB
330
1F
100
AcDbEntity
  8
LAYER_1
 62
    40
100
AcDb2dPolyline
 66
     1
 10
0.0
 20
0.0
 30
0.0
  0
VERTEX
  5
1DC
330
1DB
100
AcDbEntity
  8
LAYER_1
 62
    40
100
AcDbVertex
100
AcDb2dVertex
 10
-32.60001081142485
 20
-31.41039772798037
 30
0.0
  0
VERTEX
  5
1DD
330
1DB
100
AcDbEntity
  8
LAYER_1
 62
    40
100
AcDbVertex
100
AcDb2dVertex
 10
-30.83612196753267
 20
-29.64650883953245
 30
0.0
  0
SEQEND
  5
1DE
330
1DB
100
AcDbEntity
  8
LAYER_1
 62
    40
  0
POLYLINE
  5
1DF
330
1F
100
AcDbEntity
  8
LAYER_1
 62
    40
100
AcDb2dPolyline
 66
     1
 10
0.0
 20
0.0
 30
0.0
  0
VERTEX
  5
1E0
330
1DF
100
AcDbEntity
  8
LAYER_1
 62
    40
100
AcDbVertex
100
AcDb2dVertex
 10
-30.39031670113026
 20
-31.41039772798037
 30
0.0
  0
VERTEX
  5
1E1
330
1DF
100
AcDbEntity
  8
LAYER_1
 62
    40
100
AcDbVertex
100
AcDb2dVertex
 10
-28.62642785724192
 20
-29.64650883953245
 30
0.0
  0
SEQEND
  5
1E2
330
1DF
100
AcDbEntity
  8
LAYER_1
 62
    40
  0
POLYLINE
  5
1E3
330
1F
100
AcDbEntity
  8
LAYER_1
 62
    40
100
AcDb2dPolyline
 66
     1
 10
0.0
 20
0.0
 30
0.0
  0
VERTEX
  5
1E4
330
1E3
100
AcDbEntity
  8
LAYER_1
 62
    40
100
AcDbVertex
100
AcDb2dVertex
 10
-28.180975368607
 20
-31.41039772798037
 30
0.0
  0
VERTEX
  5
1E5
330
1E3
100
AcDbEntity
  8
LAYER_1
 62
    40
100
AcDbVertex
100
AcDb2dVertex
 10
-26.41708652471546
 20
-29.64650883953245
 30
0.0
  0
SEQEND
  5
1E6
330
1E3
100
AcDbEntity
  8
LAYER_1
 62
    40
  0
POLYLINE
  5
1E7
330
1F
100
AcDbEntity
  8
LAYER_1
 62
    40
100
AcDb2dPolyline
 66
     1
 10
0.0
 20
0.0
 30
0.0
  0
VERTEX
  5
1E8
330
1E7
100
AcDbEntity
  8
LAYER_1
 62
    40
100
AcDbVertex
100
AcDb2dVertex
 10
-24.20742769219838
 20
-29.64650883953245
 30
0.0
  0
VERTEX
  5
1E9
330
1E7
100
AcDbEntity
  8
LAYER_1
 62
    40
100
AcDbVertex
100
AcDb2dVertex
 10
-25.97131653608671
 20
-31.41039772798037
 30
0.0
  0
SEQEND
  5
1EA
330
1E7
100
AcDbEntity
  8
LAYER_1
 62
    40
  0
POLYLINE
  5
1EB
330
1F
100
AcDbEntity
  8
LAYER_1
 62
    40
100
AcDb2dPolyline
 66
     1
 10
0.0
 20
0.0
 30
0.0
  0
VERTEX
  5
1EC
330
1EB
100
AcDbEntity
  8
LAYER_1
 62
    40
100
AcDbVertex
100
AcDb2dVertex
 10
-23.76162242579982
 20
-31.41039772798037
 30
0.0
  0
VERTEX
  5
1ED
330
1EB
100
AcDbEntity
  8
LAYER_1
 62
    40
100
AcDbVertex
100
AcDb2dVertex
 10
-21.99773358190827
 20
-29.64650883953245
 30
0.0
  0
SEQEND
  5
1EE
330
1EB
100
AcDbEntity
  8
LAYER_1
 62
    40
  0
POLYLINE
  5
1EF
330
1F
100
AcDbEntity
  8
LAYER_1
 62
    40
100
AcDb2dPolyline
 66
     1
 10
0.0
 20
0.0
 30
0.0
  0
VERTEX
  5
1F0
330
1EF
100
AcDbEntity
  8
LAYER_1
 62
    40
100
AcDbVertex
100
AcDb2dVertex
 10
-21.55192831550265
 20
-31.41039772798037
 30
0.0
  0
VERTEX
  5
1F1
330
1EF
100
AcDbEntity
  8
LAYER_1
 62
    40
100
AcDbVertex
100
AcDb2dVertex
 10
-19.78803947161688
 20
-29.64650883953245
 30
0.0
  0
SEQEND
  5
1F2
330
1EF
100
AcDbEntity
  8
LAYER_1
 62
    40
  0
POLYLINE
  5
1F3
330
1F
100
AcDbEntity
  8
LAYER_1
 62
    40
100
AcDb2dPolyline
 66
     1
 10
0.0
 20
0.0
 30
0.0
  0
VERTEX
  5
1F4
330
1F3
100
AcDbEntity
  8
LAYER_1
 62
    40
100
AcDbVertex
100
AcDb2dVertex
 10
-19.34258698298261
 20
-31.41039772798037
 30
0.0
  0
VERTEX
  5
1F5
330
1F3
100
AcDbEntity
  8
LAYER_1
 62
    40
100
AcDbVertex
100
AcDb2dVertex
 10
-17.57869813909042
 20
-29.64650883953245
 30
0.0
  0
SEQEND
  5
1F6
330
1F3
100
AcDbEntity
  8
LAYER_1
 62
    40
  0
POLYLINE
  5
1F7
330
1F
100
AcDbEntity
  8
LAYER_1
 62
    40
100
AcDb2dPolyline
 66
     1
 10
0.0
 20
0.0
 30
0.0
  0
VERTEX
  5
1F8
330
1F7
100
AcDbEntity
  8
LAYER_1
 62
    40
100
AcDbVertex
100
AcDb2dVertex
 10
-17.13257537269547
 20
-31.41039772798037
 30
0.0
  0
VERTEX
  5
1F9
330
1F7
100
AcDbEntity
  8
LAYER_1
 62
    40
100
AcDbVertex
100
AcDb2dVertex
 10
-15.3686865288097
 20
-29.64650883953245
 30
0.0
  0
SEQEND
  5
1FA
330
1F7
100
AcDbEntity
  8
LAYER_1
 62
    40
  0
POLYLINE
  5
1FB
330
1F
100
AcDbEntity
  8
LAYER_1
 62
    40
100
AcDb2dPolyline
 66
     1
 10
0.0
 20
0.0
 30
0.0
  0
VERTEX
  5
1FC
330
1FB
100
AcDbEntity
  8
LAYER_1
 62
    40
100
AcDbVertex
100
AcDb2dVertex
 10
-13.15899241851189
 20
-29.64650883953245
 30
0.0
  0
VERTEX
  5
1FD
330
1FB
100
AcDbEntity
  8
LAYER_1
 62
    40
100
AcDbVertex
100
AcDb2dVertex
 10
-14.92288126240408
 20
-31.41039772798037
 30
0.0
  0
SEQEND
  5
1FE
330
1FB
100
AcDbEntity
  8
LAYER_1
 62
    40
  0
POLYLINE
  5
1FF
330
1F
100
AcDbEntity
  8
LAYER_1
 62
    40
100
AcDb2dPolyline
 66
     1
 10
0.0
 20
0.0
 30
0.0
  0
VERTEX
  5
200
330
1FF
100
AcDbEntity
  8
LAYER_1
 62
    40
100
AcDbVertex
100
AcDb2dVertex
 10
-10.94929830822499
 20
-29.64650883953245
 30
0.0
  0
VERTEX
  5
201
330
1FF
100
AcDbEntity
  8
LAYER_1
 62
    40
100
AcDbVertex
100
AcDb2dVertex
 10
-12.71318715211365
 20
-31.41039772798037
 30
0.0
  0
SEQEND
  5
202
330
1FF
100
AcDbEntity
  8
LAYER_1
 62
    40
  0
POLYLINE
  5
203
330
1F
100
AcDbEntity
  8
LAYER_1
 62
    40
100
AcDb2dPolyline
 66
     1
 10
0.0
 20
0.0
 30
0.0
  0
VERTEX
  5
204
330
203
100
AcDbEntity
  8
LAYER_1
 62
    40
100
AcDbVertex
100
AcDb2dVertex
 10
-10.50384581958622
 20
-31.41039772798037
 30
0.0
  0
VERTEX
  5
205
330
203
100
AcDbEntity
  8
LAYER_1
 62
    40
100
AcDbVertex
100
AcDb2dVertex
 10
-8.739956975697888
 20
-29.64650883953245
 30
0.0
  0
SEQEND
  5
206
330
203
100
AcDbEntity
  8
LAYER_1
 62
    40
  0
POLYLINE
  5
207
330
1F
100
AcDbEntity
  8
LAYER_1
 62
    40
100
AcDb2dPolyline
 66
     1
 10
0.0
 20
0.0
 30
0.0
  0
VERTEX
  5
208
330
207
100
AcDbEntity
  8
LAYER_1
 62
    40
100
AcDbVertex
100
AcDb2dVertex
 10
-8.294186987073635
 20
-31.41039772798037
 30
0.0
  0
VERTEX
  5
209
330
207
100
AcDbEntity
  8
LAYER_1
 62
    40
100
AcDbVertex
100
AcDb2dVertex
 10
-6.53029814318145
 20
-29.64650883953245
 30
0.0
  0
SEQEND
  5
20A
330
207
100
AcDbEntity
  8
LAYER_1
 62
    40
  0
POLYLINE
  5
20B
330
1F
100
AcDbEntity
  8
LAYER_1
 62
    40
100
AcDb2dPolyline
 66
     1
 10
0.0
 20
0.0
 30
0.0
  0
VERTEX
  5
20C
330
20B
100
AcDbEntity
  8
LAYER_1
 62
    40
100
AcDbVertex
100
AcDb2dVertex
 10
-6.084140099012827
 20
-31.41039772798037
 30
0.0
  0
VERTEX
  5
20D
330
20B
100
AcDbEntity
  8
LAYER_1
 62
    40
100
AcDbVertex
100
AcDb2dVertex
 10
-4.320251255120641
 20
-29.64650883953245
 30
0.0
  0
SEQEND
  5
20E
330
20B
100
AcDbEntity
  8
LAYER_1
 62
    40
  0
POLYLINE
  5
20F
330
1F
100
AcDbEntity
  8
LAYER_1
 62
    40
100
AcDb2dPolyline
 66
     1
 10
0.0
 20
0.0
 30
0.0
  0
VERTEX
  5
210
330
20F
100
AcDbEntity
  8
LAYER_1
 62
    40
100
AcDbVertex
100
AcDb2dVertex
 10
-3.87444598871502
 20
-31.41039772798037
 30
0.0
  0
VERTEX
  5
211
330
20F
100
AcDbEntity
  8
LAYER_1
 62
    40
100
AcDbVertex
100
AcDb2dVertex
 10
-2.110557144829251
 20
-29.64650883953245
 30
0.0
  0
SEQEND
  5
212
330
20F
100
AcDbEntity
  8
LAYER_1
 62
    40
  0
POLYLINE
  5
213
330
1F
100
AcDbEntity
  8
LAYER_1
 62
    40
100
AcDb2dPolyline
 66
     1
 10
0.0
 20
0.0
 30
0.0
  0
VERTEX
  5
214
330
213
100
AcDbEntity
  8
LAYER_1
 62
    40
100
AcDbVertex
100
AcDb2dVertex
 10
-1.665104656194974
 20
-31.41039772798037
 30
0.0
  0
VERTEX
  5
215
330
213
100
AcDbEntity
  8
LAYER_1
 62
    40
100
AcDbVertex
100
AcDb2dVertex
 10
0.0987841876940029
 20
-29.64650883953245
 30
0.0
  0
SEQEND
  5
216
330
213
100
AcDbEntity
  8
LAYER_1
 62
    40
  0
POLYLINE
  5
217
330
1F
100
AcDbEntity
  8
LAYER_1
 62
    40
100
AcDb2dPolyline
 66
     1
 10
0.0
 20
0.0
 30
0.0
  0
VERTEX
  5
218
330
217
100
AcDbEntity
  8
LAYER_1
 62
    40
100
AcDbVertex
100
AcDb2dVertex
 10
0.5445541763221048
 20
-31.41039772798037
 30
0.0
  0
VERTEX
  5
219
330
217
100
AcDbEntity
  8
LAYER_1
 62
    40
100
AcDbVertex
100
AcDb2dVertex
 10
2.30844302021429
 20
-29.64650883953245
 30
0.0
  0
SEQEND
  5
21A
330
217
100
AcDbEntity
  8
LAYER_1
 62
    40
  0
POLYLINE
  5
21B
330
1F
100
AcDbEntity
  8
LAYER_1
 62
    40
100
AcDb2dPolyline
 66
     1
 10
0.0
 20
0.0
 30
0.0
  0
VERTEX
  5
21C
330
21B
100
AcDbEntity
  8
LAYER_1
 62
    40
100
AcDbVertex
100
AcDb2dVertex
 10
2.754953842150729
 20
-31.41039772798037
 30
0.0
  0
VERTEX
  5
21D
330
21B
100
AcDbEntity
  8
LAYER_1
 62
    40
100
AcDbVertex
100
AcDb2dVertex
 10
4.518842686041952
 20
-29.64650883953245
 30
0.0
  0
SEQEND
  5
21E
330
21B
100
AcDbEntity
  8
LAYER_1
 62
    40
  0
POLYLINE
  5
21F
330
1F
100
AcDbEntity
  8
LAYER_1
 62
    40
100
AcDb2dPolyline
 66
     1
 10
0.0
 20
0.0
 30
0.0
  0
VERTEX
  5
220
330
21F
100
AcDbEntity
  8
LAYER_1
 62
    40
100
AcDbVertex
100
AcDb2dVertex
 10
6.728148740788328
 20
-29.64650883953245
 30
0.0
  0
VERTEX
  5
221
330
21F
100
AcDbEntity
  8
LAYER_1
 62
    40
100
AcDbVertex
100
AcDb2dVertex
 10
4.964259896899351
 20
-31.41039772798037
 30
0.0
  0
SEQEND
  5
222
330
21F
100
AcDbEntity
  8
LAYER_1
 62
    40
  0
POLYLINE
  5
223
330
1F
100
AcDbEntity
  8
LAYER_1
 62
    40
100
AcDb2dPolyline
 66
     1
 10
0.0
 20
0.0
 30
0.0
  0
VERTEX
  5
224
330
223
100
AcDbEntity
  8
LAYER_1
 62
    40
100
AcDbVertex
100
AcDb2dVertex
 10
7.173601229427097
 20
-31.41039772798037
 30
0.0
  0
VERTEX
  5
225
330
223
100
AcDbEntity
  8
LAYER_1
 62
    40
100
AcDbVertex
100
AcDb2dVertex
 10
8.937490073315432
 20
-29.64650883953245
 30
0.0
  0
SEQEND
  5
226
330
223
100
AcDbEntity
  8
LAYER_1
 62
    40
  0
POLYLINE
  5
227
330
1F
100
AcDbEntity
  8
LAYER_1
 62
    40
100
AcDb2dPolyline
 66
     1
 10
0.0
 20
0.0
 30
0.0
  0
VERTEX
  5
228
330
227
100
AcDbEntity
  8
LAYER_1
 62
    40
100
AcDbVertex
100
AcDb2dVertex
 10
9.383295339713996
 20
-31.41039772798037
 30
0.0
  0
VERTEX
  5
229
330
227
100
AcDbEntity
  8
LAYER_1
 62
    40
100
AcDbVertex
100
AcDb2dVertex
 10
11.14718418360554
 20
-29.64650883953245
 30
0.0
  0
SEQEND
  5
22A
330
227
100
AcDbEntity
  8
LAYER_1
 62
    40
  0
POLYLINE
  5
22B
330
1F
100
AcDbEntity
  8
LAYER_1
 62
    40
100
AcDb2dPolyline
 66
     1
 10
0.0
 20
0.0
 30
0.0
  0
VERTEX
  5
22C
330
22B
100
AcDbEntity
  8
LAYER_1
 62
    40
100
AcDbVertex
100
AcDb2dVertex
 10
11.59365972777184
 20
-31.41039772798037
 30
0.0
  0
VERTEX
  5
22D
330
22B
100
AcDbEntity
  8
LAYER_1
 62
    40
100
AcDbVertex
100
AcDb2dVertex
 10
13.35754857165632
 20
-29.64650883953245
 30
0.0
  0
SEQEND
  5
22E
330
22B
100
AcDbEntity
  8
LAYER_1
 62
    40
  0
POLYLINE
  5
22F
330
1F
100
AcDbEntity
  8
LAYER_1
 62
    40
100
AcDb2dPolyline
 66
     1
 10
0.0
 20
0.0
 30
0.0
  0
VERTEX
  5
230
330
22F
100
AcDbEntity
  8
LAYER_1
 62
    40
100
AcDbVertex
100
AcDb2dVertex
 10
13.80268356030255
 20
-31.41039772798037
 30
0.0
  0
VERTEX
  5
231
330
22F
100
AcDbEntity
  8
LAYER_1
 62
    40
100
AcDbVertex
100
AcDb2dVertex
 10
15.56657240418704
 20
-29.64650883953245
 30
0.0
  0
SEQEND
  5
232
330
22F
100
AcDbEntity
  8
LAYER_1
 62
    40
  0
POLYLINE
  5
233
330
1F
100
AcDbEntity
  8
LAYER_1
 62
    40
100
AcDb2dPolyline
 66
     1
 10
0.0
 20
0.0
 30
0.0
  0
VERTEX
  5
234
330
233
100
AcDbEntity
  8
LAYER_1
 62
    40
100
AcDbVertex
100
AcDb2dVertex
 10
16.01234239281835
 20
-31.41039772798037
 30
0.0
  0
VERTEX
  5
235
330
233
100
AcDbEntity
  8
LAYER_1
 62
    40
100
AcDbVertex
100
AcDb2dVertex
 10
17.77623123670411
 20
-29.64650883953245
 30
0.0
  0
SEQEND
  5
236
330
233
100
AcDbEntity
  8
LAYER_1
 62
    40
  0
POLYLINE
  5
237
330
1F
100
AcDbEntity
  8
LAYER_1
 62
    40
100
AcDb2dPolyline
 66
     1
 10
0.0
 20
0.0
 30
0.0
  0
VERTEX
  5
238
330
237
100
AcDbEntity
  8
LAYER_1
 62
    40
100
AcDbVertex
100
AcDb2dVertex
 10
18.22203650310973
 20
-31.41039772798037
 30
0.0
  0
VERTEX
  5
239
330
237
100
AcDbEntity
  8
LAYER_1
 62
    40
100
AcDbVertex
100
AcDb2dVertex
 10
19.98592534700192
 20
-29.64650883953245
 30
0.0
  0
SEQEND
  5
23A
330
237
100
AcDbEntity
  8
LAYER_1
 62
    40
  0
POLYLINE
  5
23B
330
1F
100
AcDbEntity
  8
LAYER_1
 62
    40
100
AcDb2dPolyline
 66
     1
 10
0.0
 20
0.0
 30
0.0
  0
VERTEX
  5
23C
330
23B
100
AcDbEntity
  8
LAYER_1
 62
    40
100
AcDbVertex
100
AcDb2dVertex
 10
22.19597223506337
 20
-29.64650883953245
 30
0.0
  0
VERTEX
  5
23D
330
23B
100
AcDbEntity
  8
LAYER_1
 62
    40
100
AcDbVertex
100
AcDb2dVertex
 10
20.43208339117119
 20
-31.41039772798037
 30
0.0
  0
SEQEND
  5
23E
330
23B
100
AcDbEntity
  8
LAYER_1
 62
    40
  0
POLYLINE
  5
23F
330
1F
100
AcDbEntity
  8
LAYER_1
 62
    40
100
AcDb2dPolyline
 66
     1
 10
0.0
 20
0.0
 30
0.0
  0
VERTEX
  5
240
330
23F
100
AcDbEntity
  8
LAYER_1
 62
    40
100
AcDbVertex
100
AcDb2dVertex
 10
22.64138944591692
 20
-31.41039772798037
 30
0.0
  0
VERTEX
  5
241
330
23F
100
AcDbEntity
  8
LAYER_1
 62
    40
100
AcDbVertex
100
AcDb2dVertex
 10
24.40527828980911
 20
-29.64650883953245
 30
0.0
  0
SEQEND
  5
242
330
23F
100
AcDbEntity
  8
LAYER_1
 62
    40
  0
POLYLINE
  5
243
330
1F
100
AcDbEntity
  8
LAYER_1
 62
    40
100
AcDb2dPolyline
 66
     1
 10
0.0
 20
0.0
 30
0.0
  0
VERTEX
  5
244
330
243
100
AcDbEntity
  8
LAYER_1
 62
    40
100
AcDbVertex
100
AcDb2dVertex
 10
26.61497240010306
 20
-29.64650883953245
 30
0.0
  0
VERTEX
  5
245
330
243
100
AcDbEntity
  8
LAYER_1
 62
    40
100
AcDbVertex
100
AcDb2dVertex
 10
24.85108355621473
 20
-31.41039772798037
 30
0.0
  0
SEQEND
  5
246
330
243
100
AcDbEntity
  8
LAYER_1
 62
    40
  0
POLYLINE
  5
247
330
1F
100
AcDbEntity
  8
LAYER_1
 62
    40
100
AcDb2dPolyline
 66
     1
 10
0.0
 20
0.0
 30
0.0
  0
VERTEX
  5
248
330
247
100
AcDbEntity
  8
LAYER_1
 62
    40
100
AcDbVertex
100
AcDb2dVertex
 10
28.82466651039317
 20
-29.64650883953245
 30
0.0
  0
VERTEX
  5
249
330
247
100
AcDbEntity
  8
LAYER_1
 62
    40
100
AcDbVertex
100
AcDb2dVertex
 10
27.06077766650163
 20
-31.41039772798037
 30
0.0
  0
SEQEND
  5
24A
330
247
100
AcDbEntity
  8
LAYER_1
 62
    40
  0
POLYLINE
  5
24B
330
1F
100
AcDbEntity
  8
LAYER_1
 62
    40
100
AcDb2dPolyline
 66
     1
 10
0.0
 20
0.0
 30
0.0
  0
VERTEX
  5
24C
330
24B
100
AcDbEntity
  8
LAYER_1
 62
    40
100
AcDbVertex
100
AcDb2dVertex
 10
31.03467812068031
 20
-29.64650883953245
 30
0.0
  0
VERTEX
  5
24D
330
24B
100
AcDbEntity
  8
LAYER_1
 62
    40
100
AcDbVertex
100
AcDb2dVertex
 10
29.27078927678813
 20
-31.41039772798037
 30
0.0
  0
SEQEND
  5
24E
330
24B
100
AcDbEntity
  8
LAYER_1
 62
    40
  0
POLYLINE
  5
24F
330
1F
100
AcDbEntity
  8
LAYER_1
 62
    40
100
AcDb2dPolyline
 66
     1
 10
0.0
 20
0.0
 30
0.0
  0
VERTEX
  5
250
330
24F
100
AcDbEntity
  8
LAYER_1
 62
    40
100
AcDbVertex
100
AcDb2dVertex
 10
33.24401945320036
 20
-29.64650883953245
 30
0.0
  0
VERTEX
  5
251
330
24F
100
AcDbEntity
  8
LAYER_1
 62
    40
100
AcDbVertex
100
AcDb2dVertex
 10
31.48013060931587
 20
-31.41039772798037
 30
0.0
  0
SEQEND
  5
252
330
24F
100
AcDbEntity
  8
LAYER_1
 62
    40
  0
POLYLINE
  5
253
330
1F
100
AcDbEntity
  8
LAYER_1
 62
    40
100
AcDb2dPolyline
 66
     1
 10
0.0
 20
0.0
 30
0.0
  0
VERTEX
  5
254
330
253
100
AcDbEntity
  8
LAYER_1
 62
    40
100
AcDbVertex
100
AcDb2dVertex
 10
33.68982471960598
 20
-31.41039772798037
 30
0.0
  0
VERTEX
  5
255
330
253
100
AcDbEntity
  8
LAYER_1
 62
    40
100
AcDbVertex
100
AcDb2dVertex
 10
35.45371356349175
 20
-29.64650883953245
 30
0.0
  0
SEQEND
  5
256
330
253
100
AcDbEntity
  8
LAYER_1
 62
    40
  0
POLYLINE
  5
257
330
1F
100
AcDbEntity
  8
LAYER_1
 62
    40
100
AcDb2dPolyline
 66
     1
 10
0.0
 20
0.0
 30
0.0
  0
VERTEX
  5
258
330
257
100
AcDbEntity
  8
LAYER_1
 62
    40
100
AcDbVertex
100
AcDb2dVertex
 10
37.66341246395096
 20
-29.64650883953245
 30
0.0
  0
VERTEX
  5
259
330
257
100
AcDbEntity
  8
LAYER_1
 62
    40
100
AcDbVertex
100
AcDb2dVertex
 10
35.89952357550304
 20
-31.41039772798037
 30
0.0
  0
SEQEND
  5
25A
330
257
100
AcDbEntity
  8
LAYER_1
 62
    40
  0
POLYLINE
  5
25B
330
1F
100
AcDbEntity
  8
LAYER_1
 62
    40
100
AcDb2dPolyline
 66
     1
 10
0.0
 20
0.0
 30
0.0
  0
VERTEX
  5
25C
330
25B
100
AcDbEntity
  8
LAYER_1
 62
    40
100
AcDbVertex
100
AcDb2dVertex
 10
39.87341928407285
 20
-29.64650883953245
 30
0.0
  0
VERTEX
  5
25D
330
25B
100
AcDbEntity
  8
LAYER_1
 62
    40
100
AcDbVertex
100
AcDb2dVertex
 10
38.10953044018451
 20
-31.41039772798037
 30
0.0
  0
SEQEND
  5
25E
330
25B
100
AcDbEntity
  8
LAYER_1
 62
    40
  0
POLYLINE
  5
25F
330
1F
100
AcDbEntity
  8
LAYER_1
 62
    40
100
AcDb2dPolyline
 66
     1
 10
0.0
 20
0.0
 30
0.0
  0
VERTEX
  5
260
330
25F
100
AcDbEntity
  8
LAYER_1
 62
    40
100
AcDbVertex
100
AcDb2dVertex
 10
42.08276061659706
 20
-29.64650883953245
 30
0.0
  0
VERTEX
  5
261
330
25F
100
AcDbEntity
  8
LAYER_1
 62
    40
100
AcDbVertex
100
AcDb2dVertex
 10
40.31887177270455
 20
-31.41039772798037
 30
0.0
  0
SEQEND
  5
262
330
25F
100
AcDbEntity
  8
LAYER_1
 62
    40
  0
POLYLINE
  5
263
330
1F
100
AcDbEntity
  8
LAYER_1
 62
    40
100
AcDb2dPolyline
 66
     1
 10
0.0
 20
0.0
 30
0.0
  0
VERTEX
  5
264
330
263
100
AcDbEntity
  8
LAYER_1
 62
    40
100
AcDbVertex
100
AcDb2dVertex
 10
44.29245968451502
 20
-29.64650883953245
 30
0.0
  0
VERTEX
  5
265
330
263
100
AcDbEntity
  8
LAYER_1
 62
    40
100
AcDbVertex
100
AcDb2dVertex
 10
42.5285707960671
 20
-31.41039772798037
 30
0.0
  0
SEQEND
  5
266
330
263
100
AcDbEntity
  8
LAYER_1
 62
    40
  0
POLYLINE
  5
267
330
1F
100
AcDbEntity
  8
LAYER_1
 62
    40
100
AcDb2dPolyline
 66
     1
 10
0.0
 20
0.0
 30
0.0
  0
VERTEX
  5
268
330
267
100
AcDbEntity
  8
LAYER_1
 62
    40
100
AcDbVertex
100
AcDb2dVertex
 10
46.5021488371808
 20
-29.64650883953245
 30
0.0
  0
VERTEX
  5
269
330
267
100
AcDbEntity
  8
LAYER_1
 62
    40
100
AcDbVertex
100
AcDb2dVertex
 10
44.73825999328925
 20
-31.41039772798037
 30
0.0
  0
SEQEND
  5
26A
330
267
100
AcDbEntity
  8
LAYER_1
 62
    40
  0
POLYLINE
  5
26B
330
1F
100
AcDbEntity
  8
LAYER_1
 62
    40
100
AcDb2dPolyline
 66
     1
 10
0.0
 20
0.0
 30
0.0
  0
VERTEX
  5
26C
330
26B
100
AcDbEntity
  8
LAYER_1
 62
    40
100
AcDbVertex
100
AcDb2dVertex
 10
48.71216044746794
 20
-29.64650883953245
 30
0.0
  0
VERTEX
  5
26D
330
26B
100
AcDbEntity
  8
LAYER_1
 62
    40
100
AcDbVertex
100
AcDb2dVertex
 10
46.94827160357575
 20
-31.41039772798037
 30
0.0
  0
SEQEND
  5
26E
330
26B
100
AcDbEntity
  8
LAYER_1
 62
    40
  0
POLYLINE
  5
26F
330
1F
100
AcDbEntity
  8
LAYER_1
 62
    40
100
AcDb2dPolyline
 66
     1
 10
0.0
 20
0.0
 30
0.0
  0
VERTEX
  5
270
330
26F
100
AcDbEntity
  8
LAYER_1
 62
    40
100
AcDbVertex
100
AcDb2dVertex
 10
49.15761801663629
 20
-31.41039772798037
 30
0.0
  0
VERTEX
  5
271
330
26F
100
AcDbEntity
  8
LAYER_1
 62
    40
100
AcDbVertex
100
AcDb2dVertex
 10
50.92150690508421
 20
-29.64650883953245
 30
0.0
  0
SEQEND
  5
272
330
26F
100
AcDbEntity
  8
LAYER_1
 62
    40
  0
POLYLINE
  5
273
330
1F
100
AcDbEntity
  8
LAYER_1
 62
    40
100
AcDb2dPolyline
 66
     1
 10
0.0
 20
0.0
 30
0.0
  0
VERTEX
  5
274
330
273
100
AcDbEntity
  8
LAYER_1
 62
    40
100
AcDbVertex
100
AcDb2dVertex
 10
53.13119589027938
 20
-29.64650883953245
 30
0.0
  0
VERTEX
  5
275
330
273
100
AcDbEntity
  8
LAYER_1
 62
    40
100
AcDbVertex
100
AcDb2dVertex
 10
51.36730704639361
 20
-31.41039772798037
 30
0.0
  0
SEQEND
  5
276
330
273
100
AcDbEntity
  8
LAYER_1
 62
    40
  0
POLYLINE
  5
277
330
1F
100
AcDbEntity
  8
LAYER_1
 62
    40
100
AcDb2dPolyline
 66
     1
 10
0.0
 20
0.0
 30
0.0
  0
VERTEX
  5
278
330
277
100
AcDbEntity
  8
LAYER_1
 62
    40
100
AcDbVertex
100
AcDb2dVertex
 10
53.577001156685
 20
-31.41039772798037
 30
0.0
  0
VERTEX
  5
279
330
277
100
AcDbEntity
  8
LAYER_1
 62
    40
100
AcDbVertex
100
AcDb2dVertex
 10
55.34089000057718
 20
-29.64650883953245
 30
0.0
  0
SEQEND
  5
27A
330
277
100
AcDbEntity
  8
LAYER_1
 62
    40
  0
POLYLINE
  5
27B
330
1F
100
AcDbEntity
  8
LAYER_1
 62
    40
100
AcDb2dPolyline
 66
     1
 10
0.0
 20
0.0
 30
0.0
  0
VERTEX
  5
27C
330
27B
100
AcDbEntity
  8
LAYER_1
 62
    40
100
AcDbVertex
100
AcDb2dVertex
 10
57.5505541256457
 20
-29.64650883953245
 30
0.0
  0
VERTEX
  5
27D
330
27B
100
AcDbEntity
  8
LAYER_1
 62
    40
100
AcDbVertex
100
AcDb2dVertex
 10
55.78666523719778
 20
-31.41039772798037
 30
0.0
  0
SEQEND
  5
27E
330
27B
100
AcDbEntity
  8
LAYER_1
 62
    40
  0
POLYLINE
  5
27F
330
1F
100
AcDbEntity
  8
LAYER_1
 62
    40
100
AcDb2dPolyline
 66
     1
 10
0.0
 20
0.0
 30
0.0
  0
VERTEX
  5
280
330
27F
100
AcDbEntity
  8
LAYER_1
 62
    40
100
AcDbVertex
100
AcDb2dVertex
 10
59.76024294338437
 20
-29.64650883953245
 30
0.0
  0
VERTEX
  5
281
330
27F
100
AcDbEntity
  8
LAYER_1
 62
    40
100
AcDbVertex
100
AcDb2dVertex
 10
57.99635409949219
 20
-31.41039772798037
 30
0.0
  0
SEQEND
  5
282
330
27F
100
AcDbEntity
  8
LAYER_1
 62
    40
  0
POLYLINE
  5
283
330
1F
100
AcDbEntity
  8
LAYER_1
 62
    40
100
AcDb2dPolyline
 66
     1
 10
0.0
 20
0.0
 30
0.0
  0
VERTEX
  5
284
330
283
100
AcDbEntity
  8
LAYER_1
 62
    40
100
AcDbVertex
100
AcDb2dVertex
 10
61.96993705367833
 20
-29.64650883953245
 30
0.0
  0
VERTEX
  5
285
330
283
100
AcDbEntity
  8
LAYER_1
 62
    40
100
AcDbVertex
100
AcDb2dVertex
 10
60.20604820978999
 20
-31.41039772798037
 30
0.0
  0
SEQEND
  5
286
330
283
100
AcDbEntity
  8
LAYER_1
 62
    40
  0
POLYLINE
  5
287
330
1F
100
AcDbEntity
  8
LAYER_1
 62
    40
100
AcDb2dPolyline
 66
     1
 10
0.0
 20
0.0
 30
0.0
  0
VERTEX
  5
288
330
287
100
AcDbEntity
  8
LAYER_1
 62
    40
100
AcDbVertex
100
AcDb2dVertex
 10
63.65875429045467
 20
-30.16735589528818
 30
0.0
  0
VERTEX
  5
289
330
287
100
AcDbEntity
  8
LAYER_1
 62
    40
100
AcDbVertex
100
AcDb2dVertex
 10
62.41571245776248
 20
-31.41039772798037
 30
0.0
  0
SEQEND
  5
28A
330
287
100
AcDbEntity
  8
LAYER_1
 62
    40
  0
POLYLINE
  5
28B
330
1F
100
AcDbEntity
  8
LAYER_1
 62
    40
100
AcDb2dPolyline
 66
     1
 10
0.0
 20
0.0
 30
0.0
  0
VERTEX
  5
28C
330
28B
100
AcDbEntity
  8
LAYER_1
 62
    40
100
AcDbVertex
100
AcDb2dVertex
 10
63.65875429045467
 20
-31.41039772798037
 30
0.0
  0
VERTEX
  5
28D
330
28B
100
AcDbEntity
  8
LAYER_1
 62
    40
100
AcDbVertex
100
AcDb2dVertex
 10
-49.18187184968637
 20
-31.41039772798037
 30
0.0
  0
SEQEND
  5
28E
330
28B
100
AcDbEntity
  8
LAYER_1
 62
    40
  0
POLYLINE
  5
28F
330
1F
100
AcDbEntity
  8
LAYER_1
 62
    40
100
AcDb2dPolyline
 66
     1
 10
0.0
 20
0.0
 30
0.0
  0
VERTEX
  5
290
330
28F
100
AcDbEntity
  8
LAYER_1
 62
    40
100
AcDbVertex
100
AcDb2dVertex
 10
-49.18195797707157
 20
-29.61010584620804
 30
0.0
  0
VERTEX
  5
291
330
28F
100
AcDbEntity
  8
LAYER_1
 62
    40
100
AcDbVertex
100
AcDb2dVertex
 10
63.65875429045467
 20
-29.61010584620804
 30
0.0
  0
SEQEND
  5
292
330
28F
100
AcDbEntity
  8
LAYER_1
 62
    40
  0
POLYLINE
  5
293
330
1F
100
AcDbEntity
  8
LAYER_1
 62
    40
100
AcDb2dPolyline
 66
     1
 10
0.0
 20
0.0
 30
0.0
  0
VERTEX
  5
294
330
293
100
AcDbEntity
  8
LAYER_1
 62
    40
100
AcDbVertex
100
AcDb2dVertex
 10
-46.90781749626017
 20
-176.3804248523824
 30
0.0
  0
VERTEX
  5
295
330
293
100
AcDbEntity
  8
LAYER_1
 62
    40
100
AcDbVertex
100
AcDb2dVertex
 10
-48.67170634014915
 20
-178.1443137408303
 30
0.0
  0
SEQEND
  5
296
330
293
100
AcDbEntity
  8
LAYER_1
 62
    40
  0
POLYLINE
  5
297
330
1F
100
AcDbEntity
  8
LAYER_1
 62
    40
100
AcDb2dPolyline
 66
     1
 10
0.0
 20
0.0
 30
0.0
  0
VERTEX
  5
298
330
297
100
AcDbEntity
  8
LAYER_1
 62
    40
100
AcDbVertex
100
AcDb2dVertex
 10
-46.4623650076259
 20
-178.1443137408303
 30
0.0
  0
VERTEX
  5
299
330
297
100
AcDbEntity
  8
LAYER_1
 62
    40
100
AcDbVertex
100
AcDb2dVertex
 10
-44.69847616373692
 20
-176.3804248523824
 30
0.0
  0
SEQEND
  5
29A
330
297
100
AcDbEntity
  8
LAYER_1
 62
    40
  0
POLYLINE
  5
29B
330
1F
100
AcDbEntity
  8
LAYER_1
 62
    40
100
AcDb2dPolyline
 66
     1
 10
0.0
 20
0.0
 30
0.0
  0
VERTEX
  5
29C
330
29B
100
AcDbEntity
  8
LAYER_1
 62
    40
100
AcDbVertex
100
AcDb2dVertex
 10
-44.2526708973313
 20
-178.1443137408303
 30
0.0
  0
VERTEX
  5
29D
330
29B
100
AcDbEntity
  8
LAYER_1
 62
    40
100
AcDbVertex
100
AcDb2dVertex
 10
-42.48878205344617
 20
-176.3804248523824
 30
0.0
  0
SEQEND
  5
29E
330
29B
100
AcDbEntity
  8
LAYER_1
 62
    40
  0
POLYLINE
  5
29F
330
1F
100
AcDbEntity
  8
LAYER_1
 62
    40
100
AcDb2dPolyline
 66
     1
 10
0.0
 20
0.0
 30
0.0
  0
VERTEX
  5
2A0
330
29F
100
AcDbEntity
  8
LAYER_1
 62
    40
100
AcDbVertex
100
AcDb2dVertex
 10
-42.04265928704737
 20
-178.1443137408303
 30
0.0
  0
VERTEX
  5
2A1
330
29F
100
AcDbEntity
  8
LAYER_1
 62
    40
100
AcDbVertex
100
AcDb2dVertex
 10
-40.27877044315903
 20
-176.3804248523824
 30
0.0
  0
SEQEND
  5
2A2
330
29F
100
AcDbEntity
  8
LAYER_1
 62
    40
  0
POLYLINE
  5
2A3
330
1F
100
AcDbEntity
  8
LAYER_1
 62
    40
100
AcDb2dPolyline
 66
     1
 10
0.0
 20
0.0
 30
0.0
  0
VERTEX
  5
2A4
330
2A3
100
AcDbEntity
  8
LAYER_1
 62
    40
100
AcDbVertex
100
AcDb2dVertex
 10
-39.83331795452411
 20
-178.1443137408303
 30
0.0
  0
VERTEX
  5
2A5
330
2A3
100
AcDbEntity
  8
LAYER_1
 62
    40
100
AcDbVertex
100
AcDb2dVertex
 10
-38.06942911063578
 20
-176.3804248523824
 30
0.0
  0
SEQEND
  5
2A6
330
2A3
100
AcDbEntity
  8
LAYER_1
 62
    40
  0
POLYLINE
  5
2A7
330
1F
100
AcDbEntity
  8
LAYER_1
 62
    40
100
AcDb2dPolyline
 66
     1
 10
0.0
 20
0.0
 30
0.0
  0
VERTEX
  5
2A8
330
2A7
100
AcDbEntity
  8
LAYER_1
 62
    40
100
AcDbVertex
100
AcDb2dVertex
 10
-35.85973500034118
 20
-176.3804248523824
 30
0.0
  0
VERTEX
  5
2A9
330
2A7
100
AcDbEntity
  8
LAYER_1
 62
    40
100
AcDbVertex
100
AcDb2dVertex
 10
-37.62362384423016
 20
-178.1443137408303
 30
0.0
  0
SEQEND
  5
2AA
330
2A7
100
AcDbEntity
  8
LAYER_1
 62
    40
  0
POLYLINE
  5
2AB
330
1F
100
AcDbEntity
  8
LAYER_1
 62
    40
100
AcDb2dPolyline
 66
     1
 10
0.0
 20
0.0
 30
0.0
  0
VERTEX
  5
2AC
330
2AB
100
AcDbEntity
  8
LAYER_1
 62
    40
100
AcDbVertex
100
AcDb2dVertex
 10
-35.41392973393941
 20
-178.1443137408303
 30
0.0
  0
VERTEX
  5
2AD
330
2AB
100
AcDbEntity
  8
LAYER_1
 62
    40
100
AcDbVertex
100
AcDb2dVertex
 10
-33.65004089005107
 20
-176.3804248523824
 30
0.0
  0
SEQEND
  5
2AE
330
2AB
100
AcDbEntity
  8
LAYER_1
 62
    40
  0
POLYLINE
  5
2AF
330
1F
100
AcDbEntity
  8
LAYER_1
 62
    40
100
AcDb2dPolyline
 66
     1
 10
0.0
 20
0.0
 30
0.0
  0
VERTEX
  5
2B0
330
2AF
100
AcDbEntity
  8
LAYER_1
 62
    40
100
AcDbVertex
100
AcDb2dVertex
 10
-33.20391812365612
 20
-178.1443137408303
 30
0.0
  0
VERTEX
  5
2B1
330
2AF
100
AcDbEntity
  8
LAYER_1
 62
    40
100
AcDbVertex
100
AcDb2dVertex
 10
-31.44002927976714
 20
-176.3804248523824
 30
0.0
  0
SEQEND
  5
2B2
330
2AF
100
AcDbEntity
  8
LAYER_1
 62
    40
  0
POLYLINE
  5
2B3
330
1F
100
AcDbEntity
  8
LAYER_1
 62
    40
100
AcDb2dPolyline
 66
     1
 10
0.0
 20
0.0
 30
0.0
  0
VERTEX
  5
2B4
330
2B3
100
AcDbEntity
  8
LAYER_1
 62
    40
100
AcDbVertex
100
AcDb2dVertex
 10
-30.99422401336152
 20
-178.1443137408303
 30
0.0
  0
VERTEX
  5
2B5
330
2B3
100
AcDbEntity
  8
LAYER_1
 62
    40
100
AcDbVertex
100
AcDb2dVertex
 10
-29.23033516947254
 20
-176.3804248523824
 30
0.0
  0
SEQEND
  5
2B6
330
2B3
100
AcDbEntity
  8
LAYER_1
 62
    40
  0
POLYLINE
  5
2B7
330
1F
100
AcDbEntity
  8
LAYER_1
 62
    40
100
AcDb2dPolyline
 66
     1
 10
0.0
 20
0.0
 30
0.0
  0
VERTEX
  5
2B8
330
2B7
100
AcDbEntity
  8
LAYER_1
 62
    40
100
AcDbVertex
100
AcDb2dVertex
 10
-28.78488268083827
 20
-178.1443137408303
 30
0.0
  0
VERTEX
  5
2B9
330
2B7
100
AcDbEntity
  8
LAYER_1
 62
    40
100
AcDbVertex
100
AcDb2dVertex
 10
-27.02099383694929
 20
-176.3804248523824
 30
0.0
  0
SEQEND
  5
2BA
330
2B7
100
AcDbEntity
  8
LAYER_1
 62
    40
  0
POLYLINE
  5
2BB
330
1F
100
AcDbEntity
  8
LAYER_1
 62
    40
100
AcDb2dPolyline
 66
     1
 10
0.0
 20
0.0
 30
0.0
  0
VERTEX
  5
2BC
330
2BB
100
AcDbEntity
  8
LAYER_1
 62
    40
100
AcDbVertex
100
AcDb2dVertex
 10
-24.81133500443285
 20
-176.3804248523824
 30
0.0
  0
VERTEX
  5
2BD
330
2BB
100
AcDbEntity
  8
LAYER_1
 62
    40
100
AcDbVertex
100
AcDb2dVertex
 10
-26.57522384832119
 20
-178.1443137408303
 30
0.0
  0
SEQEND
  5
2BE
330
2BB
100
AcDbEntity
  8
LAYER_1
 62
    40
  0
POLYLINE
  5
2BF
330
1F
100
AcDbEntity
  8
LAYER_1
 62
    40
100
AcDb2dPolyline
 66
     1
 10
0.0
 20
0.0
 30
0.0
  0
VERTEX
  5
2C0
330
2BF
100
AcDbEntity
  8
LAYER_1
 62
    40
100
AcDbVertex
100
AcDb2dVertex
 10
-24.36552973803108
 20
-178.1443137408303
 30
0.0
  0
VERTEX
  5
2C1
330
2BF
100
AcDbEntity
  8
LAYER_1
 62
    40
100
AcDbVertex
100
AcDb2dVertex
 10
-22.60164089414275
 20
-176.3804248523824
 30
0.0
  0
SEQEND
  5
2C2
330
2BF
100
AcDbEntity
  8
LAYER_1
 62
    40
  0
POLYLINE
  5
2C3
330
1F
100
AcDbEntity
  8
LAYER_1
 62
    40
100
AcDb2dPolyline
 66
     1
 10
0.0
 20
0.0
 30
0.0
  0
VERTEX
  5
2C4
330
2C3
100
AcDbEntity
  8
LAYER_1
 62
    40
100
AcDbVertex
100
AcDb2dVertex
 10
-22.15583562773648
 20
-178.1443137408303
 30
0.0
  0
VERTEX
  5
2C5
330
2C3
100
AcDbEntity
  8
LAYER_1
 62
    40
100
AcDbVertex
100
AcDb2dVertex
 10
-20.39194678384815
 20
-176.3804248523824
 30
0.0
  0
SEQEND
  5
2C6
330
2C3
100
AcDbEntity
  8
LAYER_1
 62
    40
  0
POLYLINE
  5
2C7
330
1F
100
AcDbEntity
  8
LAYER_1
 62
    40
100
AcDb2dPolyline
 66
     1
 10
0.0
 20
0.0
 30
0.0
  0
VERTEX
  5
2C8
330
2C7
100
AcDbEntity
  8
LAYER_1
 62
    40
100
AcDbVertex
100
AcDb2dVertex
 10
-19.94649429521323
 20
-178.1443137408303
 30
0.0
  0
VERTEX
  5
2C9
330
2C7
100
AcDbEntity
  8
LAYER_1
 62
    40
100
AcDbVertex
100
AcDb2dVertex
 10
-18.18260545132457
 20
-176.3804248523824
 30
0.0
  0
SEQEND
  5
2CA
330
2C7
100
AcDbEntity
  8
LAYER_1
 62
    40
  0
POLYLINE
  5
2CB
330
1F
100
AcDbEntity
  8
LAYER_1
 62
    40
100
AcDb2dPolyline
 66
     1
 10
0.0
 20
0.0
 30
0.0
  0
VERTEX
  5
2CC
330
2CB
100
AcDbEntity
  8
LAYER_1
 62
    40
100
AcDbVertex
100
AcDb2dVertex
 10
-17.73648268492994
 20
-178.1443137408303
 30
0.0
  0
VERTEX
  5
2CD
330
2CB
100
AcDbEntity
  8
LAYER_1
 62
    40
100
AcDbVertex
100
AcDb2dVertex
 10
-15.97259384104096
 20
-176.3804248523824
 30
0.0
  0
SEQEND
  5
2CE
330
2CB
100
AcDbEntity
  8
LAYER_1
 62
    40
  0
POLYLINE
  5
2CF
330
1F
100
AcDbEntity
  8
LAYER_1
 62
    40
100
AcDb2dPolyline
 66
     1
 10
0.0
 20
0.0
 30
0.0
  0
VERTEX
  5
2D0
330
2CF
100
AcDbEntity
  8
LAYER_1
 62
    40
100
AcDbVertex
100
AcDb2dVertex
 10
-13.76289973074636
 20
-176.3804248523824
 30
0.0
  0
VERTEX
  5
2D1
330
2CF
100
AcDbEntity
  8
LAYER_1
 62
    40
100
AcDbVertex
100
AcDb2dVertex
 10
-15.52678857463534
 20
-178.1443137408303
 30
0.0
  0
SEQEND
  5
2D2
330
2CF
100
AcDbEntity
  8
LAYER_1
 62
    40
  0
POLYLINE
  5
2D3
330
1F
100
AcDbEntity
  8
LAYER_1
 62
    40
100
AcDb2dPolyline
 66
     1
 10
0.0
 20
0.0
 30
0.0
  0
VERTEX
  5
2D4
330
2D3
100
AcDbEntity
  8
LAYER_1
 62
    40
100
AcDbVertex
100
AcDb2dVertex
 10
-11.55320562045626
 20
-176.3804248523824
 30
0.0
  0
VERTEX
  5
2D5
330
2D3
100
AcDbEntity
  8
LAYER_1
 62
    40
100
AcDbVertex
100
AcDb2dVertex
 10
-13.31709446434074
 20
-178.1443137408303
 30
0.0
  0
SEQEND
  5
2D6
330
2D3
100
AcDbEntity
  8
LAYER_1
 62
    40
  0
POLYLINE
  5
2D7
330
1F
100
AcDbEntity
  8
LAYER_1
 62
    40
100
AcDb2dPolyline
 66
     1
 10
0.0
 20
0.0
 30
0.0
  0
VERTEX
  5
2D8
330
2D7
100
AcDbEntity
  8
LAYER_1
 62
    40
100
AcDbVertex
100
AcDb2dVertex
 10
-11.10775313181749
 20
-178.1443137408303
 30
0.0
  0
VERTEX
  5
2D9
330
2D7
100
AcDbEntity
  8
LAYER_1
 62
    40
100
AcDbVertex
100
AcDb2dVertex
 10
-9.343864287928511
 20
-176.3804248523824
 30
0.0
  0
SEQEND
  5
2DA
330
2D7
100
AcDbEntity
  8
LAYER_1
 62
    40
  0
POLYLINE
  5
2DB
330
1F
100
AcDbEntity
  8
LAYER_1
 62
    40
100
AcDb2dPolyline
 66
     1
 10
0.0
 20
0.0
 30
0.0
  0
VERTEX
  5
2DC
330
2DB
100
AcDbEntity
  8
LAYER_1
 62
    40
100
AcDbVertex
100
AcDb2dVertex
 10
-8.898094299304901
 20
-178.1443137408303
 30
0.0
  0
VERTEX
  5
2DD
330
2DB
100
AcDbEntity
  8
LAYER_1
 62
    40
100
AcDbVertex
100
AcDb2dVertex
 10
-7.134205455415923
 20
-176.3804248523824
 30
0.0
  0
SEQEND
  5
2DE
330
2DB
100
AcDbEntity
  8
LAYER_1
 62
    40
  0
POLYLINE
  5
2DF
330
1F
100
AcDbEntity
  8
LAYER_1
 62
    40
100
AcDb2dPolyline
 66
     1
 10
0.0
 20
0.0
 30
0.0
  0
VERTEX
  5
2E0
330
2DF
100
AcDbEntity
  8
LAYER_1
 62
    40
100
AcDbVertex
100
AcDb2dVertex
 10
-6.68804741124345
 20
-178.1443137408303
 30
0.0
  0
VERTEX
  5
2E1
330
2DF
100
AcDbEntity
  8
LAYER_1
 62
    40
100
AcDbVertex
100
AcDb2dVertex
 10
-4.924158567355114
 20
-176.3804248523824
 30
0.0
  0
SEQEND
  5
2E2
330
2DF
100
AcDbEntity
  8
LAYER_1
 62
    40
  0
POLYLINE
  5
2E3
330
1F
100
AcDbEntity
  8
LAYER_1
 62
    40
100
AcDb2dPolyline
 66
     1
 10
0.0
 20
0.0
 30
0.0
  0
VERTEX
  5
2E4
330
2E3
100
AcDbEntity
  8
LAYER_1
 62
    40
100
AcDbVertex
100
AcDb2dVertex
 10
-4.478353300948851
 20
-178.1443137408303
 30
0.0
  0
VERTEX
  5
2E5
330
2E3
100
AcDbEntity
  8
LAYER_1
 62
    40
100
AcDbVertex
100
AcDb2dVertex
 10
-2.714464457060195
 20
-176.3804248523824
 30
0.0
  0
SEQEND
  5
2E6
330
2E3
100
AcDbEntity
  8
LAYER_1
 62
    40
  0
POLYLINE
  5
2E7
330
1F
100
AcDbEntity
  8
LAYER_1
 62
    40
100
AcDb2dPolyline
 66
     1
 10
0.0
 20
0.0
 30
0.0
  0
VERTEX
  5
2E8
330
2E7
100
AcDbEntity
  8
LAYER_1
 62
    40
100
AcDbVertex
100
AcDb2dVertex
 10
-2.269011968425597
 20
-178.1443137408303
 30
0.0
  0
VERTEX
  5
2E9
330
2E7
100
AcDbEntity
  8
LAYER_1
 62
    40
100
AcDbVertex
100
AcDb2dVertex
 10
-0.5051231245372618
 20
-176.3804248523824
 30
0.0
  0
SEQEND
  5
2EA
330
2E7
100
AcDbEntity
  8
LAYER_1
 62
    40
  0
POLYLINE
  5
2EB
330
1F
100
AcDbEntity
  8
LAYER_1
 62
    40
100
AcDb2dPolyline
 66
     1
 10
0.0
 20
0.0
 30
0.0
  0
VERTEX
  5
2EC
330
2EB
100
AcDbEntity
  8
LAYER_1
 62
    40
100
AcDbVertex
100
AcDb2dVertex
 10
-0.0593531359123685
 20
-178.1443137408303
 30
0.0
  0
VERTEX
  5
2ED
330
2EB
100
AcDbEntity
  8
LAYER_1
 62
    40
100
AcDbVertex
100
AcDb2dVertex
 10
1.704535707979817
 20
-176.3804248523824
 30
0.0
  0
SEQEND
  5
2EE
330
2EB
100
AcDbEntity
  8
LAYER_1
 62
    40
  0
POLYLINE
  5
2EF
330
1F
100
AcDbEntity
  8
LAYER_1
 62
    40
100
AcDb2dPolyline
 66
     1
 10
0.0
 20
0.0
 30
0.0
  0
VERTEX
  5
2F0
330
2EF
100
AcDbEntity
  8
LAYER_1
 62
    40
100
AcDbVertex
100
AcDb2dVertex
 10
2.151046529919144
 20
-178.1443137408303
 30
0.0
  0
VERTEX
  5
2F1
330
2EF
100
AcDbEntity
  8
LAYER_1
 62
    40
100
AcDbVertex
100
AcDb2dVertex
 10
3.914935373808121
 20
-176.3804248523824
 30
0.0
  0
SEQEND
  5
2F2
330
2EF
100
AcDbEntity
  8
LAYER_1
 62
    40
  0
POLYLINE
  5
2F3
330
1F
100
AcDbEntity
  8
LAYER_1
 62
    40
100
AcDb2dPolyline
 66
     1
 10
0.0
 20
0.0
 30
0.0
  0
VERTEX
  5
2F4
330
2F3
100
AcDbEntity
  8
LAYER_1
 62
    40
100
AcDbVertex
100
AcDb2dVertex
 10
6.124241428557064
 20
-176.3804248523824
 30
0.0
  0
VERTEX
  5
2F5
330
2F3
100
AcDbEntity
  8
LAYER_1
 62
    40
100
AcDbVertex
100
AcDb2dVertex
 10
4.360352584669049
 20
-178.1443137408303
 30
0.0
  0
SEQEND
  5
2F6
330
2F3
100
AcDbEntity
  8
LAYER_1
 62
    40
  0
POLYLINE
  5
2F7
330
1F
100
AcDbEntity
  8
LAYER_1
 62
    40
100
AcDb2dPolyline
 66
     1
 10
0.0
 20
0.0
 30
0.0
  0
VERTEX
  5
2F8
330
2F7
100
AcDbEntity
  8
LAYER_1
 62
    40
100
AcDbVertex
100
AcDb2dVertex
 10
6.569693917192624
 20
-178.1443137408303
 30
0.0
  0
VERTEX
  5
2F9
330
2F7
100
AcDbEntity
  8
LAYER_1
 62
    40
100
AcDbVertex
100
AcDb2dVertex
 10
8.33358276108096
 20
-176.3804248523824
 30
0.0
  0
SEQEND
  5
2FA
330
2F7
100
AcDbEntity
  8
LAYER_1
 62
    40
  0
POLYLINE
  5
2FB
330
1F
100
AcDbEntity
  8
LAYER_1
 62
    40
100
AcDb2dPolyline
 66
     1
 10
0.0
 20
0.0
 30
0.0
  0
VERTEX
  5
2FC
330
2FB
100
AcDbEntity
  8
LAYER_1
 62
    40
100
AcDbVertex
100
AcDb2dVertex
 10
8.77938802748273
 20
-178.1443137408303
 30
0.0
  0
VERTEX
  5
2FD
330
2FB
100
AcDbEntity
  8
LAYER_1
 62
    40
100
AcDbVertex
100
AcDb2dVertex
 10
10.54327687137171
 20
-176.3804248523824
 30
0.0
  0
SEQEND
  5
2FE
330
2FB
100
AcDbEntity
  8
LAYER_1
 62
    40
  0
POLYLINE
  5
2FF
330
1F
100
AcDbEntity
  8
LAYER_1
 62
    40
100
AcDb2dPolyline
 66
     1
 10
0.0
 20
0.0
 30
0.0
  0
VERTEX
  5
300
330
2FF
100
AcDbEntity
  8
LAYER_1
 62
    40
100
AcDbVertex
100
AcDb2dVertex
 10
10.98975241553737
 20
-178.1443137408303
 30
0.0
  0
VERTEX
  5
301
330
2FF
100
AcDbEntity
  8
LAYER_1
 62
    40
100
AcDbVertex
100
AcDb2dVertex
 10
12.7536412594257
 20
-176.3804248523824
 30
0.0
  0
SEQEND
  5
302
330
2FF
100
AcDbEntity
  8
LAYER_1
 62
    40
  0
POLYLINE
  5
303
330
1F
100
AcDbEntity
  8
LAYER_1
 62
    40
100
AcDb2dPolyline
 66
     1
 10
0.0
 20
0.0
 30
0.0
  0
VERTEX
  5
304
330
303
100
AcDbEntity
  8
LAYER_1
 62
    40
100
AcDbVertex
100
AcDb2dVertex
 10
13.19877624807193
 20
-178.1443137408303
 30
0.0
  0
VERTEX
  5
305
330
303
100
AcDbEntity
  8
LAYER_1
 62
    40
100
AcDbVertex
100
AcDb2dVertex
 10
14.96266509195641
 20
-176.3804248523824
 30
0.0
  0
SEQEND
  5
306
330
303
100
AcDbEntity
  8
LAYER_1
 62
    40
  0
POLYLINE
  5
307
330
1F
100
AcDbEntity
  8
LAYER_1
 62
    40
100
AcDb2dPolyline
 66
     1
 10
0.0
 20
0.0
 30
0.0
  0
VERTEX
  5
308
330
307
100
AcDbEntity
  8
LAYER_1
 62
    40
100
AcDbVertex
100
AcDb2dVertex
 10
15.40843508058451
 20
-178.1443137408303
 30
0.0
  0
VERTEX
  5
309
330
307
100
AcDbEntity
  8
LAYER_1
 62
    40
100
AcDbVertex
100
AcDb2dVertex
 10
17.17232392447285
 20
-176.3804248523824
 30
0.0
  0
SEQEND
  5
30A
330
307
100
AcDbEntity
  8
LAYER_1
 62
    40
  0
POLYLINE
  5
30B
330
1F
100
AcDbEntity
  8
LAYER_1
 62
    40
100
AcDb2dPolyline
 66
     1
 10
0.0
 20
0.0
 30
0.0
  0
VERTEX
  5
30C
330
30B
100
AcDbEntity
  8
LAYER_1
 62
    40
100
AcDbVertex
100
AcDb2dVertex
 10
17.61812919087847
 20
-178.1443137408303
 30
0.0
  0
VERTEX
  5
30D
330
30B
100
AcDbEntity
  8
LAYER_1
 62
    40
100
AcDbVertex
100
AcDb2dVertex
 10
19.38201803476745
 20
-176.3804248523824
 30
0.0
  0
SEQEND
  5
30E
330
30B
100
AcDbEntity
  8
LAYER_1
 62
    40
  0
POLYLINE
  5
30F
330
1F
100
AcDbEntity
  8
LAYER_1
 62
    40
100
AcDb2dPolyline
 66
     1
 10
0.0
 20
0.0
 30
0.0
  0
VERTEX
  5
310
330
30F
100
AcDbEntity
  8
LAYER_1
 62
    40
100
AcDbVertex
100
AcDb2dVertex
 10
21.5920649228289
 20
-176.3804248523824
 30
0.0
  0
VERTEX
  5
311
330
30F
100
AcDbEntity
  8
LAYER_1
 62
    40
100
AcDbVertex
100
AcDb2dVertex
 10
19.82817607893992
 20
-178.1443137408303
 30
0.0
  0
SEQEND
  5
312
330
30F
100
AcDbEntity
  8
LAYER_1
 62
    40
  0
POLYLINE
  5
313
330
1F
100
AcDbEntity
  8
LAYER_1
 62
    40
100
AcDb2dPolyline
 66
     1
 10
0.0
 20
0.0
 30
0.0
  0
VERTEX
  5
314
330
313
100
AcDbEntity
  8
LAYER_1
 62
    40
100
AcDbVertex
100
AcDb2dVertex
 10
22.03748213368566
 20
-178.1443137408303
 30
0.0
  0
VERTEX
  5
315
330
313
100
AcDbEntity
  8
LAYER_1
 62
    40
100
AcDbVertex
100
AcDb2dVertex
 10
23.80137097757463
 20
-176.3804248523824
 30
0.0
  0
SEQEND
  5
316
330
313
100
AcDbEntity
  8
LAYER_1
 62
    40
  0
POLYLINE
  5
317
330
1F
100
AcDbEntity
  8
LAYER_1
 62
    40
100
AcDb2dPolyline
 66
     1
 10
0.0
 20
0.0
 30
0.0
  0
VERTEX
  5
318
330
317
100
AcDbEntity
  8
LAYER_1
 62
    40
100
AcDbVertex
100
AcDb2dVertex
 10
26.01106508786859
 20
-176.3804248523824
 30
0.0
  0
VERTEX
  5
319
330
317
100
AcDbEntity
  8
LAYER_1
 62
    40
100
AcDbVertex
100
AcDb2dVertex
 10
24.24717624398058
 20
-178.1443137408303
 30
0.0
  0
SEQEND
  5
31A
330
317
100
AcDbEntity
  8
LAYER_1
 62
    40
  0
POLYLINE
  5
31B
330
1F
100
AcDbEntity
  8
LAYER_1
 62
    40
100
AcDb2dPolyline
 66
     1
 10
0.0
 20
0.0
 30
0.0
  0
VERTEX
  5
31C
330
31B
100
AcDbEntity
  8
LAYER_1
 62
    40
100
AcDbVertex
100
AcDb2dVertex
 10
28.22075919815934
 20
-176.3804248523824
 30
0.0
  0
VERTEX
  5
31D
330
31B
100
AcDbEntity
  8
LAYER_1
 62
    40
100
AcDbVertex
100
AcDb2dVertex
 10
26.45687035427036
 20
-178.1443137408303
 30
0.0
  0
SEQEND
  5
31E
330
31B
100
AcDbEntity
  8
LAYER_1
 62
    40
  0
POLYLINE
  5
31F
330
1F
100
AcDbEntity
  8
LAYER_1
 62
    40
100
AcDb2dPolyline
 66
     1
 10
0.0
 20
0.0
 30
0.0
  0
VERTEX
  5
320
330
31F
100
AcDbEntity
  8
LAYER_1
 62
    40
100
AcDbVertex
100
AcDb2dVertex
 10
30.43077080844584
 20
-176.3804248523824
 30
0.0
  0
VERTEX
  5
321
330
31F
100
AcDbEntity
  8
LAYER_1
 62
    40
100
AcDbVertex
100
AcDb2dVertex
 10
28.6668819645575
 20
-178.1443137408303
 30
0.0
  0
SEQEND
  5
322
330
31F
100
AcDbEntity
  8
LAYER_1
 62
    40
  0
POLYLINE
  5
323
330
1F
100
AcDbEntity
  8
LAYER_1
 62
    40
100
AcDb2dPolyline
 66
     1
 10
0.0
 20
0.0
 30
0.0
  0
VERTEX
  5
324
330
323
100
AcDbEntity
  8
LAYER_1
 62
    40
100
AcDbVertex
100
AcDb2dVertex
 10
32.64011214096973
 20
-176.3804248523824
 30
0.0
  0
VERTEX
  5
325
330
323
100
AcDbEntity
  8
LAYER_1
 62
    40
100
AcDbVertex
100
AcDb2dVertex
 10
30.8762232970814
 20
-178.1443137408303
 30
0.0
  0
SEQEND
  5
326
330
323
100
AcDbEntity
  8
LAYER_1
 62
    40
  0
POLYLINE
  5
327
330
1F
100
AcDbEntity
  8
LAYER_1
 62
    40
100
AcDb2dPolyline
 66
     1
 10
0.0
 20
0.0
 30
0.0
  0
VERTEX
  5
328
330
327
100
AcDbEntity
  8
LAYER_1
 62
    40
100
AcDbVertex
100
AcDb2dVertex
 10
33.08591740737214
 20
-178.1443137408303
 30
0.0
  0
VERTEX
  5
329
330
327
100
AcDbEntity
  8
LAYER_1
 62
    40
100
AcDbVertex
100
AcDb2dVertex
 10
34.84980625126048
 20
-176.3804248523824
 30
0.0
  0
SEQEND
  5
32A
330
327
100
AcDbEntity
  8
LAYER_1
 62
    40
  0
POLYLINE
  5
32B
330
1F
100
AcDbEntity
  8
LAYER_1
 62
    40
100
AcDb2dPolyline
 66
     1
 10
0.0
 20
0.0
 30
0.0
  0
VERTEX
  5
32C
330
32B
100
AcDbEntity
  8
LAYER_1
 62
    40
100
AcDbVertex
100
AcDb2dVertex
 10
37.0595051517197
 20
-176.3804248523824
 30
0.0
  0
VERTEX
  5
32D
330
32B
100
AcDbEntity
  8
LAYER_1
 62
    40
100
AcDbVertex
100
AcDb2dVertex
 10
35.29561626327177
 20
-178.1443137408303
 30
0.0
  0
SEQEND
  5
32E
330
32B
100
AcDbEntity
  8
LAYER_1
 62
    40
  0
POLYLINE
  5
32F
330
1F
100
AcDbEntity
  8
LAYER_1
 62
    40
100
AcDb2dPolyline
 66
     1
 10
0.0
 20
0.0
 30
0.0
  0
VERTEX
  5
330
330
32F
100
AcDbEntity
  8
LAYER_1
 62
    40
100
AcDbVertex
100
AcDb2dVertex
 10
39.26951197183837
 20
-176.3804248523824
 30
0.0
  0
VERTEX
  5
331
330
32F
100
AcDbEntity
  8
LAYER_1
 62
    40
100
AcDbVertex
100
AcDb2dVertex
 10
37.50562312795003
 20
-178.1443137408303
 30
0.0
  0
SEQEND
  5
332
330
32F
100
AcDbEntity
  8
LAYER_1
 62
    40
  0
POLYLINE
  5
333
330
1F
100
AcDbEntity
  8
LAYER_1
 62
    40
100
AcDb2dPolyline
 66
     1
 10
0.0
 20
0.0
 30
0.0
  0
VERTEX
  5
334
330
333
100
AcDbEntity
  8
LAYER_1
 62
    40
100
AcDbVertex
100
AcDb2dVertex
 10
41.47885330436227
 20
-176.3804248523824
 30
0.0
  0
VERTEX
  5
335
330
333
100
AcDbEntity
  8
LAYER_1
 62
    40
100
AcDbVertex
100
AcDb2dVertex
 10
39.71496446047361
 20
-178.1443137408303
 30
0.0
  0
SEQEND
  5
336
330
333
100
AcDbEntity
  8
LAYER_1
 62
    40
  0
POLYLINE
  5
337
330
1F
100
AcDbEntity
  8
LAYER_1
 62
    40
100
AcDb2dPolyline
 66
     1
 10
0.0
 20
0.0
 30
0.0
  0
VERTEX
  5
338
330
337
100
AcDbEntity
  8
LAYER_1
 62
    40
100
AcDbVertex
100
AcDb2dVertex
 10
43.68855237228439
 20
-176.3804248523824
 30
0.0
  0
VERTEX
  5
339
330
337
100
AcDbEntity
  8
LAYER_1
 62
    40
100
AcDbVertex
100
AcDb2dVertex
 10
41.92466348383648
 20
-178.1443137408303
 30
0.0
  0
SEQEND
  5
33A
330
337
100
AcDbEntity
  8
LAYER_1
 62
    40
  0
POLYLINE
  5
33B
330
1F
100
AcDbEntity
  8
LAYER_1
 62
    40
100
AcDb2dPolyline
 66
     1
 10
0.0
 20
0.0
 30
0.0
  0
VERTEX
  5
33C
330
33B
100
AcDbEntity
  8
LAYER_1
 62
    40
100
AcDbVertex
100
AcDb2dVertex
 10
45.89824152494697
 20
-176.3804248523824
 30
0.0
  0
VERTEX
  5
33D
330
33B
100
AcDbEntity
  8
LAYER_1
 62
    40
100
AcDbVertex
100
AcDb2dVertex
 10
44.13435268105799
 20
-178.1443137408303
 30
0.0
  0
SEQEND
  5
33E
330
33B
100
AcDbEntity
  8
LAYER_1
 62
    40
  0
POLYLINE
  5
33F
330
1F
100
AcDbEntity
  8
LAYER_1
 62
    40
100
AcDb2dPolyline
 66
     1
 10
0.0
 20
0.0
 30
0.0
  0
VERTEX
  5
340
330
33F
100
AcDbEntity
  8
LAYER_1
 62
    40
100
AcDbVertex
100
AcDb2dVertex
 10
48.10825313523379
 20
-176.3804248523824
 30
0.0
  0
VERTEX
  5
341
330
33F
100
AcDbEntity
  8
LAYER_1
 62
    40
100
AcDbVertex
100
AcDb2dVertex
 10
46.34436429134513
 20
-178.1443137408303
 30
0.0
  0
SEQEND
  5
342
330
33F
100
AcDbEntity
  8
LAYER_1
 62
    40
  0
POLYLINE
  5
343
330
1F
100
AcDbEntity
  8
LAYER_1
 62
    40
100
AcDb2dPolyline
 66
     1
 10
0.0
 20
0.0
 30
0.0
  0
VERTEX
  5
344
330
343
100
AcDbEntity
  8
LAYER_1
 62
    40
100
AcDbVertex
100
AcDb2dVertex
 10
48.55371070440182
 20
-178.1443137408303
 30
0.0
  0
VERTEX
  5
345
330
343
100
AcDbEntity
  8
LAYER_1
 62
    40
100
AcDbVertex
100
AcDb2dVertex
 10
50.31759959284973
 20
-176.3804248523824
 30
0.0
  0
SEQEND
  5
346
330
343
100
AcDbEntity
  8
LAYER_1
 62
    40
  0
POLYLINE
  5
347
330
1F
100
AcDbEntity
  8
LAYER_1
 62
    40
100
AcDb2dPolyline
 66
     1
 10
0.0
 20
0.0
 30
0.0
  0
VERTEX
  5
348
330
347
100
AcDbEntity
  8
LAYER_1
 62
    40
100
AcDbVertex
100
AcDb2dVertex
 10
52.52728857804811
 20
-176.3804248523824
 30
0.0
  0
VERTEX
  5
349
330
347
100
AcDbEntity
  8
LAYER_1
 62
    40
100
AcDbVertex
100
AcDb2dVertex
 10
50.76339973415914
 20
-178.1443137408303
 30
0.0
  0
SEQEND
  5
34A
330
347
100
AcDbEntity
  8
LAYER_1
 62
    40
  0
POLYLINE
  5
34B
330
1F
100
AcDbEntity
  8
LAYER_1
 62
    40
100
AcDb2dPolyline
 66
     1
 10
0.0
 20
0.0
 30
0.0
  0
VERTEX
  5
34C
330
34B
100
AcDbEntity
  8
LAYER_1
 62
    40
100
AcDbVertex
100
AcDb2dVertex
 10
52.97309384445374
 20
-178.1443137408303
 30
0.0
  0
VERTEX
  5
34D
330
34B
100
AcDbEntity
  8
LAYER_1
 62
    40
100
AcDbVertex
100
AcDb2dVertex
 10
54.73698268834271
 20
-176.3804248523824
 30
0.0
  0
SEQEND
  5
34E
330
34B
100
AcDbEntity
  8
LAYER_1
 62
    40
  0
POLYLINE
  5
34F
330
1F
100
AcDbEntity
  8
LAYER_1
 62
    40
100
AcDb2dPolyline
 66
     1
 10
0.0
 20
0.0
 30
0.0
  0
VERTEX
  5
350
330
34F
100
AcDbEntity
  8
LAYER_1
 62
    40
100
AcDbVertex
100
AcDb2dVertex
 10
56.94664681341475
 20
-176.3804248523824
 30
0.0
  0
VERTEX
  5
351
330
34F
100
AcDbEntity
  8
LAYER_1
 62
    40
100
AcDbVertex
100
AcDb2dVertex
 10
55.18275792496684
 20
-178.1443137408303
 30
0.0
  0
SEQEND
  5
352
330
34F
100
AcDbEntity
  8
LAYER_1
 62
    40
  0
POLYLINE
  5
353
330
1F
100
AcDbEntity
  8
LAYER_1
 62
    40
100
AcDb2dPolyline
 66
     1
 10
0.0
 20
0.0
 30
0.0
  0
VERTEX
  5
354
330
353
100
AcDbEntity
  8
LAYER_1
 62
    40
100
AcDbVertex
100
AcDb2dVertex
 10
59.15633563114989
 20
-176.3804248523824
 30
0.0
  0
VERTEX
  5
355
330
353
100
AcDbEntity
  8
LAYER_1
 62
    40
100
AcDbVertex
100
AcDb2dVertex
 10
57.39244678726092
 20
-178.1443137408303
 30
0.0
  0
SEQEND
  5
356
330
353
100
AcDbEntity
  8
LAYER_1
 62
    40
  0
POLYLINE
  5
357
330
1F
100
AcDbEntity
  8
LAYER_1
 62
    40
100
AcDb2dPolyline
 66
     1
 10
0.0
 20
0.0
 30
0.0
  0
VERTEX
  5
358
330
357
100
AcDbEntity
  8
LAYER_1
 62
    40
100
AcDbVertex
100
AcDb2dVertex
 10
61.36602974144385
 20
-176.3804248523824
 30
0.0
  0
VERTEX
  5
359
330
357
100
AcDbEntity
  8
LAYER_1
 62
    40
100
AcDbVertex
100
AcDb2dVertex
 10
59.60214089755551
 20
-178.1443137408303
 30
0.0
  0
SEQEND
  5
35A
330
357
100
AcDbEntity
  8
LAYER_1
 62
    40
  0
POLYLINE
  5
35B
330
1F
100
AcDbEntity
  8
LAYER_1
 62
    40
100
AcDb2dPolyline
 66
     1
 10
0.0
 20
0.0
 30
0.0
  0
VERTEX
  5
35C
330
35B
100
AcDbEntity
  8
LAYER_1
 62
    40
100
AcDbVertex
100
AcDb2dVertex
 10
63.12992014385167
 20
-176.3804248523824
 30
0.0
  0
VERTEX
  5
35D
330
35B
100
AcDbEntity
  8
LAYER_1
 62
    40
100
AcDbVertex
100
AcDb2dVertex
 10
61.36603129996269
 20
-178.1443137408303
 30
0.0
  0
SEQEND
  5
35E
330
35B
100
AcDbEntity
  8
LAYER_1
 62
    40
  0
POLYLINE
  5
35F
330
1F
100
AcDbEntity
  8
LAYER_1
 62
    40
100
AcDb2dPolyline
 66
     1
 10
0.0
 20
0.0
 30
0.0
  0
VERTEX
  5
360
330
35F
100
AcDbEntity
  8
LAYER_1
 62
    40
100
AcDbVertex
100
AcDb2dVertex
 10
63.16318237628428
 20
-178.1443137408303
 30
0.0
  0
VERTEX
  5
361
330
35F
100
AcDbEntity
  8
LAYER_1
 62
    40
100
AcDbVertex
100
AcDb2dVertex
 10
-49.78577916191763
 20
-178.1443137408303
 30
0.0
  0
SEQEND
  5
362
330
35F
100
AcDbEntity
  8
LAYER_1
 62
    40
  0
POLYLINE
  5
363
330
1F
100
AcDbEntity
  8
LAYER_1
 62
    40
100
AcDb2dPolyline
 66
     1
 10
0.0
 20
0.0
 30
0.0
  0
VERTEX
  5
364
330
363
100
AcDbEntity
  8
LAYER_1
 62
    40
100
AcDbVertex
100
AcDb2dVertex
 10
-49.78586528930283
 20
-176.344021859058
 30
0.0
  0
VERTEX
  5
365
330
363
100
AcDbEntity
  8
LAYER_1
 62
    40
100
AcDbVertex
100
AcDb2dVertex
 10
63.16318237628428
 20
-176.344021859058
 30
0.0
  0
SEQEND
  5
366
330
363
100
AcDbEntity
  8
LAYER_1
 62
    40
  0
SPLINE
  5
367
330
1F
100
AcDbEntity
  8
LAYER_1
 62
     1
100
AcDbSpline
210
0.0
220
0.0
230
1.0
 70
     8
 71
     3
 72
    68
 73
    64
 74
     0
 42
0.0000000001
 43
0.0000000001
 12
1.0
 22
0.0
 32
0.0
 13
1.0
 23
0.0
 33
0.0
 40
0.0
 40
0.0
 40
0.0
 40
0.0
 40
1.0
 40
1.0
 40
1.0
 40
2.0
 40
2.0
 40
2.0
 40
3.0
 40
3.0
 40
3.0
 40
4.0
 40
4.0
 40
4.0
 40
5.0
 40
5.0
 40
5.0
 40
6.0
 40
6.0
 40
6.0
 40
7.0
 40
7.0
 40
7.0
 40
8.0
 40
8.0
 40
8.0
 40
9.0
 40
9.0
 40
9.0
 40
10.0
 40
10.0
 40
10.0
 40
11.0
 40
11.0
 40
11.0
 40
12.0
 40
12.0
 40
12.0
 40
13.0
 40
13.0
 40
13.0
 40
14.0
 40
14.0
 40
14.0
 40
15.0
 40
15.0
 40
15.0
 40
16.0
 40
16.0
 40
16.0
 40
17.0
 40
17.0
 40
17.0
 40
18.0
 40
18.0
 40
18.0
 40
19.0
 40
19.0
 40
19.0
 40
20.0
 40
20.0
 40
20.0
 40
21.0
 40
21.0
 40
21.0
 40
21.0
 10
74.36483125946802
 20
-88.54442238713216
 30
0.0
 10
74.36483125946802
 20
-88.54442238713216
 30
0.0
 10
74.36483125946802
 20
-126.900909736484
 30
0.0
 10
74.36483125946802
 20
-126.900909736484
 30
0.0
 10
74.36483125946802
 20
-126.900909736484
 30
0.0
 10
71.36484211091245
 20
-126.900909736484
 30
0.0
 10
71.36484211091245
 20
-126.900909736484
 30
0.0
 10
71.36484211091245
 20
-126.900909736484
 30
0.0
 10
68.81073444553728
 20
-126.900909736484
 30
0.0
 10
68.81073444553728
 20
-126.900909736484
 30
0.0
 10
67.40014009910173
 20
-126.900909736484
 30
0.0
 10
66.25662678015826
 20
-128.0445091828127
 30
0.0
 10
66.25662678015826
 20
-129.4551035292482
 30
0.0
 10
66.25662678015826
 20
-129.4551035292482
 30
0.0
 10
66.25662678015826
 20
-153.5800736838073
 30
0.0
 10
66.25662678015826
 20
-153.5800736838073
 30
0.0
 10
66.25662678015826
 20
-154.9906680302428
 30
0.0
 10
67.40014009910173
 20
-156.1342674765715
 30
0.0
 10
68.81073444553728
 20
-156.1342674765715
 30
0.0
 10
70.22132879197282
 20
-156.1342674765715
 30
0.0
 10
71.36484211091245
 20
-154.9906680302428
 30
0.0
 10
71.36484211091245
 20
-153.5800736838073
 30
0.0
 10
71.36484211091245
 20
-153.5800736838073
 30
0.0
 10
71.36484211091245
 20
-144.4147416548486
 30
0.0
 10
71.36484211091245
 20
-144.4147416548486
 30
0.0
 10
71.36484211091245
 20
-144.4147416548486
 30
0.0
 10
74.36483125946802
 20
-144.4147416548486
 30
0.0
 10
74.36483125946802
 20
-144.4147416548486
 30
0.0
 10
74.36483125946802
 20
-144.4147416548486
 30
0.0
 10
74.36483125946802
 20
-183.7851206055095
 30
0.0
 10
74.36483125946802
 20
-183.7851206055095
 30
0.0
 10
74.36483125946802
 20
-183.7851206055095
 30
0.0
 10
180.2537167310446
 20
-183.7851206055095
 30
0.0
 10
180.2537167310446
 20
-183.7851206055095
 30
0.0
 10
180.2537167310446
 20
-183.7851206055095
 30
0.0
 10
180.2537167310446
 20
-144.4147416548486
 30
0.0
 10
180.2537167310446
 20
-144.4147416548486
 30
0.0
 10
180.2537167310446
 20
-144.4147416548486
 30
0.0
 10
183.2537058796001
 20
-144.4147416548486
 30
0.0
 10
183.2537058796001
 20
-144.4147416548486
 30
0.0
 10
183.2537058796001
 20
-144.4147416548486
 30
0.0
 10
183.2537058796001
 20
-153.5800736838073
 30
0.0
 10
183.2537058796001
 20
-153.5800736838073
 30
0.0
 10
183.2537058796001
 20
-154.9906680302428
 30
0.0
 10
184.3972191985398
 20
-156.1342674765715
 30
0.0
 10
185.8078135449753
 20
-156.1342674765715
 30
0.0
 10
187.2184078914109
 20
-156.1342674765715
 30
0.0
 10
188.3619212103544
 20
-154.9906680302428
 30
0.0
 10
188.3619212103544
 20
-153.5800736838073
 30
0.0
 10
188.3619212103544
 20
-153.5800736838073
 30
0.0
 10
188.3619212103544
 20
-129.4551035292482
 30
0.0
 10
188.3619212103544
 20
-129.4551035292482
 30
0.0
 10
188.3619212103544
 20
-128.0445091828127
 30
0.0
 10
187.2184078914109
 20
-126.900909736484
 30
0.0
 10
185.8078135449753
 20
-126.900909736484
 30
0.0
 10
185.8078135449753
 20
-126.900909736484
 30
0.0
 10
183.2537058796001
 20
-126.900909736484
 30
0.0
 10
183.2537058796001
 20
-126.900909736484
 30
0.0
 10
183.2537058796001
 20
-126.900909736484
 30
0.0
 10
180.2537167310446
 20
-126.900909736484
 30
0.0
 10
180.2537167310446
 20
-126.900909736484
 30
0.0
 10
180.2537167310446
 20
-126.900909736484
 30
0.0
 10
180.2537167310446
 20
-88.54442238713216
 30
0.0
 10
180.2537167310446
 20
-88.54442238713216
 30
0.0
  0
POLYLINE
  5
368
330
1F
100
AcDbEntity
  8
LAYER_1
 62
     1
100
AcDb2dPolyline
 66
     1
 10
0.0
 20
0.0
 30
0.0
  0
VERTEX
  5
369
330
368
100
AcDbEntity
  8
LAYER_1
 62
     1
100
AcDbVertex
100
AcDb2dVertex
 10
125.2390730544752
 20
-156.3415545655503
 30
0.0
  0
VERTEX
  5
36A
330
368
100
AcDbEntity
  8
LAYER_1
 62
     1
100
AcDbVertex
100
AcDb2dVertex
 10
108.8376624682977
 20
-156.3415545655503
 30
0.0
  0
VERTEX
  5
36B
330
368
100
AcDbEntity
  8
LAYER_1
 62
     1
100
AcDbVertex
100
AcDb2dVertex
 10
108.8376624682977
 20
-139.9401439793729
 30
0.0
  0
VERTEX
  5
36C
330
368
100
AcDbEntity
  8
LAYER_1
 62
     1
100
AcDbVertex
100
AcDb2dVertex
 10
125.2390730544752
 20
-139.9401439793729
 30
0.0
  0
VERTEX
  5
36D
330
368
100
AcDbEntity
  8
LAYER_1
 62
     1
100
AcDbVertex
100
AcDb2dVertex
 10
125.2390730544752
 20
-156.3415545655503
 30
0.0
  0
SEQEND
  5
36E
330
368
100
AcDbEntity
  8
LAYER_1
 62
     1
  0
POLYLINE
  5
36F
330
1F
100
AcDbEntity
  8
LAYER_1
 62
     1
100
AcDb2dPolyline
 66
     1
 10
0.0
 20
0.0
 30
0.0
  0
VERTEX
  5
370
330
36F
100
AcDbEntity
  8
LAYER_1
 62
     1
100
AcDbVertex
100
AcDb2dVertex
 10
125.2390730544752
 20
-135.7791576522881
 30
0.0
  0
VERTEX
  5
371
330
36F
100
AcDbEntity
  8
LAYER_1
 62
     1
100
AcDbVertex
100
AcDb2dVertex
 10
108.8376624682977
 20
-135.7791576522881
 30
0.0
  0
VERTEX
  5
372
330
36F
100
AcDbEntity
  8
LAYER_1
 62
     1
100
AcDbVertex
100
AcDb2dVertex
 10
108.8376624682977
 20
-119.3777470661107
 30
0.0
  0
VERTEX
  5
373
330
36F
100
AcDbEntity
  8
LAYER_1
 62
     1
100
AcDbVertex
100
AcDb2dVertex
 10
125.2390730544752
 20
-119.3777470661107
 30
0.0
  0
VERTEX
  5
374
330
36F
100
AcDbEntity
  8
LAYER_1
 62
     1
100
AcDbVertex
100
AcDb2dVertex
 10
125.2390730544752
 20
-135.7791576522881
 30
0.0
  0
SEQEND
  5
375
330
36F
100
AcDbEntity
  8
LAYER_1
 62
     1
  0
POLYLINE
  5
376
330
1F
100
AcDbEntity
  8
LAYER_1
 62
     1
100
AcDb2dPolyline
 66
     1
 10
0.0
 20
0.0
 30
0.0
  0
VERTEX
  5
377
330
376
100
AcDbEntity
  8
LAYER_1
 62
     1
100
AcDbVertex
100
AcDb2dVertex
 10
145.8016422225116
 20
-156.3415545655503
 30
0.0
  0
VERTEX
  5
378
330
376
100
AcDbEntity
  8
LAYER_1
 62
     1
100
AcDbVertex
100
AcDb2dVertex
 10
129.400145508949
 20
-156.3415545655503
 30
0.0
  0
VERTEX
  5
379
330
376
100
AcDbEntity
  8
LAYER_1
 62
     1
100
AcDbVertex
100
AcDb2dVertex
 10
129.400145508949
 20
-139.9401439793729
 30
0.0
  0
VERTEX
  5
37A
330
376
100
AcDbEntity
  8
LAYER_1
 62
     1
100
AcDbVertex
100
AcDb2dVertex
 10
145.8016422225116
 20
-139.9401439793729
 30
0.0
  0
VERTEX
  5
37B
330
376
100
AcDbEntity
  8
LAYER_1
 62
     1
100
AcDbVertex
100
AcDb2dVertex
 10
145.8016422225116
 20
-156.3415545655503
 30
0.0
  0
SEQEND
  5
37C
330
376
100
AcDbEntity
  8
LAYER_1
 62
     1
  0
POLYLINE
  5
37D
330
1F
100
AcDbEntity
  8
LAYER_1
 62
     1
100
AcDb2dPolyline
 66
     1
 10
0.0
 20
0.0
 30
0.0
  0
VERTEX
  5
37E
330
37D
100
AcDbEntity
  8
LAYER_1
 62
     1
100
AcDbVertex
100
AcDb2dVertex
 10
145.8016422225116
 20
-135.7791576522881
 30
0.0
  0
VERTEX
  5
37F
330
37D
100
AcDbEntity
  8
LAYER_1
 62
     1
100
AcDbVertex
100
AcDb2dVertex
 10
129.400145508949
 20
-135.7791576522881
 30
0.0
  0
VERTEX
  5
380
330
37D
100
AcDbEntity
  8
LAYER_1
 62
     1
100
AcDbVertex
100
AcDb2dVertex
 10
129.400145508949
 20
-119.3777470661107
 30
0.0
  0
VERTEX
  5
381
330
37D
100
AcDbEntity
  8
LAYER_1
 62
     1
100
AcDbVertex
100
AcDb2dVertex
 10
145.8016422225116
 20
-119.3777470661107
 30
0.0
  0
VERTEX
  5
382
330
37D
100
AcDbEntity
  8
LAYER_1
 62
     1
100
AcDbVertex
100
AcDb2dVertex
 10
145.8016422225116
 20
-135.7791576522881
 30
0.0
  0
SEQEND
  5
383
330
37D
100
AcDbEntity
  8
LAYER_1
 62
     1
  0
ENDSEC
  0
SECTION
  2
OBJECTS
  0
DICTIONARY
  5
C
330
0
100
AcDbDictionary
  3
ACAD_GROUP
350
D
  3
ACAD_LAYOUT
350
1A
  3
ACAD_MATERIAL
350
3B
  3
ACAD_MLEADERSTYLE
350
386
  3
ACAD_MLINESTYLE
350
17
  3
ACAD_PLOTSETTINGS
350
19
  3
ACAD_VISUALSTYLE
350
2A
  3
ACDBVARIABLEDICTIONARY
350
384
1001
ACAD
1000
TREAT_AS_HARD
1070
     0
  0
DICTIONARY
  5
D
102
{ACAD_REACTORS
330
C
102
}
330
C
100
AcDbDictionary
1001
ACAD
1000
TREAT_AS_HARD
1070
     0
  0
DICTIONARY
  5
1A
102
{ACAD_REACTORS
330
C
102
}
330
C
100
AcDbDictionary
1001
ACAD
1000
TREAT_AS_HARD
1070
     0
  0
DICTIONARY
  5
3B
102
{ACAD_REACTORS
330
C
102
}
330
C
100
AcDbDictionary
  3
BYBLOCK
350
3D
  3
BYLAYER
350
3C
  3
GLOBAL
350
3E
1001
ACAD
1000
TREAT_AS_HARD
1070
     0
  0
DICTIONARY
  5
386
102
{ACAD_REACTORS
330
C
102
}
330
C
100
AcDbDictionary
1001
ACAD
1000
TREAT_AS_HARD
1070
     0
  0
DICTIONARY
  5
17
102
{ACAD_REACTORS
330
C
102
}
330
C
100
AcDbDictionary
  3
STANDARD
350
18
1001
ACAD
1000
TREAT_AS_HARD
1070
     0
  0
DICTIONARY
  5
19
102
{ACAD_REACTORS
330
C
102
}
330
C
100
AcDbDictionary
1001
ACAD
1000
TREAT_AS_HARD
1070
     0
  0
DICTIONARY
  5
2A
102
{ACAD_REACTORS
330
C
102
}
330
C
100
AcDbDictionary
  3
2DWIREFRAME
350
2F
  3
3DWIREFRAME
350
30
  3
3D_HIDDEN
350
31
  3
BASIC
350
32
  3
BRIGHTEN
350
36
  3
COLORCHANGE
350
3A
  3
CONCEPTUAL
350
34
  3
DIM
350
35
  3
FACEPATTERN
350
39
  3
FLAT
350
2B
  3
FLATWITHEDGES
350
2C
  3
GOURAUD
350
2D
  3
GOURAUDWITHEDGES
350
2E
  3
LINEPATTERN
350
38
  3
REALISTIC
350
33
  3
THICKEN
350
37
1001
ACAD
1000
TREAT_AS_HARD
1070
     0
  0
DICTIONARY
  5
384
102
{ACAD_REACTORS
330
C
102
}
330
C
100
AcDbDictionary
  3
DIMASSOC
350
387
  3
HIDETEXT
350
388
1001
ACAD
1000
TREAT_AS_HARD
1070
     0
  0
MATERIAL
  5
3D
102
{ACAD_REACTORS
330
3B
102
}
102
{ACAD_XDICTIONARY
360
38B
102
}
330
3B
100
AcDbMaterial
  1
ByBlock
  0
MATERIAL
  5
3C
102
{ACAD_REACTORS
330
3B
102
}
102
{ACAD_XDICTIONARY
360
389
102
}
330
3B
100
AcDbMaterial
  1
ByLayer
  0
MATERIAL
  5
3E
102
{ACAD_REACTORS
330
3B
102
}
102
{ACAD_XDICTIONARY
360
38D
102
}
330
3B
100
AcDbMaterial
  1
Global
  0
MLINESTYLE
  5
18
102
{ACAD_REACTORS
330
17
102
}
330
17
100
AcDbMlineStyle
  2
Standard
 70
     0
  3

 62
   256
 51
90.0
 52
90.0
 71
     2
 49
0.5
 62
   256
  6
BYLAYER
 49
-0.5
 62
   256
  6
BYLAYER
  0
ACAD_PROXY_OBJECT
  5
2F
102
{ACAD_REACTORS
330
2A
102
}
330
2A
100
AcDbZombieObject
 90
      499
 91
      501
 93
      436
310
42CC9915DA5C99599C985B595049028333333333333E3BF0000000000000FB0107901411070040501600405405064090741402480A0340
1001
ACAD
1000
AcDbSavedByObjectVersion
1070
     0
  0
ACAD_PROXY_OBJECT
  5
30
102
{ACAD_REACTORS
330
2A
102
}
330
2A
100
AcDbZombieObject
 90
      499
 91
      501
 93
      436
310
42CCD915DA5C99599C985B595059028333333333333E3BF0000000000000FB0107901411070040501600405405064090741402480A0340
1001
ACAD
1000
AcDbSavedByObjectVersion
1070
     0
  0
ACAD_PROXY_OBJECT
  5
31
102
{ACAD_REACTORS
330
2A
102
}
330
2A
100
AcDbZombieObject
 90
      499
 91
      501
 93
      500
310
424CD108121A5919195B90640502408333333333333E3BF0000000000000FB01079024090700405020000000000001110200405405064090740C02480A0340
1001
ACAD
1000
AcDbSavedByObjectVersion
1070
     0
  0
ACAD_PROXY_OBJECT
  5
32
102
{ACAD_REACTORS
330
2A
102
}
330
2A
100
AcDbZombieObject
 90
      499
 91
      501
 93
      388
310
4150985CDA58D07406404333333333333E3BF0000000000000FB0107A41107004050150841D405064090741402480A0350
1001
ACAD
1000
AcDbSavedByObjectVersion
1070
     0
  0
ACAD_PROXY_OBJECT
  5
36
102
{ACAD_REACTORS
330
2A
102
}
330
2A
100
AcDbZombieObject
 90
      499
 91
      501
 93
      428
310
42109C9A59DA1D195B90C409028333333333333E3BF0000000000000FB010790141107004050150841D405064090741402480A029950
1001
ACAD
1000
AcDbSavedByObjectVersion
1070
     0
  0
ACAD_PROXY_OBJECT
  5
3A
102
{ACAD_REACTORS
330
2A
102
}
330
2A
100
AcDbZombieObject
 90
      499
 91
      501
 93
      452
310
42D0DBDB1BDC90DA185B99D95104090240C333333333333E3BF0000000000000FB0108901411070040501508421405064090741402480A0350
1001
ACAD
1000
AcDbSavedByObjectVersion
1070
     0
  0
ACAD_PROXY_OBJECT
  5
34
102
{ACAD_REACTORS
330
2A
102
}
330
2A
100
AcDbZombieObject
 90
      499
 91
      501
 93
      500
310
4290DBDB98D95C1D1D585B10940D028333333333333E3BF0000000000000FB0107902409070040501000000000000111010841D405064090740C02480A0340
1001
ACAD
1000
AcDbSavedByObjectVersion
1070
     0
  0
ACAD_PROXY_OBJECT
  5
35
102
{ACAD_REACTORS
330
2A
102
}
330
2A
100
AcDbZombieObject
 90
      499
 91
      501
 93
      412
310
40D11A5B50B409028333333333333E3BF0000000000000FB010790141107004050150841D405064090741402480A02677FFFFFD0
1001
ACAD
1000
AcDbSavedByObjectVersion
1070
     0
  0
ACAD_PROXY_OBJECT
  5
39
102
{ACAD_REACTORS
330
2A
102
}
330
2A
100
AcDbZombieObject
 90
      499
 91
      501
 93
      444
310
42D19858D95C185D1D195C9B90F409028333333333333E3BF0000000000000FB010790141107004050150841D405064090741402480A0350
1001
ACAD
1000
AcDbSavedByObjectVersion
1070
     0
  0
ACAD_PROXY_OBJECT
  5
2B
102
{ACAD_REACTORS
330
2A
102
}
330
2A
100
AcDbZombieObject
 90
      499
 91
      501
 93
      388
310
41119B185D240901404333333333333E3BF0000000000000F9010740A41107004050150841D405064090741402480A1B50
1001
ACAD
1000
AcDbSavedByObjectVersion
1070
     0
  0
ACAD_PROXY_OBJECT
  5
2C
102
{ACAD_REACTORS
330
2A
102
}
330
2A
100
AcDbZombieObject
 90
      499
 91
      501
 93
      476
310
43519B185D15DA5D1A115919D95CD0140901404333333333333E3BF0000000000000F9010740901411070040501600405405064090741402480A1B50
1001
ACAD
1000
AcDbSavedByObjectVersion
1070
     0
  0
ACAD_PROXY_OBJECT
  5
2D
102
{ACAD_REACTORS
330
2A
102
}
330
2A
100
AcDbZombieObject
 90
      499
 91
      501
 93
      412
310
41D1DBDD5C985D5910240902404333333333333E3BF0000000000000F9010740A411070040501641D405064090741402480A1B50
1001
ACAD
1000
AcDbSavedByObjectVersion
1070
     0
  0
ACAD_PROXY_OBJECT
  5
2E
102
{ACAD_REACTORS
330
2A
102
}
330
2A
100
AcDbZombieObject
 90
      499
 91
      501
 93
      500
310
4411DBDD5C985D5915DA5D1A115919D95CD0340902404333333333333E3BF0000000000000F9010740901411070040501600405405064090741402480A1B50
1001
ACAD
1000
AcDbSavedByObjectVersion
1070
     0
  0
ACAD_PROXY_OBJECT
  5
38
102
{ACAD_REACTORS
330
2A
102
}
330
2A
100
AcDbZombieObject
 90
      499
 91
      501
 93
      444
310
42D31A5B995C185D1D195C9B90E409028333333333333E3BF0000000000000FB010790141107004050750841D405064090741402483A0350
1001
ACAD
1000
AcDbSavedByObjectVersion
1070
     0
  0
ACAD_PROXY_OBJECT
  5
33
102
{ACAD_REACTORS
330
2A
102
}
330
2A
100
AcDbZombieObject
 90
      499
 91
      501
 93
      420
310
425499585B1A5CDD1A58D08409028333333333333E3BF0000000000000FB01079019070040501508421405064090741402480A1B40
1001
ACAD
1000
AcDbSavedByObjectVersion
1070
     0
  0
ACAD_PROXY_OBJECT
  5
37
102
{ACAD_REACTORS
330
2A
102
}
330
2A
100
AcDbZombieObject
 90
      499
 91
      501
 93
      412
310
41D51A1A58DAD95B90D409028333333333333E3BF0000000000000FB010790141107004050150C41D405064090741402480A0350
1001
ACAD
1000
AcDbSavedByObjectVersion
1070
     0
  0
DICTIONARYVAR
  5
387
102
{ACAD_REACTORS
330
384
102
}
330
384
100
DictionaryVariables
280
     0
  1
2
  0
DICTIONARYVAR
  5
388
102
{ACAD_REACTORS
330
384
102
}
330
384
100
DictionaryVariables
280
     0
  1
1
  0
DICTIONARY
  5
38B
330
3D
100
AcDbDictionary
  3
ACAD_XREC_ROUNDTRIP
360
38C
1001
ACAD
1000
TREAT_AS_HARD
1070
     1
  0
DICTIONARY
  5
389
330
3C
100
AcDbDictionary
  3
ACAD_XREC_ROUNDTRIP
360
38A
1001
ACAD
1000
TREAT_AS_HARD
1070
     1
  0
DICTIONARY
  5
38D
330
3E
100
AcDbDictionary
  3
ACAD_XREC_ROUNDTRIP
360
38E
1001
ACAD
1000
TREAT_AS_HARD
1070
     1
  0
XRECORD
  5
38C
102
{ACAD_REACTORS
330
38B
102
}
330
38B
100
AcDbXrecord
102
MATERIAL
148
0.0
149
0.0
149
0.0
 93
        0
 94
      127
282
     0
 72
     1
 77
     1
171
     1
175
     1
179
     1
273
     0
  0
XRECORD
  5
38A
102
{ACAD_REACTORS
330
389
102
}
330
389
100
AcDbXrecord
102
MATERIAL
148
0.0
149
0.0
149
0.0
 93
        0
 94
      127
282
     0
 72
     1
 77
     1
171
     1
175
     1
179
     1
273
     0
  0
XRECORD
  5
38E
102
{ACAD_REACTORS
330
38D
102
}
330
38D
100
AcDbXrecord
102
MATERIAL
148
0.0
149
0.0
149
0.0
 93
        0
 94
      127
282
     0
 72
     1
 77
     1
171
     1
175
     1
179
     1
273
     0
  0
ENDSEC
  0
EOF
